<?xml version="1.0" encoding="utf-8"?>
<!-- Generator: Adobe Illustrator 27.5.0, SVG Export Plug-In . SVG Version: 6.00 Build 0)  -->
<svg version="1.1" xmlns="http://www.w3.org/2000/svg" xmlns:xlink="http://www.w3.org/1999/xlink" x="0px" y="0px"
	 viewBox="0 0 500 500" style="enable-background:new 0 0 500 500;" xml:space="preserve">
<g id="Background_Complete">
	<rect x="416.779" y="398.494" style="fill:#EBEBEB;" width="33.122" height="0.25"/>
	<rect x="322.527" y="401.208" style="fill:#EBEBEB;" width="8.693" height="0.25"/>
	<rect x="396.586" y="389.208" style="fill:#EBEBEB;" width="19.192" height="0.25"/>
	<rect x="52.459" y="390.888" style="fill:#EBEBEB;" width="43.193" height="0.25"/>
	<rect x="104.556" y="390.888" style="fill:#EBEBEB;" width="6.333" height="0.25"/>
	<rect x="131.471" y="395.111" style="fill:#EBEBEB;" width="93.676" height="0.25"/>
	<g>
		<path style="fill:#EBEBEB;" d="M238.401,337.8H45.302c-3.147,0-5.708-2.561-5.708-5.708V60.66c0-3.147,2.561-5.708,5.708-5.708
			h193.099c3.146,0,5.707,2.561,5.707,5.708v271.432C244.108,335.239,241.547,337.8,238.401,337.8z M45.302,55.203
			c-3.01,0-5.458,2.448-5.458,5.458v271.432c0,3.01,2.448,5.458,5.458,5.458h193.099c3.009,0,5.457-2.448,5.457-5.458V60.66
			c0-3.009-2.448-5.458-5.457-5.458H45.302z"/>
		<path style="fill:#EBEBEB;" d="M454.698,337.8H261.599c-3.146,0-5.707-2.561-5.707-5.708V60.66c0-3.147,2.561-5.708,5.707-5.708
			h193.099c3.148,0,5.708,2.561,5.708,5.708v271.432C460.406,335.239,457.845,337.8,454.698,337.8z M261.599,55.203
			c-3.009,0-5.457,2.448-5.457,5.458v271.432c0,3.01,2.448,5.458,5.457,5.458h193.099c3.01,0,5.458-2.448,5.458-5.458V60.66
			c0-3.009-2.448-5.458-5.458-5.458H261.599z"/>
	</g>
	<rect y="382.398" style="fill:#EBEBEB;" width="500" height="0.25"/>
	<g>
		<g>
			<path style="fill:#EBEBEB;" d="M135.305,179.577c-22.929,0-41.583-18.654-41.583-41.583c0-22.929,18.654-41.583,41.583-41.583
				c22.929,0,41.584,18.654,41.584,41.583C176.888,160.922,158.234,179.577,135.305,179.577z M135.305,104.41
				c-18.517,0-33.583,15.065-33.583,33.583c0,18.518,15.065,33.583,33.583,33.583c18.518,0,33.584-15.066,33.584-33.583
				C168.888,119.475,153.823,104.41,135.305,104.41z"/>
		</g>
		<g>
			<path style="fill:#EBEBEB;" d="M135.305,164.337c-14.526,0-26.343-11.817-26.343-26.343c0-14.526,11.817-26.344,26.343-26.344
				c14.526,0,26.343,11.818,26.343,26.344C161.648,152.519,149.831,164.337,135.305,164.337z M135.305,119.65
				c-10.115,0-18.343,8.229-18.343,18.344c0,10.115,8.229,18.343,18.343,18.343c10.115,0,18.343-8.229,18.343-18.343
				C153.648,127.879,145.419,119.65,135.305,119.65z"/>
		</g>
		<g>
			<circle style="fill:#EBEBEB;" cx="135.305" cy="137.993" r="10.405"/>
		</g>
	</g>
	<g>
		<g>
			<path style="fill:#F0F0F0;" d="M397.265,355.754c-22.929,0-41.583-18.654-41.583-41.583c0-22.929,18.654-41.583,41.583-41.583
				c22.929,0,41.583,18.654,41.583,41.583C438.848,337.099,420.194,355.754,397.265,355.754z M397.265,280.587
				c-18.518,0-33.583,15.065-33.583,33.583c0,18.517,15.065,33.583,33.583,33.583c18.518,0,33.583-15.066,33.583-33.583
				C430.848,295.652,415.783,280.587,397.265,280.587z"/>
		</g>
		<g>
			<path style="fill:#F0F0F0;" d="M397.265,340.514c-14.526,0-26.343-11.817-26.343-26.343c0-14.526,11.817-26.344,26.343-26.344
				c14.526,0,26.343,11.818,26.343,26.344C423.608,328.696,411.791,340.514,397.265,340.514z M397.265,295.827
				c-10.115,0-18.343,8.229-18.343,18.344c0,10.115,8.228,18.343,18.343,18.343c10.115,0,18.343-8.229,18.343-18.343
				C415.608,304.056,407.38,295.827,397.265,295.827z"/>
		</g>
		<g>
			<circle style="fill:#F0F0F0;" cx="397.265" cy="314.17" r="10.405"/>
		</g>
	</g>
	<path style="fill:#EBEBEB;" d="M129.714,326.509c0-1.841-0.183-3.639-0.524-5.381l5.572-4.07c-0.721-2.516-1.717-4.914-2.963-7.157
		l-6.818,1.062c-2.02-3.003-4.608-5.591-7.611-7.611l1.062-6.818c-2.243-1.245-4.641-2.242-7.157-2.963l-4.07,5.572
		c-1.742-0.341-3.539-0.524-5.381-0.524s-3.639,0.183-5.381,0.524l-4.07-5.572c-2.516,0.721-4.914,1.717-7.157,2.963l1.062,6.818
		c-3.003,2.02-5.591,4.608-7.611,7.611l-6.818-1.062c-1.246,2.243-2.242,4.641-2.963,7.157l5.572,4.07
		c-0.341,1.742-0.524,3.539-0.524,5.381c0,1.841,0.183,3.639,0.524,5.381l-5.572,4.07c0.721,2.516,1.717,4.914,2.963,7.157
		l6.818-1.062c2.02,3.003,4.608,5.591,7.611,7.611l-1.062,6.818c2.243,1.246,4.641,2.242,7.157,2.963l4.07-5.572
		c1.741,0.34,3.539,0.524,5.381,0.524s3.639-0.183,5.381-0.524l4.07,5.572c2.516-0.721,4.914-1.717,7.157-2.963l-1.062-6.818
		c3.003-2.02,5.591-4.608,7.611-7.611l6.818,1.062c1.245-2.243,2.242-4.641,2.963-7.157l-5.572-4.07
		C129.531,330.148,129.714,328.35,129.714,326.509z M101.824,340.259c-7.594,0-13.75-6.156-13.75-13.75
		c0-7.594,6.156-13.75,13.75-13.75c7.594,0,13.75,6.156,13.75,13.75C115.574,334.103,109.418,340.259,101.824,340.259z"/>
	<path style="fill:#F0F0F0;" d="M427.326,109.193c0-1.841-0.183-3.639-0.524-5.381l5.572-4.07c-0.721-2.516-1.717-4.914-2.963-7.157
		l-6.818,1.062c-2.02-3.003-4.608-5.591-7.611-7.611l1.062-6.818c-2.243-1.245-4.641-2.242-7.157-2.963l-4.07,5.572
		c-1.741-0.34-3.539-0.524-5.381-0.524c-1.841,0-3.639,0.183-5.381,0.524l-4.07-5.572c-2.516,0.721-4.914,1.717-7.157,2.963
		l1.062,6.818c-3.003,2.02-5.591,4.608-7.611,7.611l-6.818-1.062c-1.246,2.243-2.242,4.641-2.963,7.157l5.572,4.07
		c-0.34,1.742-0.524,3.539-0.524,5.381c0,1.841,0.183,3.639,0.524,5.381l-5.572,4.07c0.721,2.516,1.717,4.914,2.963,7.157
		l6.818-1.062c2.02,3.003,4.608,5.591,7.611,7.611l-1.062,6.818c2.243,1.245,4.641,2.242,7.157,2.963l4.07-5.572
		c1.741,0.34,3.539,0.524,5.381,0.524c1.841,0,3.639-0.183,5.381-0.524l4.07,5.572c2.516-0.721,4.914-1.717,7.157-2.963
		l-1.062-6.818c3.003-2.02,5.591-4.608,7.611-7.611l6.819,1.062c1.245-2.243,2.242-4.641,2.963-7.157l-5.572-4.07
		C427.142,112.832,427.326,111.034,427.326,109.193z M399.436,122.943c-7.594,0-13.75-6.156-13.75-13.75
		c0-7.594,6.156-13.75,13.75-13.75c7.594,0,13.75,6.156,13.75,13.75C413.186,116.787,407.03,122.943,399.436,122.943z"/>
	<path style="fill:#F0F0F0;" d="M378.842,153.986c0-0.921-0.091-1.819-0.262-2.69l2.786-2.035c-0.36-1.258-0.859-2.457-1.481-3.579
		l-3.409,0.531c-1.01-1.501-2.304-2.795-3.805-3.805l0.531-3.409c-1.121-0.623-2.321-1.121-3.579-1.481l-2.035,2.786
		c-0.871-0.17-1.77-0.262-2.69-0.262c-0.921,0-1.82,0.092-2.69,0.262l-2.035-2.786c-1.258,0.36-2.457,0.859-3.579,1.481l0.531,3.409
		c-1.501,1.01-2.795,2.304-3.805,3.805l-3.409-0.531c-0.623,1.122-1.121,2.321-1.482,3.579l2.786,2.035
		c-0.17,0.871-0.262,1.77-0.262,2.69c0,0.921,0.091,1.82,0.262,2.69l-2.786,2.035c0.36,1.258,0.859,2.457,1.482,3.579l3.409-0.531
		c1.01,1.501,2.304,2.795,3.805,3.805l-0.531,3.409c1.122,0.623,2.321,1.121,3.579,1.481l2.035-2.786
		c0.871,0.17,1.77,0.262,2.69,0.262c0.921,0,1.82-0.092,2.69-0.262l2.035,2.786c1.258-0.36,2.457-0.859,3.579-1.481l-0.531-3.409
		c1.501-1.01,2.795-2.304,3.805-3.805l3.409,0.531c0.623-1.122,1.121-2.321,1.481-3.579l-2.786-2.035
		C378.75,155.806,378.842,154.907,378.842,153.986z M364.897,160.861c-3.797,0-6.875-3.078-6.875-6.875s3.078-6.875,6.875-6.875
		s6.875,3.078,6.875,6.875S368.694,160.861,364.897,160.861z"/>
</g>
<g id="Background_Simple" style="display:none;">
	<g style="display:inline;">
		<path style="fill:#407BFF;" d="M86.532,251.48C41.217,203.488,137.54,107.661,203.191,98.552
			c52.874-7.336,55.97,37.901,82.287,58.901c38.331,30.588,108.179-8.587,130.932,32c37,66-77.178,224.453-144.727,187.354
			c-44.344-24.354-35.506-90.596-64.299-114.332C180.964,240.696,118.609,285.453,86.532,251.48z"/>
		<path style="opacity:0.9;fill:#FFFFFF;" d="M86.532,251.48C41.217,203.488,137.54,107.661,203.191,98.552
			c52.874-7.336,55.97,37.901,82.287,58.901c38.331,30.588,108.179-8.587,130.932,32c37,66-77.178,224.453-144.727,187.354
			c-44.344-24.354-35.506-90.596-64.299-114.332C180.964,240.696,118.609,285.453,86.532,251.48z"/>
	</g>
</g>
<g id="Shadow">
	<ellipse id="_x3C_Path_x3E__1_" style="fill:#F5F5F5;" cx="250" cy="412.391" rx="193.889" ry="11.323"/>
</g>
<g id="Devices">
	<g>
		<g>
			<g>
				<path style="fill:#263238;" d="M249.156,370.025c-0.464-0.181-0.949-0.162-1.379,0h-34.293l-14.419,42.253h36.181l0.755-2.293
					h2.174l12.114-37.571C250.603,371.443,250.107,370.396,249.156,370.025z M233.431,389.941l-1.245,3.861
					c-0.774,2.401-3.009,4.028-5.532,4.028h-1.737c-3.026,0-5.174-2.949-4.246-5.83l1.245-3.861
					c0.774-2.401,3.009-4.028,5.531-4.028h1.737C232.212,384.111,234.36,387.06,233.431,389.941z"/>
				<path style="opacity:0.3;fill:#FFFFFF;" d="M249.156,370.025c-0.464-0.181-0.949-0.162-1.379,0h-34.293l-14.419,42.253h36.181
					l0.755-2.293h2.174l12.114-37.571C250.603,371.443,250.107,370.396,249.156,370.025z M233.431,389.941l-1.245,3.861
					c-0.774,2.401-3.009,4.028-5.532,4.028h-1.737c-3.026,0-5.174-2.949-4.246-5.83l1.245-3.861
					c0.774-2.401,3.009-4.028,5.531-4.028h1.737C232.212,384.111,234.36,387.06,233.431,389.941z"/>
				<path style="fill:#263238;" d="M277.486,409.985h-35.672c1.066,0,1.929,0.864,1.929,1.93v0.727c0,1.066-0.864,1.93-1.929,1.93
					h35.672c1.066,0,1.929-0.864,1.929-1.93v-0.727C279.415,410.849,278.551,409.985,277.486,409.985z"/>
				<path style="opacity:0.3;fill:#FFFFFF;" d="M277.486,409.985h-35.672c1.066,0,1.929,0.864,1.929,1.93v0.727
					c0,1.066-0.864,1.93-1.929,1.93h35.672c1.066,0,1.929-0.864,1.929-1.93v-0.727C279.415,410.849,278.551,409.985,277.486,409.985
					z"/>
				<g>
					<g>
						<path style="fill:#263238;" d="M241.814,414.571h-44.842l13.974-43.341c0.341-1.058,1.503-1.61,2.539-1.205l0,0
							c0.95,0.371,1.447,1.418,1.134,2.389l-12.114,37.571h39.309c1.066,0,1.929,0.864,1.929,1.93v0.727
							C243.743,413.707,242.88,414.571,241.814,414.571z"/>
					</g>
					<g style="opacity:0.6;">
						<path style="fill:#FFFFFF;" d="M241.814,414.571h-44.842l13.974-43.341c0.341-1.058,1.503-1.61,2.539-1.205l0,0
							c0.95,0.371,1.447,1.418,1.134,2.389l-12.114,37.571h39.309c1.066,0,1.929,0.864,1.929,1.93v0.727
							C243.743,413.707,242.88,414.571,241.814,414.571z"/>
					</g>
				</g>
				<path style="fill:#263238;" d="M229.186,384.111h-1.737c-0.127,0-0.25,0.022-0.376,0.03c2.759,0.302,4.626,3.08,3.749,5.799
					l-1.245,3.861c-0.735,2.28-2.79,3.844-5.155,3.998c0.163,0.018,0.328,0.03,0.497,0.03h1.737c2.523,0,4.758-1.627,5.532-4.028
					l1.245-3.861C234.36,387.06,232.212,384.111,229.186,384.111z"/>
			</g>
			<path style="fill:#407BFF;" d="M151.407,246.915h-17.724c-3.72,0-6.472,3.016-6.147,6.736l10.056,114.945
				c0.326,3.72,3.605,6.736,7.326,6.736h17.724L151.407,246.915z"/>
			<path style="opacity:0.2;fill:#FFFFFF;" d="M151.407,246.915h-17.724c-3.72,0-6.472,3.016-6.147,6.736l10.056,114.945
				c0.326,3.72,3.605,6.736,7.326,6.736h17.724L151.407,246.915z"/>
			<path style="fill:#407BFF;" d="M308.274,375.333h-158.77c-3.72,0-7-3.016-7.326-6.736l-10.056-114.945
				c-0.326-3.72,2.427-6.736,6.147-6.736h158.77c3.72,0,7,3.016,7.326,6.736l10.056,114.945
				C314.746,372.317,311.995,375.333,308.274,375.333z"/>
			<path style="opacity:0.5;fill:#FFFFFF;" d="M308.274,375.333h-158.77c-3.72,0-7-3.016-7.326-6.736l-10.056-114.945
				c-0.326-3.72,2.427-6.736,6.147-6.736h158.77c3.72,0,7,3.016,7.326,6.736l10.056,114.945
				C314.746,372.317,311.995,375.333,308.274,375.333z"/>
			<path style="fill:#407BFF;" d="M141.163,356.987l1.016,11.609c0.326,3.72,3.605,6.736,7.326,6.736h158.77
				c3.72,0,6.472-3.016,6.147-6.736l-1.016-11.609H141.163z"/>
			<path style="opacity:0.2;fill:#FFFFFF;" d="M141.163,356.987l1.016,11.609c0.326,3.72,3.605,6.736,7.326,6.736h158.77
				c3.72,0,6.472-3.016,6.147-6.736l-1.016-11.609H141.163z"/>
			<polygon style="fill:#FFFFFF;" points="137.768,252.648 146.395,351.254 307.171,351.254 298.544,252.648 			"/>
		</g>
		<g>
			<polygon style="fill:#263238;" points="175.637,268.063 145.571,268.063 144.625,257.244 174.691,257.244 			"/>
			<polygon style="fill:#263238;" points="226.174,262.654 207.904,262.654 207.431,257.244 225.7,257.244 			"/>
			<polygon style="fill:#263238;" points="191.498,346.795 161.558,346.795 160.29,332.307 190.23,332.307 			"/>
			<polygon style="fill:#263238;" points="227.678,346.795 197.738,346.795 196.47,332.307 226.41,332.307 			"/>
			<polygon style="fill:#263238;" points="263.857,346.795 233.917,346.795 232.65,332.307 262.59,332.307 			"/>
			<polygon style="fill:#263238;" points="300.037,346.795 270.097,346.795 268.829,332.307 298.769,332.307 			"/>
			<polygon style="fill:#263238;" points="248.341,262.654 230.071,262.654 229.598,257.244 247.868,257.244 			"/>
			<polygon style="fill:#263238;" points="270.508,262.654 252.239,262.654 251.765,257.244 270.035,257.244 			"/>
			<polygon style="fill:#263238;" points="292.675,262.654 274.406,262.654 273.933,257.244 292.202,257.244 			"/>
			<polygon style="fill:#263238;" points="305.043,327.431 144.267,327.431 139.733,275.613 300.51,275.613 			"/>
		</g>
		<g style="opacity:0.9;">
			<polygon style="fill:#FFFFFF;" points="175.637,268.063 145.571,268.063 144.625,257.244 174.691,257.244 			"/>
			<polygon style="fill:#FFFFFF;" points="226.174,262.654 207.904,262.654 207.431,257.244 225.7,257.244 			"/>
			<polygon style="fill:#FFFFFF;" points="191.498,346.795 161.558,346.795 160.29,332.307 190.23,332.307 			"/>
			<polygon style="fill:#FFFFFF;" points="227.678,346.795 197.738,346.795 196.47,332.307 226.41,332.307 			"/>
			<polygon style="fill:#FFFFFF;" points="263.857,346.795 233.917,346.795 232.65,332.307 262.59,332.307 			"/>
			<polygon style="fill:#FFFFFF;" points="300.037,346.795 270.097,346.795 268.829,332.307 298.769,332.307 			"/>
			<polygon style="fill:#FFFFFF;" points="248.341,262.654 230.071,262.654 229.598,257.244 247.868,257.244 			"/>
			<polygon style="fill:#FFFFFF;" points="270.508,262.654 252.239,262.654 251.765,257.244 270.035,257.244 			"/>
			<polygon style="fill:#FFFFFF;" points="292.675,262.654 274.406,262.654 273.933,257.244 292.202,257.244 			"/>
			<polygon style="fill:#FFFFFF;" points="305.043,327.431 144.267,327.431 139.733,275.613 300.51,275.613 			"/>
		</g>
	</g>
	<g>
		<path style="fill:#407BFF;" d="M191.184,117.321h10.172l10.258,117.248h-10.172c-4.715,0-8.872-3.822-9.284-8.537l-8.764-100.174
			C182.981,121.143,186.469,117.321,191.184,117.321z"/>
		<g>
			<path style="fill:#407BFF;" d="M184.884,129.08c-0.039-0.452-0.438-0.818-0.89-0.818s-0.786,0.366-0.747,0.818l0.687,7.855
				c0.04,0.452,0.438,0.818,0.89,0.818c0.452,0,0.786-0.366,0.747-0.818L184.884,129.08z"/>
			<path style="opacity:0.5;fill:#FFFFFF;" d="M184.884,129.08c-0.039-0.452-0.438-0.818-0.89-0.818s-0.786,0.366-0.747,0.818
				l0.687,7.855c0.04,0.452,0.438,0.818,0.89,0.818c0.452,0,0.786-0.366,0.747-0.818L184.884,129.08z"/>
		</g>
		<path style="fill:#407BFF;" d="M203.524,234.569h41.911c4.715,0,8.203-3.822,7.79-8.537l-8.764-100.174
			c-0.412-4.715-4.569-8.537-9.284-8.537h-41.911c-4.715,0-8.203,3.822-7.79,8.537l8.764,100.174
			C194.653,230.747,198.809,234.569,203.524,234.569z"/>
		<path style="opacity:0.5;fill:#FFFFFF;" d="M203.524,234.569h41.911c4.715,0,8.203-3.822,7.79-8.537l-8.764-100.174
			c-0.412-4.715-4.569-8.537-9.284-8.537h-41.911c-4.715,0-8.203,3.822-7.79,8.537l8.764,100.174
			C194.653,230.747,198.809,234.569,203.524,234.569z"/>
		<path style="fill:#FFFFFF;" d="M193.438,119.28h10.894c0.714,0,1.362,0.53,1.514,1.238l0.073,0.341
			c0.372,1.728,1.956,3.023,3.699,3.023h10.356c1.743,0,3.1-1.295,3.17-3.023l0.014-0.341c0.028-0.708,0.584-1.238,1.298-1.238
			h10.894c3.633,0,6.836,2.945,7.154,6.578l8.764,100.174c0.318,3.633-2.37,6.579-6.003,6.579h-41.911
			c-3.633,0-6.836-2.945-7.154-6.579l-8.764-100.174C187.117,122.225,189.805,119.28,193.438,119.28z"/>
		<g>
			<path style="fill:#263238;" d="M217.026,120.39c0.04,0.46,0.445,0.832,0.905,0.832c0.46,0,0.8-0.373,0.76-0.832
				c-0.04-0.46-0.446-0.832-0.905-0.832C217.326,119.557,216.985,119.93,217.026,120.39z"/>
			<path style="fill:#263238;" d="M211.051,119.557c0.329,0,2.525,0,2.854,0c0.46,0,0.865,0.373,0.905,0.832
				c0.04,0.46-0.3,0.832-0.759,0.832c-0.286,0-2.569,0-2.854,0c-0.46,0-0.865-0.373-0.905-0.832
				C210.251,119.93,210.591,119.557,211.051,119.557z"/>
		</g>
		<g>
			<polygon style="fill:#263238;" points="248.293,192.334 193.224,192.334 188.406,137.266 243.475,137.266 			"/>
			<path style="fill:#263238;" d="M199.852,130.73c0.216,2.474-1.614,4.48-4.088,4.48c-2.474,0-4.656-2.006-4.872-4.48
				c-0.217-2.474,1.614-4.48,4.088-4.48C197.454,126.25,199.635,128.256,199.852,130.73z"/>
			<path style="fill:#263238;" d="M236.829,132.794h-8.599c-1.14,0-2.145-0.924-2.244-2.064h0c-0.1-1.14,0.743-2.064,1.883-2.064
				h8.599c1.14,0,2.145,0.924,2.244,2.064l0,0C238.812,131.87,237.969,132.794,236.829,132.794z"/>
			<path style="fill:#263238;" d="M218.032,200.041H199.63c-1.092,0-2.055-0.886-2.151-1.978l0,0
				c-0.096-1.092,0.712-1.978,1.805-1.978h18.403c1.092,0,2.055,0.886,2.151,1.978l0,0
				C219.933,199.156,219.125,200.041,218.032,200.041z"/>
			<path style="fill:#263238;" d="M242.011,207.748h-41.707c-1.092,0-2.055-0.885-2.151-1.978l0,0
				c-0.096-1.092,0.712-1.978,1.805-1.978h41.707c1.092,0,2.055,0.885,2.151,1.978l0,0
				C243.911,206.863,243.103,207.748,242.011,207.748z"/>
			<path style="fill:#263238;" d="M232.104,213.768h-31.273c-1.092,0-2.055-0.885-2.151-1.978l0,0
				c-0.096-1.092,0.712-1.978,1.805-1.978h31.273c1.092,0,2.055,0.885,2.151,1.978l0,0
				C234.005,212.882,233.196,213.768,232.104,213.768z"/>
			<path style="fill:#263238;" d="M238.163,219.787h-36.805c-1.092,0-2.055-0.885-2.151-1.978l0,0
				c-0.096-1.092,0.712-1.978,1.805-1.978h36.805c1.092,0,2.055,0.885,2.151,1.978l0,0
				C240.063,218.902,239.255,219.787,238.163,219.787z"/>
			<path style="fill:#263238;" d="M213.149,225.807h-11.265c-1.092,0-2.055-0.886-2.151-1.978l0,0
				c-0.096-1.092,0.712-1.978,1.805-1.978h11.265c1.092,0,2.055,0.886,2.151,1.978l0,0
				C215.049,224.921,214.242,225.807,213.149,225.807z"/>
			<polygon style="opacity:0.9;fill:#FFFFFF;" points="248.293,192.334 193.224,192.334 188.406,137.266 243.475,137.266 			"/>
			<path style="opacity:0.9;fill:#FFFFFF;" d="M199.852,130.73c0.216,2.474-1.614,4.48-4.088,4.48c-2.474,0-4.656-2.006-4.872-4.48
				c-0.217-2.474,1.614-4.48,4.088-4.48C197.454,126.25,199.635,128.256,199.852,130.73z"/>
			<path style="opacity:0.9;fill:#FFFFFF;" d="M236.829,132.794h-8.599c-1.14,0-2.145-0.924-2.244-2.064h0
				c-0.1-1.14,0.743-2.064,1.883-2.064h8.599c1.14,0,2.145,0.924,2.244,2.064l0,0C238.812,131.87,237.969,132.794,236.829,132.794z"
				/>
			<path style="opacity:0.9;fill:#FFFFFF;" d="M218.032,200.041H199.63c-1.092,0-2.055-0.886-2.151-1.978l0,0
				c-0.096-1.092,0.712-1.978,1.805-1.978h18.403c1.092,0,2.055,0.886,2.151,1.978l0,0
				C219.933,199.156,219.125,200.041,218.032,200.041z"/>
			<path style="opacity:0.9;fill:#FFFFFF;" d="M242.011,207.748h-41.707c-1.092,0-2.055-0.885-2.151-1.978l0,0
				c-0.096-1.092,0.712-1.978,1.805-1.978h41.707c1.092,0,2.055,0.885,2.151,1.978l0,0
				C243.911,206.863,243.103,207.748,242.011,207.748z"/>
			<path style="opacity:0.9;fill:#FFFFFF;" d="M232.104,213.768h-31.273c-1.092,0-2.055-0.885-2.151-1.978l0,0
				c-0.096-1.092,0.712-1.978,1.805-1.978h31.273c1.092,0,2.055,0.885,2.151,1.978l0,0
				C234.005,212.882,233.196,213.768,232.104,213.768z"/>
			<path style="opacity:0.9;fill:#FFFFFF;" d="M238.163,219.787h-36.805c-1.092,0-2.055-0.885-2.151-1.978l0,0
				c-0.096-1.092,0.712-1.978,1.805-1.978h36.805c1.092,0,2.055,0.885,2.151,1.978l0,0
				C240.063,218.902,239.255,219.787,238.163,219.787z"/>
			<path style="opacity:0.9;fill:#FFFFFF;" d="M213.149,225.807h-11.265c-1.092,0-2.055-0.886-2.151-1.978l0,0
				c-0.096-1.092,0.712-1.978,1.805-1.978h11.265c1.092,0,2.055,0.886,2.151,1.978l0,0
				C215.049,224.921,214.242,225.807,213.149,225.807z"/>
		</g>
	</g>
	<g>
		<path style="fill:#407BFF;" d="M81.595,323.788h-6.278c-2.55,0-4.436,2.067-4.213,4.617l6.994,79.944
			c0.223,2.55,2.471,4.617,5.021,4.617h6.278L81.595,323.788z"/>
		<path style="opacity:0.2;fill:#FFFFFF;" d="M81.595,323.788h-6.278c-2.55,0-4.436,2.067-4.213,4.617l6.994,79.944
			c0.223,2.55,2.471,4.617,5.021,4.617h6.278L81.595,323.788z"/>
		<path style="fill:#407BFF;" d="M183.63,412.966H85.85c-2.55,0-4.798-2.067-5.021-4.617l-6.994-79.944
			c-0.223-2.55,1.663-4.617,4.213-4.617h97.78c2.55,0,4.798,2.067,5.021,4.617l6.994,79.944
			C188.066,410.899,186.18,412.966,183.63,412.966z"/>
		<path style="opacity:0.5;fill:#FFFFFF;" d="M183.63,412.966H85.85c-2.55,0-4.798-2.067-5.021-4.617l-6.994-79.944
			c-0.223-2.55,1.663-4.617,4.213-4.617h97.78c2.55,0,4.798,2.067,5.021,4.617l6.994,79.944
			C188.066,410.899,186.18,412.966,183.63,412.966z"/>
		<g>
			<path style="fill:#407BFF;" d="M248.045,406.342H141.031v8.153h101.017c3.313,0,5.998-2.685,5.998-5.998V406.342z"/>
			<path style="opacity:0.2;fill:#FFFFFF;" d="M248.045,406.342H141.031v8.153h101.017c3.313,0,5.998-2.685,5.998-5.998V406.342z"/>
			<path style="opacity:0.4;fill:#FFFFFF;" d="M203.344,410.419h-8.551c-2.251,0-4.077-1.825-4.077-4.077l0,0h16.705l0,0
				C207.421,408.593,205.596,410.419,203.344,410.419z"/>
		</g>
		<polygon style="fill:#FFFFFF;" points="181.694,399.462 175.542,329.139 79.27,329.139 85.422,399.462 		"/>
		<path style="fill:#263238;" d="M131.674,326.509c0.058,0.659-0.43,1.193-1.088,1.193c-0.659,0-1.239-0.534-1.297-1.193
			c-0.058-0.659,0.43-1.193,1.088-1.193C131.036,325.317,131.617,325.851,131.674,326.509z"/>
		<path style="fill:#407BFF;" d="M148.236,406.342H81.153v2.156c0,3.313,2.685,5.998,5.998,5.998h55.088
			c3.312,0,5.998-2.685,5.998-5.998V406.342z"/>
		<g>
			<path style="opacity:0.4;fill:#FFFFFF;" d="M91.625,411.183h-4.65c-0.563,0-1.019-0.456-1.019-1.019l0,0
				c0-0.563,0.456-1.019,1.019-1.019h4.65c0.563,0,1.019,0.456,1.019,1.019l0,0C92.645,410.727,92.188,411.183,91.625,411.183z"/>
			<path style="opacity:0.4;fill:#FFFFFF;" d="M101.626,411.183h-4.65c-0.563,0-1.019-0.456-1.019-1.019l0,0
				c0-0.563,0.456-1.019,1.019-1.019h4.65c0.563,0,1.019,0.456,1.019,1.019l0,0C102.645,410.727,102.189,411.183,101.626,411.183z"
				/>
		</g>
		<g>
			<g>
				<polygon style="fill:#263238;" points="100.845,340.268 84.602,340.268 84.05,333.962 100.294,333.962 				"/>
				<polygon style="fill:#263238;" points="135.847,336.255 125.682,336.255 125.481,333.962 135.646,333.962 				"/>
				<polygon style="fill:#263238;" points="148.077,336.255 137.912,336.255 137.711,333.962 147.877,333.962 				"/>
				<polygon style="fill:#263238;" points="160.307,336.255 150.142,336.255 149.941,333.962 160.107,333.962 				"/>
				<polygon style="fill:#263238;" points="172.538,336.255 162.372,336.255 162.172,333.962 172.337,333.962 				"/>
				<polygon style="fill:#263238;" points="174.393,357.467 86.107,357.467 84.903,343.708 173.19,343.708 				"/>
				<polygon style="fill:#263238;" points="143.302,386.514 88.648,386.514 86.324,359.952 140.978,359.952 				"/>
				<path style="fill:#263238;" d="M128.195,391.865H90.358c-0.686,0-1.291-0.556-1.351-1.242l0,0
					c-0.06-0.686,0.448-1.242,1.133-1.242h37.837c0.686,0,1.291,0.556,1.351,1.242l0,0
					C129.389,391.309,128.881,391.865,128.195,391.865z"/>
				<path style="fill:#263238;" d="M124.533,395.878H90.709c-0.686,0-1.291-0.556-1.351-1.242l0,0
					c-0.06-0.686,0.448-1.242,1.133-1.242h33.824c0.686,0,1.291,0.556,1.351,1.242l0,0
					C125.727,395.322,125.219,395.878,124.533,395.878z"/>
				<path style="fill:#263238;" d="M172.402,376.959h-22.196c-0.686,0-1.291-0.556-1.351-1.242l0,0
					c-0.06-0.686,0.447-1.242,1.133-1.242h22.196c0.686,0,1.291,0.556,1.351,1.242l0,0
					C173.595,376.403,173.088,376.959,172.402,376.959z"/>
				<path style="fill:#263238;" d="M168.74,380.972h-18.183c-0.686,0-1.291-0.556-1.351-1.242l0,0
					c-0.06-0.686,0.447-1.242,1.133-1.242h18.183c0.686,0,1.291,0.556,1.351,1.242l0,0
					C169.933,380.416,169.426,380.972,168.74,380.972z"/>
				<polygon style="fill:#263238;" points="174.135,371.991 148.146,371.991 147.093,359.952 173.082,359.952 				"/>
				<polygon style="fill:#263238;" points="176.25,396.164 150.261,396.164 149.208,384.125 175.197,384.125 				"/>
			</g>
			<g style="opacity:0.9;">
				<polygon style="fill:#FFFFFF;" points="100.845,340.268 84.602,340.268 84.05,333.962 100.294,333.962 				"/>
				<polygon style="fill:#FFFFFF;" points="135.847,336.255 125.682,336.255 125.481,333.962 135.646,333.962 				"/>
				<polygon style="fill:#FFFFFF;" points="148.077,336.255 137.912,336.255 137.711,333.962 147.877,333.962 				"/>
				<polygon style="fill:#FFFFFF;" points="160.307,336.255 150.142,336.255 149.941,333.962 160.107,333.962 				"/>
				<polygon style="fill:#FFFFFF;" points="172.538,336.255 162.372,336.255 162.172,333.962 172.337,333.962 				"/>
				<polygon style="fill:#FFFFFF;" points="174.393,357.467 86.107,357.467 84.903,343.708 173.19,343.708 				"/>
				<polygon style="fill:#FFFFFF;" points="143.302,386.514 88.648,386.514 86.324,359.952 140.978,359.952 				"/>
				<path style="fill:#FFFFFF;" d="M128.195,391.865H90.358c-0.686,0-1.291-0.556-1.351-1.242l0,0
					c-0.06-0.686,0.448-1.242,1.133-1.242h37.837c0.686,0,1.291,0.556,1.351,1.242l0,0
					C129.389,391.309,128.881,391.865,128.195,391.865z"/>
				<path style="fill:#FFFFFF;" d="M124.533,395.878H90.709c-0.686,0-1.291-0.556-1.351-1.242l0,0
					c-0.06-0.686,0.448-1.242,1.133-1.242h33.824c0.686,0,1.291,0.556,1.351,1.242l0,0
					C125.727,395.322,125.219,395.878,124.533,395.878z"/>
				<path style="fill:#FFFFFF;" d="M172.402,376.959h-22.196c-0.686,0-1.291-0.556-1.351-1.242l0,0
					c-0.06-0.686,0.447-1.242,1.133-1.242h22.196c0.686,0,1.291,0.556,1.351,1.242l0,0
					C173.595,376.403,173.088,376.959,172.402,376.959z"/>
				<path style="fill:#FFFFFF;" d="M168.74,380.972h-18.183c-0.686,0-1.291-0.556-1.351-1.242l0,0
					c-0.06-0.686,0.447-1.242,1.133-1.242h18.183c0.686,0,1.291,0.556,1.351,1.242l0,0
					C169.933,380.416,169.426,380.972,168.74,380.972z"/>
				<polygon style="fill:#FFFFFF;" points="174.135,371.991 148.146,371.991 147.093,359.952 173.082,359.952 				"/>
				<polygon style="fill:#FFFFFF;" points="176.25,396.164 150.261,396.164 149.208,384.125 175.197,384.125 				"/>
			</g>
		</g>
	</g>
	<g>
		<g>
			<path style="fill:#407BFF;" d="M86.719,138.749h-8.628c-4.9,0-8.525,3.973-8.097,8.873l9.629,110.064
				c0.429,4.9,4.749,8.873,9.649,8.873h8.628L86.719,138.749z"/>
			<path style="opacity:0.2;fill:#FFFFFF;" d="M86.719,138.749h-8.628c-4.9,0-8.525,3.973-8.097,8.873l9.629,110.064
				c0.429,4.9,4.749,8.873,9.649,8.873h8.628L86.719,138.749z"/>
			<path style="fill:#407BFF;" d="M92.712,266.558l75.616,0c4.9,0,8.525-3.972,8.096-8.873l-9.629-110.065
				c-0.429-4.9-4.749-8.873-9.649-8.873l-75.616,0c-4.9,0-8.525,3.972-8.096,8.873l9.629,110.064
				C83.492,262.586,87.812,266.558,92.712,266.558z"/>
			<path style="opacity:0.5;fill:#FFFFFF;" d="M92.712,266.558l75.616,0c4.9,0,8.525-3.972,8.096-8.873l-9.629-110.065
				c-0.429-4.9-4.749-8.873-9.649-8.873l-75.616,0c-4.9,0-8.525,3.972-8.096,8.873l9.629,110.064
				C83.492,262.586,87.812,266.558,92.712,266.558z"/>
			<polygon style="fill:#FFFFFF;" points="173.329,257.685 163.699,147.621 76.53,147.621 86.159,257.685 			"/>
			<g>
				<path style="fill:#407BFF;" d="M130.354,264.656c-1.54,0-2.903-1.253-3.038-2.793c-0.135-1.541,1.009-2.793,2.549-2.793
					c1.54,0,2.903,1.253,3.038,2.793C133.038,263.403,131.894,264.656,130.354,264.656z M129.925,259.757
					c-1.161,0-2.023,0.945-1.921,2.106c0.102,1.161,1.129,2.105,2.29,2.105c1.161,0,2.023-0.944,1.921-2.105
					C132.113,260.702,131.086,259.757,129.925,259.757z"/>
			</g>
		</g>
		<g>
			<polygon style="fill:#263238;" points="159.923,158.321 153.502,158.321 152.941,151.9 159.361,151.9 			"/>
			<polygon style="fill:#263238;" points="100.759,158.321 82.414,158.321 81.852,151.9 100.198,151.9 			"/>
			<polygon style="fill:#263238;" points="164.136,206.477 86.627,206.477 83.096,166.118 160.605,166.118 			"/>
			<polygon style="fill:#263238;" points="135.443,250.713 90.497,250.713 87.109,211.981 132.055,211.981 			"/>
			<polygon style="fill:#263238;" points="147.733,220.81 137.413,220.81 136.641,211.981 146.96,211.981 			"/>
			<path style="fill:#263238;" d="M162.127,214.962h-11.294c-0.823,0-1.549-0.667-1.621-1.491l0,0
				c-0.072-0.823,0.537-1.49,1.36-1.49h11.294c0.823,0,1.549,0.667,1.621,1.49l0,0C163.559,214.295,162.95,214.962,162.127,214.962z
				"/>
			<path style="fill:#263238;" d="M163.9,220.81h-12.555c-0.823,0-1.549-0.667-1.621-1.491l0,0c-0.072-0.823,0.537-1.491,1.36-1.491
				h12.555c0.823,0,1.549,0.667,1.621,1.491l0,0C165.332,220.142,164.723,220.81,163.9,220.81z"/>
			<path style="fill:#263238;" d="M163.15,226.657h-23.734c-0.823,0-1.549-0.667-1.621-1.49l0,0
				c-0.072-0.823,0.537-1.491,1.36-1.491h23.734c0.823,0,1.549,0.667,1.621,1.491l0,0
				C164.582,225.99,163.973,226.657,163.15,226.657z"/>
			<path style="fill:#263238;" d="M164.923,232.505h-24.995c-0.823,0-1.549-0.667-1.621-1.491l0,0
				c-0.072-0.823,0.537-1.491,1.36-1.491h24.996c0.823,0,1.549,0.667,1.621,1.491l0,0
				C166.355,231.837,165.746,232.505,164.923,232.505z"/>
			<path style="fill:#263238;" d="M162.224,238.352h-21.785c-0.823,0-1.549-0.667-1.621-1.491l0,0
				c-0.072-0.823,0.537-1.49,1.36-1.49h21.785c0.823,0,1.549,0.667,1.621,1.49l0,0C163.656,237.685,163.047,238.352,162.224,238.352
				z"/>
			<path style="fill:#263238;" d="M165.946,244.2h-24.995c-0.823,0-1.549-0.667-1.621-1.491l0,0
				c-0.072-0.823,0.537-1.491,1.36-1.491h24.996c0.823,0,1.549,0.667,1.621,1.491l0,0C167.378,243.533,166.769,244.2,165.946,244.2z
				"/>
			<path style="fill:#263238;" d="M158.689,250.048h-17.227c-0.823,0-1.549-0.667-1.621-1.49l0,0
				c-0.072-0.823,0.537-1.491,1.36-1.491h17.227c0.823,0,1.549,0.667,1.621,1.491l0,0
				C160.122,249.38,159.513,250.048,158.689,250.048z"/>
			<polygon style="opacity:0.9;fill:#FFFFFF;" points="159.923,158.321 153.502,158.321 152.941,151.9 159.361,151.9 			"/>
			<polygon style="opacity:0.9;fill:#FFFFFF;" points="100.759,158.321 82.414,158.321 81.852,151.9 100.198,151.9 			"/>
			<polygon style="opacity:0.9;fill:#FFFFFF;" points="164.136,206.477 86.627,206.477 83.096,166.118 160.605,166.118 			"/>
			<polygon style="opacity:0.9;fill:#FFFFFF;" points="135.443,250.713 90.497,250.713 87.109,211.981 132.055,211.981 			"/>
			<polygon style="opacity:0.9;fill:#FFFFFF;" points="147.733,220.81 137.413,220.81 136.641,211.981 146.96,211.981 			"/>
			<path style="opacity:0.9;fill:#FFFFFF;" d="M162.127,214.962h-11.294c-0.823,0-1.549-0.667-1.621-1.491l0,0
				c-0.072-0.823,0.537-1.49,1.36-1.49h11.294c0.823,0,1.549,0.667,1.621,1.49l0,0C163.559,214.295,162.95,214.962,162.127,214.962z
				"/>
			<path style="opacity:0.9;fill:#FFFFFF;" d="M163.9,220.81h-12.555c-0.823,0-1.549-0.667-1.621-1.491l0,0
				c-0.072-0.823,0.537-1.491,1.36-1.491h12.555c0.823,0,1.549,0.667,1.621,1.491l0,0C165.332,220.142,164.723,220.81,163.9,220.81z
				"/>
			<path style="opacity:0.9;fill:#FFFFFF;" d="M163.15,226.657h-23.734c-0.823,0-1.549-0.667-1.621-1.49l0,0
				c-0.072-0.823,0.537-1.491,1.36-1.491h23.734c0.823,0,1.549,0.667,1.621,1.491l0,0
				C164.582,225.99,163.973,226.657,163.15,226.657z"/>
			<path style="opacity:0.9;fill:#FFFFFF;" d="M164.923,232.505h-24.995c-0.823,0-1.549-0.667-1.621-1.491l0,0
				c-0.072-0.823,0.537-1.491,1.36-1.491h24.996c0.823,0,1.549,0.667,1.621,1.491l0,0
				C166.355,231.837,165.746,232.505,164.923,232.505z"/>
			<path style="opacity:0.9;fill:#FFFFFF;" d="M162.224,238.352h-21.785c-0.823,0-1.549-0.667-1.621-1.491l0,0
				c-0.072-0.823,0.537-1.49,1.36-1.49h21.785c0.823,0,1.549,0.667,1.621,1.49l0,0C163.656,237.685,163.047,238.352,162.224,238.352
				z"/>
			<path style="opacity:0.9;fill:#FFFFFF;" d="M165.946,244.2h-24.995c-0.823,0-1.549-0.667-1.621-1.491l0,0
				c-0.072-0.823,0.537-1.491,1.36-1.491h24.996c0.823,0,1.549,0.667,1.621,1.491l0,0C167.378,243.533,166.769,244.2,165.946,244.2z
				"/>
			<path style="opacity:0.9;fill:#FFFFFF;" d="M158.689,250.048h-17.227c-0.823,0-1.549-0.667-1.621-1.49l0,0
				c-0.072-0.823,0.537-1.491,1.36-1.491h17.227c0.823,0,1.549,0.667,1.621,1.491l0,0
				C160.122,249.38,159.513,250.048,158.689,250.048z"/>
		</g>
	</g>
</g>
<g id="Check">
	<g>
		<g>
			<path style="fill:#263238;" d="M241.154,314.169h-18.799c-2.655,0-5.004-2.158-5.236-4.81l-1.645-18.8
				c-0.116-1.331,0.299-2.588,1.17-3.539c0.867-0.947,2.076-1.468,3.404-1.468h18.799c2.655,0,5.004,2.158,5.236,4.81l1.644,18.8
				c0.117,1.332-0.298,2.587-1.169,3.539C243.691,313.648,242.482,314.169,241.154,314.169z M220.048,287.802
				c-0.689,0-1.309,0.262-1.745,0.738c-0.44,0.48-0.648,1.127-0.588,1.822l1.645,18.8c0.133,1.521,1.477,2.757,2.994,2.757h18.799
				c0.689,0,1.309-0.262,1.745-0.738c0.439-0.48,0.648-1.127,0.587-1.822l-1.644-18.8c-0.133-1.521-1.476-2.757-2.995-2.757H220.048
				z"/>
		</g>
		<g style="opacity:0.5;">
			<path style="fill:#FFFFFF;" d="M241.154,314.169h-18.799c-2.655,0-5.004-2.158-5.236-4.81l-1.645-18.8
				c-0.116-1.331,0.299-2.588,1.17-3.539c0.867-0.947,2.076-1.468,3.404-1.468h18.799c2.655,0,5.004,2.158,5.236,4.81l1.644,18.8
				c0.117,1.332-0.298,2.587-1.169,3.539C243.691,313.648,242.482,314.169,241.154,314.169z M220.048,287.802
				c-0.689,0-1.309,0.262-1.745,0.738c-0.44,0.48-0.648,1.127-0.588,1.822l1.645,18.8c0.133,1.521,1.477,2.757,2.994,2.757h18.799
				c0.689,0,1.309-0.262,1.745-0.738c0.439-0.48,0.648-1.127,0.587-1.822l-1.644-18.8c-0.133-1.521-1.476-2.757-2.995-2.757H220.048
				z"/>
		</g>
		<g>
			<path style="fill:#407BFF;" d="M226.702,307.691l-14.35-13.196c-1.006-0.925-1.072-2.491-0.147-3.497l0,0
				c0.925-1.006,2.491-1.072,3.497-0.147l10.693,9.833l20.728-22.715c0.921-1.01,2.487-1.081,3.496-0.16l0,0
				c1.01,0.921,1.081,2.487,0.16,3.496L226.702,307.691z"/>
		</g>
		<g style="opacity:0.2;">
			<path d="M226.702,307.691l-14.35-13.196c-1.006-0.925-1.072-2.491-0.147-3.497l0,0c0.925-1.006,2.491-1.072,3.497-0.147
				l10.693,9.833l20.728-22.715c0.921-1.01,2.487-1.081,3.496-0.16l0,0c1.01,0.921,1.081,2.487,0.16,3.496L226.702,307.691z"/>
		</g>
	</g>
	<g>
		<g>
			<path style="fill:#263238;" d="M139.661,206.777h-16.919c-2.389,0-4.503-1.942-4.712-4.329l-1.48-16.92
				c-0.105-1.198,0.269-2.329,1.053-3.185c0.781-0.852,1.869-1.321,3.064-1.321h16.919c2.39,0,4.503,1.942,4.712,4.329l1.48,16.92
				c0.105,1.198-0.269,2.329-1.052,3.185C141.944,206.308,140.855,206.777,139.661,206.777z M120.665,183.047
				c-0.62,0-1.178,0.236-1.571,0.664c-0.396,0.432-0.583,1.014-0.529,1.64l1.48,16.92c0.12,1.368,1.329,2.482,2.695,2.482h16.919
				c0.62,0,1.178-0.236,1.571-0.665c0.396-0.432,0.583-1.014,0.528-1.64l-1.48-16.92c-0.12-1.368-1.328-2.481-2.695-2.481H120.665z"
				/>
		</g>
		<g style="opacity:0.5;">
			<path style="fill:#FFFFFF;" d="M139.661,206.777h-16.919c-2.389,0-4.503-1.942-4.712-4.329l-1.48-16.92
				c-0.105-1.198,0.269-2.329,1.053-3.185c0.781-0.852,1.869-1.321,3.064-1.321h16.919c2.39,0,4.503,1.942,4.712,4.329l1.48,16.92
				c0.105,1.198-0.269,2.329-1.052,3.185C141.944,206.308,140.855,206.777,139.661,206.777z M120.665,183.047
				c-0.62,0-1.178,0.236-1.571,0.664c-0.396,0.432-0.583,1.014-0.529,1.64l1.48,16.92c0.12,1.368,1.329,2.482,2.695,2.482h16.919
				c0.62,0,1.178-0.236,1.571-0.665c0.396-0.432,0.583-1.014,0.528-1.64l-1.48-16.92c-0.12-1.368-1.328-2.481-2.695-2.481H120.665z"
				/>
		</g>
		<g>
			<path style="fill:#407BFF;" d="M126.654,200.947l-12.915-11.876c-0.906-0.833-0.965-2.242-0.132-3.147l0,0
				c0.833-0.906,2.242-0.965,3.147-0.132l9.624,8.85l18.655-20.444c0.829-0.909,2.238-0.973,3.147-0.144l0,0
				c0.909,0.829,0.973,2.238,0.144,3.147L126.654,200.947z"/>
		</g>
		<g style="opacity:0.2;">
			<path d="M126.654,200.947l-12.915-11.876c-0.906-0.833-0.965-2.242-0.132-3.147l0,0c0.833-0.906,2.242-0.965,3.147-0.132
				l9.624,8.85l18.655-20.444c0.829-0.909,2.238-0.973,3.147-0.144l0,0c0.909,0.829,0.973,2.238,0.144,3.147L126.654,200.947z"/>
		</g>
	</g>
	<g>
		<g>
			<path style="fill:#263238;" d="M145.504,376.091h-18.799c-2.655,0-5.004-2.158-5.236-4.81l-1.645-18.8
				c-0.116-1.332,0.299-2.588,1.17-3.539c0.868-0.947,2.076-1.468,3.404-1.468h18.799c2.655,0,5.004,2.158,5.236,4.81l1.644,18.8
				c0.117,1.332-0.298,2.587-1.169,3.539C148.04,375.57,146.832,376.091,145.504,376.091z M124.398,349.724
				c-0.689,0-1.309,0.262-1.745,0.738c-0.439,0.48-0.648,1.127-0.588,1.822l1.645,18.8c0.133,1.521,1.477,2.757,2.994,2.757h18.799
				c0.689,0,1.309-0.262,1.745-0.738c0.439-0.48,0.648-1.127,0.587-1.822l-1.645-18.8c-0.133-1.521-1.476-2.757-2.994-2.757H124.398
				z"/>
		</g>
		<g style="opacity:0.5;">
			<path style="fill:#FFFFFF;" d="M145.504,376.091h-18.799c-2.655,0-5.004-2.158-5.236-4.81l-1.645-18.8
				c-0.116-1.332,0.299-2.588,1.17-3.539c0.868-0.947,2.076-1.468,3.404-1.468h18.799c2.655,0,5.004,2.158,5.236,4.81l1.644,18.8
				c0.117,1.332-0.298,2.587-1.169,3.539C148.04,375.57,146.832,376.091,145.504,376.091z M124.398,349.724
				c-0.689,0-1.309,0.262-1.745,0.738c-0.439,0.48-0.648,1.127-0.588,1.822l1.645,18.8c0.133,1.521,1.477,2.757,2.994,2.757h18.799
				c0.689,0,1.309-0.262,1.745-0.738c0.439-0.48,0.648-1.127,0.587-1.822l-1.645-18.8c-0.133-1.521-1.476-2.757-2.994-2.757H124.398
				z"/>
		</g>
		<g>
			<path style="fill:#407BFF;" d="M131.052,369.613l-14.35-13.196c-1.006-0.925-1.072-2.491-0.147-3.497l0,0
				c0.925-1.006,2.491-1.072,3.497-0.147l10.693,9.833l20.728-22.715c0.921-1.01,2.487-1.081,3.496-0.16l0,0
				c1.01,0.921,1.081,2.487,0.16,3.496L131.052,369.613z"/>
		</g>
		<g style="opacity:0.2;">
			<path d="M131.052,369.613l-14.35-13.196c-1.006-0.925-1.072-2.491-0.147-3.497l0,0c0.925-1.006,2.491-1.072,3.497-0.147
				l10.693,9.833l20.728-22.715c0.921-1.01,2.487-1.081,3.496-0.16l0,0c1.01,0.921,1.081,2.487,0.16,3.496L131.052,369.613z"/>
		</g>
	</g>
	<g>
		<g>
			<path style="fill:#263238;" d="M229.683,181.898h-16.919c-2.389,0-4.503-1.942-4.712-4.329l-1.48-16.92
				c-0.105-1.198,0.269-2.33,1.053-3.185c0.781-0.852,1.869-1.321,3.064-1.321h16.919c2.39,0,4.503,1.942,4.712,4.329l1.48,16.92
				c0.105,1.198-0.269,2.329-1.053,3.185C231.966,181.429,230.878,181.898,229.683,181.898z M210.688,158.168
				c-0.62,0-1.178,0.236-1.571,0.664c-0.396,0.432-0.583,1.014-0.529,1.64l1.48,16.92c0.12,1.368,1.329,2.481,2.695,2.481h16.919
				c0.62,0,1.178-0.236,1.571-0.664c0.396-0.432,0.583-1.014,0.528-1.64l-1.48-16.92c-0.12-1.368-1.329-2.481-2.695-2.481H210.688z"
				/>
		</g>
		<g style="opacity:0.5;">
			<path style="fill:#FFFFFF;" d="M229.683,181.898h-16.919c-2.389,0-4.503-1.942-4.712-4.329l-1.48-16.92
				c-0.105-1.198,0.269-2.33,1.053-3.185c0.781-0.852,1.869-1.321,3.064-1.321h16.919c2.39,0,4.503,1.942,4.712,4.329l1.48,16.92
				c0.105,1.198-0.269,2.329-1.053,3.185C231.966,181.429,230.878,181.898,229.683,181.898z M210.688,158.168
				c-0.62,0-1.178,0.236-1.571,0.664c-0.396,0.432-0.583,1.014-0.529,1.64l1.48,16.92c0.12,1.368,1.329,2.481,2.695,2.481h16.919
				c0.62,0,1.178-0.236,1.571-0.664c0.396-0.432,0.583-1.014,0.528-1.64l-1.48-16.92c-0.12-1.368-1.329-2.481-2.695-2.481H210.688z"
				/>
		</g>
		<g>
			<path style="fill:#407BFF;" d="M216.676,176.068l-12.915-11.876c-0.905-0.833-0.964-2.242-0.132-3.147l0,0
				c0.833-0.906,2.242-0.965,3.147-0.132l9.624,8.85l18.655-20.444c0.829-0.909,2.238-0.973,3.147-0.144l0,0
				c0.909,0.829,0.973,2.238,0.144,3.147L216.676,176.068z"/>
		</g>
		<g style="opacity:0.2;">
			<path d="M216.676,176.068l-12.915-11.876c-0.905-0.833-0.964-2.242-0.132-3.147l0,0c0.833-0.906,2.242-0.965,3.147-0.132
				l9.624,8.85l18.655-20.444c0.829-0.909,2.238-0.973,3.147-0.144l0,0c0.909,0.829,0.973,2.238,0.144,3.147L216.676,176.068z"/>
		</g>
	</g>
</g>
<g id="Character">
	<g id="Chair">
		<g>
			<path style="fill:#263238;" d="M373.643,336.097h11.861c6.203,0,11.445-4.844,11.933-11.029l2.159-27.361l-4.499-0.355
				l-2.159,27.361c-0.304,3.853-3.569,6.87-7.434,6.87h-11.861V336.097z"/>
			<path style="opacity:0.3;fill:#FFFFFF;" d="M373.643,336.097h11.861c6.203,0,11.445-4.844,11.933-11.029l2.159-27.361
				l-4.499-0.355l-2.159,27.361c-0.304,3.853-3.569,6.87-7.434,6.87h-11.861V336.097z"/>
			<path style="opacity:0.2;" d="M390.124,329.958l-0.708,3.216c-0.215,0.977-0.656,1.849-1.236,2.604
				c-0.864,0.201-1.758,0.319-2.676,0.319h-11.862v-4.513h11.862C387.237,331.584,388.846,330.974,390.124,329.958z"/>
			<g>
				<path style="fill:#407BFF;" d="M379.631,300.629c-2.847-0.292-4.919-2.836-4.627-5.682l3.585-35.02
					c0.291-2.847,2.835-4.918,5.682-4.627h34.297c1.9,0.195,3.282,1.892,3.087,3.792l-3.936,38.45
					c-0.194,1.9-1.892,3.282-3.791,3.087H379.631z"/>
				<path style="opacity:0.3;" d="M379.631,300.629c-2.847-0.292-4.919-2.836-4.627-5.682l3.585-35.02
					c0.291-2.847,2.835-4.918,5.682-4.627h34.297c1.9,0.195,3.282,1.892,3.087,3.792l-3.936,38.45
					c-0.194,1.9-1.892,3.282-3.791,3.087H379.631z"/>
				<path style="fill:#407BFF;" d="M417.719,297.541l3.936-38.45c0.194-1.9-1.188-3.597-3.087-3.792h0
					c-2.847-0.291-5.391,1.78-5.682,4.627l-3.585,35.02c-0.291,2.847,1.78,5.391,4.627,5.682l0,0
					C415.827,300.823,417.524,299.441,417.719,297.541z"/>
			</g>
			<path style="fill:#263238;" d="M378.93,402.403l-0.308-0.934c-0.393-1.191-1.507-1.996-2.762-1.996h-32.068
				c-1.365,0-2.547,0.95-2.84,2.283l-0.081,0.369c-0.285,1.293-1.431,2.214-2.755,2.214l0,0c-1.802,0-3.142-1.667-2.755-3.427
				l0.081-0.368c0.863-3.92,4.337-6.712,8.351-6.712h32.067c3.689,0,6.962,2.366,8.119,5.869l0.308,0.934
				c0.602,1.825-0.757,3.705-2.679,3.705l0,0C380.392,404.339,379.312,403.558,378.93,402.403z"/>
			<path style="opacity:0.3;fill:#FFFFFF;" d="M378.93,402.403l-0.308-0.934c-0.393-1.191-1.507-1.996-2.762-1.996h-32.068
				c-1.365,0-2.547,0.95-2.84,2.283l-0.081,0.369c-0.285,1.293-1.431,2.214-2.755,2.214l0,0c-1.802,0-3.142-1.667-2.755-3.427
				l0.081-0.368c0.863-3.92,4.337-6.712,8.351-6.712h32.067c3.689,0,6.962,2.366,8.119,5.869l0.308,0.934
				c0.602,1.825-0.757,3.705-2.679,3.705l0,0C380.392,404.339,379.312,403.558,378.93,402.403z"/>
			<rect x="355.12" y="393.831" style="opacity:0.2;" width="9.921" height="5.641"/>
			<path style="fill:#263238;" d="M360.081,403.698L360.081,403.698c1.558,0,2.821-1.263,2.821-2.821v-74.963h-5.641v74.963
				C357.26,402.435,358.523,403.698,360.081,403.698z"/>
			<path style="opacity:0.3;fill:#FFFFFF;" d="M360.081,403.698L360.081,403.698c1.558,0,2.821-1.263,2.821-2.821v-74.963h-5.641
				v74.963C357.26,402.435,358.523,403.698,360.081,403.698z"/>
			<path style="fill:#263238;" d="M356.132,408.817c0,2.181,1.768,3.949,3.949,3.949c2.181,0,3.949-1.768,3.949-3.949
				s-1.768-3.949-3.949-3.949C357.9,404.868,356.132,406.636,356.132,408.817z"/>
			<path style="fill:#263238;" d="M380.482,408.817c0,2.181,1.768,3.949,3.949,3.949s3.949-1.768,3.949-3.949
				s-1.768-3.949-3.949-3.949S380.482,406.636,380.482,408.817z"/>
			<path style="fill:#263238;" d="M331.345,408.817c0,2.181,1.768,3.949,3.949,3.949c2.181,0,3.949-1.768,3.949-3.949
				s-1.768-3.949-3.949-3.949C333.113,404.868,331.345,406.636,331.345,408.817z"/>
			<rect x="357.26" y="330.278" style="opacity:0.2;" width="5.641" height="13.341"/>
			<path style="fill:#263238;" d="M341.775,336.699h37.202c3.12,0,5.82-2.17,6.491-5.217l1.108-5.036h-52.99l1.879,5.69
				C336.363,334.859,338.907,336.699,341.775,336.699z"/>
			<path style="opacity:0.3;fill:#FFFFFF;" d="M341.775,336.699h37.202c3.12,0,5.82-2.17,6.491-5.217l1.108-5.036h-52.99l1.879,5.69
				C336.363,334.859,338.907,336.699,341.775,336.699z"/>
			<path style="fill:#407BFF;" d="M327.745,330.396h57.902c1.831,0,3.315-1.484,3.315-3.315v-0.765c0-2.743-2.224-4.967-4.967-4.967
				h-54.597c-2.743,0-4.967,2.224-4.967,4.967v0.765C324.43,328.912,325.914,330.396,327.745,330.396z"/>
			<path style="opacity:0.3;" d="M327.745,330.396h57.902c1.831,0,3.315-1.484,3.315-3.315v-0.765c0-2.743-2.224-4.967-4.967-4.967
				h-54.597c-2.743,0-4.967,2.224-4.967,4.967v0.765C324.43,328.912,325.914,330.396,327.745,330.396z"/>
			<path style="fill:#407BFF;" d="M361.592,330.396h35.337c1.831,0,3.315-1.484,3.315-3.315v-0.765c0-2.743-2.224-4.967-4.967-4.967
				h-32.032c-2.743,0-4.967,2.224-4.967,4.967v0.765C358.278,328.912,359.762,330.396,361.592,330.396z"/>
		</g>
	</g>
	<g>
		<polygon style="fill:#FF8B7B;" points="304.977,386.428 301.65,402.475 294.559,401.517 296.021,384.875 		"/>
		<g>
			<path style="fill:#263238;" d="M294.066,400.706l8.61,0.603c0.301,0.012,0.538,0.266,0.531,0.571l0,0l-0.053,6.929
				c-0.051,0.754-0.691,1.325-1.435,1.282c-2.998-0.259-4.422-0.539-8.206-0.83c-3.376-0.117-6.74-0.477-10.066-1.078
				c-3.189-0.743-2.339-3.869-0.935-3.836c3.625-0.198,7.137-1.345,10.194-3.33C293.114,400.767,293.591,400.657,294.066,400.706z"
				/>
			<path style="fill:#263238;" d="M289.846,401.353c-0.242-0.283-0.301-0.682-0.149-1.024c0.056-0.229,0.225-0.413,0.447-0.485
				c0.967-0.302,3.04,1.347,3.274,1.541c0.044,0.054,0.063,0.125,0.053,0.194c-0.02,0.069-0.078,0.12-0.149,0.129
				c-0.681,0.119-1.372,0.162-2.062,0.129C290.747,401.854,290.244,401.682,289.846,401.353z M290.25,400.221
				c-0.106,0.04-0.188,0.128-0.223,0.237c-0.086,0.219-0.054,0.468,0.085,0.657c0.34,0.388,1.339,0.496,2.732,0.323
				C291.994,400.803,290.761,400.059,290.25,400.221L290.25,400.221z"/>
			<path style="fill:#263238;" d="M293.184,401.687c-0.723-0.507-1.754-2.209-1.531-3.05c0.095-0.303,0.377-0.506,0.691-0.496
				c0.28-0.016,0.552,0.094,0.744,0.302c0.712,0.819,0.383,3.06,0.383,3.136c-0.017,0.056-0.055,0.103-0.106,0.129
				c-0.023,0.012-0.051,0.012-0.074,0C293.254,401.717,293.215,401.709,293.184,401.687z M292.355,398.54
				c-0.255,0.011-0.351,0.129-0.351,0.237c0.069,0.93,0.474,1.801,1.137,2.446c0.16-0.844,0.044-1.718-0.329-2.489
				c-0.09-0.117-0.226-0.188-0.372-0.194H292.355z"/>
		</g>
		<polygon style="opacity:0.2;" points="296.021,384.875 304.977,386.428 303.296,394.535 295.245,393.703 		"/>
		<path style="fill:#263238;" d="M364.681,281.246c0,0-0.92,14.991-4.926,15.691c-4.006,0.7-54.908,11.079-58.574,23.079
			c-3.667,12-6.686,71.84-6.686,71.84l10.186,0.92c0,0,14-50.76,13.333-64.26c0,0,44.5,0,59.333-8.167
			c14.833-8.167,7.704-37.317,7.704-37.317L364.681,281.246z"/>
		<path style="opacity:0.5;fill:#FFFFFF;" d="M364.681,281.246c0,0-0.92,14.991-4.926,15.691
			c-4.006,0.7-54.908,11.079-58.574,23.079c-3.667,12-6.686,71.84-6.686,71.84l10.186,0.92c0,0,14-50.76,13.333-64.26
			c0,0,44.5,0,59.333-8.167c14.833-8.167,7.704-37.317,7.704-37.317L364.681,281.246z"/>
		<path style="opacity:0.2;" d="M319.272,328.508c1.865-0.019,5.675-0.08,10.549-0.283l6.394-4.941l37.5-7.564l1.422-12.072
			c0,0-36.922,2.572-46.822,8.072C320.9,315.84,319.505,324.447,319.272,328.508z"/>
		<polygon style="fill:#FF8B7B;" points="328.845,389.581 325.541,405.878 318.422,405.165 319.842,388.339 		"/>
		<g>
			<path style="fill:#263238;" d="M317.8,403.068l8.575,0.938c0.297,0.018,0.525,0.276,0.509,0.577l0,0l-0.314,6.934
				c-0.052,0.754-0.697,1.323-1.44,1.271c-0.008-0.001-0.015-0.001-0.023-0.002c-2.991-0.376-4.371-0.714-8.172-1.151
				c-3.37-0.222-6.719-0.689-10.023-1.398c-3.114-0.86-2.193-3.95-0.801-3.863c3.3,0.185,8.002-1.488,10.35-2.965
				C316.856,403.147,317.328,403.027,317.8,403.068z"/>
			<path style="fill:#263238;" d="M313.612,403.591c-0.253-0.297-0.304-0.719-0.13-1.069c0.064-0.225,0.236-0.402,0.457-0.47
				c0.991-0.221,2.985,1.473,3.213,1.672c0.039,0.056,0.048,0.129,0.023,0.193c-0.02,0.071-0.085,0.119-0.157,0.117
				c-0.686,0.097-1.38,0.118-2.07,0.063C314.458,404.089,313.986,403.911,313.612,403.591z M313.976,402.449
				c-0.109,0.027-0.193,0.113-0.219,0.223c-0.097,0.219-0.066,0.474,0.081,0.663c0.316,0.395,1.319,0.541,2.718,0.421
				c-0.831-0.667-2.03-1.462-2.558-1.309L313.976,402.449z"/>
			<path style="fill:#263238;" d="M316.903,403.972c-0.736-0.505-1.698-2.253-1.445-3.077c0.1-0.308,0.394-0.506,0.713-0.48
				c0.279-0.004,0.545,0.118,0.726,0.333c0.691,0.837,0.257,3.084,0.265,3.148c-0.016,0.059-0.057,0.108-0.112,0.133
				c-0.019,0.012-0.042,0.015-0.063,0.008C316.948,404.035,316.915,404.009,316.903,403.972z M316.173,400.871
				c-0.257,0-0.381,0.124-0.368,0.231c0.045,0.931,0.422,1.814,1.062,2.484c0.185-0.841,0.1-1.721-0.241-2.511
				c-0.093-0.112-0.224-0.185-0.368-0.204L316.173,400.871z"/>
		</g>
		<polygon style="opacity:0.2;" points="328.715,390.223 327.414,396.637 319.268,395.139 319.84,388.361 		"/>
		<path style="fill:#FF8B7B;" d="M380.125,233.741c-8.128-1.072-1.803-3.785-1.803-3.785c5.512-1.035,5.849-5.004,5.362-8.768
			l10.105-7.391c-1.517,4.748-3.509,13.482-0.53,16.83c0,0,2.054,4.318-10.615,3.363L380.125,233.741z"/>
		<path style="opacity:0.2;" d="M389.67,216.813l-5.981,4.371c0.118,0.891,0.186,1.792,0.144,2.663
			c2.083-0.203,5.164-2.316,5.638-4.443C389.707,218.344,389.785,217.318,389.67,216.813z"/>
		<path style="fill:#FF8B7B;" d="M398.328,204.335c-1.807,7.695-2.409,10.982-7.005,14.505c-6.913,5.3-15.932,1.926-16.451-6.025
			c-0.467-7.157,2.567-18.538,10.679-20.741C393.544,189.903,400.135,196.641,398.328,204.335z"/>
		<path style="fill:#263238;" d="M385.976,205.076c-0.124,0.652-0.564,1.141-0.983,1.091c-0.419-0.05-0.658-0.619-0.535-1.272
			c0.124-0.653,0.564-1.141,0.983-1.091C385.861,203.854,386.1,204.423,385.976,205.076z"/>
		<path style="fill:#263238;" d="M378.071,204.252c-0.124,0.652-0.564,1.141-0.983,1.091c-0.419-0.05-0.658-0.619-0.535-1.271
			c0.124-0.652,0.564-1.141,0.983-1.091C377.955,203.03,378.194,203.599,378.071,204.252z"/>
		<path style="fill:#263238;" d="M377.714,203.038l-1.454-0.635C376.26,202.403,376.818,203.721,377.714,203.038z"/>
		<path style="fill:#FF5652;" d="M380.065,205.583c0,0-1.621,2.679-3.075,3.892c0.694,0.905,2.203,0.709,2.203,0.709
			L380.065,205.583z"/>
		<path style="fill:#263238;" d="M382.422,213.034c-0.344,0.02-0.708,0.012-1.093-0.034c-0.104-0.012-0.172-0.108-0.152-0.214
			c0.02-0.105,0.118-0.181,0.225-0.169c2.811,0.337,4.507-1.508,4.524-1.527c0.073-0.083,0.195-0.093,0.271-0.025
			c0.076,0.068,0.078,0.19,0.005,0.271C386.136,211.408,384.772,212.895,382.422,213.034z"/>
		<path style="fill:#263238;" d="M388.348,201.646c-0.101-0.003-0.198-0.046-0.265-0.128c-1.045-1.28-2.452-1.08-2.468-1.077
			c-0.208,0.03-0.395-0.112-0.413-0.323c-0.017-0.21,0.141-0.407,0.352-0.44c0.074-0.011,1.84-0.265,3.136,1.325
			c0.129,0.158,0.098,0.402-0.069,0.545C388.54,201.616,388.443,201.649,388.348,201.646z"/>
		<path style="fill:#263238;" d="M376.458,200.4c-0.096,0.003-0.19-0.029-0.261-0.098c-0.147-0.142-0.142-0.385,0.011-0.542
			c1.538-1.579,3.276-1.327,3.35-1.316c0.207,0.033,0.336,0.229,0.288,0.438c-0.048,0.209-0.255,0.352-0.462,0.321
			c-0.068-0.011-1.42-0.186-2.643,1.07C376.663,200.355,376.56,200.397,376.458,200.4z"/>
		<path style="fill:#263238;" d="M385.62,203.862l-1.454-0.635C384.166,203.227,384.724,204.545,385.62,203.862z"/>
		<g>
			<path style="fill:#FF8B7B;" d="M331.797,268.82l0.442-0.03c0.852-0.058,1.958-0.087,2.924-0.199
				c0.994-0.114,1.968-0.241,2.905-0.421c1.872-0.351,3.597-0.874,4.994-1.572c0.699-0.347,1.325-0.722,1.854-1.146
				c0.269-0.208,0.511-0.43,0.738-0.655c0.118-0.109,0.231-0.221,0.33-0.343l0.392-0.426l2.02-2.183l1.97-2.219
				c2.592-2.983,5.044-6.061,7.377-9.199c1.171-1.566,2.297-3.157,3.406-4.746c0.554-0.795,1.09-1.598,1.609-2.399
				c0.504-0.785,1.071-1.639,1.484-2.32l0.073-0.12c1.45-2.383,4.825-3.341,7.618-2.138c2.842,1.225,4.006,4.223,2.6,6.698
				c-0.599,1.054-1.1,1.909-1.696,2.817c-0.576,0.894-1.161,1.774-1.763,2.644c-1.188,1.748-2.452,3.446-3.768,5.113
				c-2.627,3.334-5.457,6.543-8.487,9.609c-1.509,1.538-3.096,3.019-4.702,4.483c-0.166,0.163-0.46,0.408-0.748,0.642
				c-0.279,0.237-0.573,0.457-0.875,0.669c-0.591,0.437-1.231,0.818-1.88,1.162c-1.301,0.692-2.661,1.234-4.031,1.618
				c-2.75,0.762-5.476,0.968-8.059,0.842c-1.294-0.074-2.559-0.204-3.794-0.445c-1.263-0.238-2.383-0.487-3.721-0.929
				c-0.999-0.332-1.745-1.141-1.834-2.131C329.05,270.125,330.225,268.927,331.797,268.82z"/>
			<path style="fill:#263238;" d="M367.985,234.338c0,0-2.302-0.041-11.024,14.904c0,0,3.573,8.719,12.86,9.167
				C369.821,258.409,387.996,233.336,367.985,234.338z"/>
			<path style="opacity:0.5;" d="M365.444,239.029l4.819-1.152l5.661,2.98l1.125,2.819c-1.458,6.771-7.228,14.732-7.228,14.732
				c-4.339-0.209-7.416-2.225-9.479-4.312C363.239,247.984,365.444,239.029,365.444,239.029z"/>
			<path style="fill:#FF8B7B;" d="M323.068,267.301l2.644-1.289c0.994-0.485,2.196-0.521,3.227-0.098l4.817,1.979
				c1.925,0.791,3.292,2.345,3.666,4.17l0.232,1.13c-4.217,2.4-10.805,2.287-10.805,2.287l-1.882,0.149
				c-1.676,0.132-3.099-0.851-3.267-2.259l-0.388-3.243C321.177,269.006,321.876,267.882,323.068,267.301z"/>
		</g>
		<path style="fill:#263238;" d="M373.756,281.246c0,0,1.08,22.991-2.926,23.691c-4.006,0.7-40.908,4.079-44.574,16.079
			s-7.686,71.84-7.686,71.84l10.186,1.92c0,0,16-52.76,15.333-66.26c0,0,40.612,1.203,49.333-7.167
			c8.774-8.421,6.705-38.317,6.705-38.317L373.756,281.246z"/>
		<path style="opacity:0.5;fill:#FFFFFF;" d="M373.756,281.246c0,0,1.08,22.991-2.926,23.691c-4.006,0.7-40.908,4.079-44.574,16.079
			s-7.686,71.84-7.686,71.84l10.186,1.92c0,0,16-52.76,15.333-66.26c0,0,40.612,1.203,49.333-7.167
			c8.774-8.421,6.705-38.317,6.705-38.317L373.756,281.246z"/>
		<path style="fill:#263238;" d="M380.221,229.822c-0.272,0.174-6.715,4.361,1.689,4.361c8.475,0,11.069-3.645,11.133-3.738
			c3.032,0.443,6.377,1.09,10.109,2.012l-2.738,56.337c0,0-23.61,2.133-36.807-3.822c0,0-1.682-41.455,2.236-48.011
			C365.843,236.961,367.793,230.792,380.221,229.822z"/>
		<path style="opacity:0.5;" d="M402.608,242.855l-1.146,21.908c-4.699-15.588-4.554-23.643-4.554-23.643l1.253-2.936
			L402.608,242.855z"/>
		<g>
			<path style="fill:#FF8B7B;" d="M430.022,246.501c-0.957-0.204-1.938,0.257-2.49,1.065l-0.037,0.054
				c-1.171,1.715-2.354,3.506-3.582,5.202c-1.212,1.713-2.437,3.4-3.706,4.983c-0.813,1.033-1.667,2.034-2.512,2.912
				c-0.564,0.586-1.551,0.421-1.903-0.311c-1.305-2.711-2.515-5.505-3.659-8.342c-0.825-2.084-1.639-4.179-2.414-6.29
				c-0.788-2.085-1.526-4.281-2.219-6.29l-0.038-0.111c-0.925-2.665-3.918-4.088-6.633-2.977c-2.385,0.976-3.566,3.714-2.84,6.187
				c0.691,2.355,1.475,4.493,2.285,6.709c0.848,2.241,1.757,4.462,2.747,6.654c0.971,2.199,2.047,4.366,3.185,6.51
				c1.128,2.15,2.394,4.254,3.728,6.331l0.168,0.262c0.116,0.178,0.252,0.346,0.41,0.501c0.48,0.474,1.02,0.942,1.764,1.331
				c0.712,0.385,1.579,0.66,2.401,0.735c1.703,0.171,2.969-0.305,3.903-0.746c1.813-0.943,2.78-1.971,3.711-2.946
				c1.771-1.963,2.988-3.938,4.159-5.916c1.136-1.989,2.136-3.992,3.049-6.024c0.891-2.052,1.734-4.063,2.461-6.214
				C432.408,248.436,431.672,246.852,430.022,246.501z"/>
			<path style="fill:#263238;" d="M416.911,252.325c0,0-5.652,6.296-15.451,6.327c0,0-10.097-23.884-1.299-26.367
				C408.494,229.933,416.911,252.325,416.911,252.325z"/>
			<path style="fill:#FF8B7B;" d="M428.413,239.191l-1.94,1.788c-0.73,0.672-1.09,1.656-0.966,2.64l0.578,4.601
				c0.231,1.839,1.339,3.453,2.972,4.33l1.011,0.543c3.421-2.745,5.096-8.232,5.096-8.232l0.651-1.511
				c0.579-1.346,0.029-2.829-1.264-3.406l-2.978-1.329C430.545,238.156,429.288,238.386,428.413,239.191z"/>
		</g>
		<g>
			<path style="fill:#407BFF;" d="M381.417,298.026l-56.566,5.307c-0.848,0.08-1.471,0.832-1.392,1.68
				c0.08,0.848,0.832,1.472,1.68,1.392l56.566-5.307c0.848-0.08,1.472-0.832,1.392-1.68
				C383.018,298.57,382.265,297.947,381.417,298.026z"/>
			<g>
				<path style="fill:#407BFF;" d="M325.886,305.388l26.153-2.454c0.501-0.047,0.806-0.575,0.596-1.032l-13.367-29.125
					c-0.368-0.802-1.203-1.284-2.082-1.202l-26.153,2.454c-0.501,0.047-0.806,0.575-0.596,1.032l13.367,29.125
					C324.172,304.989,325.007,305.471,325.886,305.388z"/>
			</g>
			<path style="fill:#407BFF;" d="M324.958,305.475l26.153-2.454c0.501-0.047,0.806-0.575,0.596-1.032l-13.367-29.125
				c-0.368-0.802-1.203-1.284-2.082-1.202l-26.153,2.454c-0.501,0.047-0.805,0.575-0.596,1.032l13.367,29.125
				C323.244,305.076,324.079,305.558,324.958,305.475z"/>
			<path style="opacity:0.7;fill:#FFFFFF;" d="M324.958,305.475l26.153-2.454c0.501-0.047,0.806-0.575,0.596-1.032l-13.367-29.125
				c-0.368-0.802-1.203-1.284-2.082-1.202l-26.153,2.454c-0.501,0.047-0.805,0.575-0.596,1.032l13.367,29.125
				C323.244,305.076,324.079,305.558,324.958,305.475z"/>
			<path style="opacity:0.7;fill:#FFFFFF;" d="M354.597,303.642c-0.848,0.08-1.601-0.544-1.68-1.392
				c-0.08-0.848,0.544-1.601,1.392-1.68l27.109-2.544c0.848-0.08,1.601,0.544,1.68,1.392c0.08,0.848-0.544,1.601-1.392,1.68
				L354.597,303.642z"/>
			<g>
				
					<rect x="359.044" y="301.211" transform="matrix(-0.9956 0.0934 -0.0934 -0.9956 746.8872 568.1802)" style="opacity:0.5;" width="2.202" height="0.721"/>
				
					<rect x="355.675" y="301.527" transform="matrix(-0.9956 0.0934 -0.0934 -0.9956 740.1938 569.1258)" style="opacity:0.5;" width="2.202" height="0.721"/>
			</g>
		</g>
		<path style="fill:#263238;" d="M395.928,210.202c0,0-5.547-4.268-2.702-11.779c0,0-3.072-1.488-6.521-1.492
			c-4.969-0.006-10.719,1.066-9.183-2.759c0,0-5.313-6.752,3.725-7.712c0,0-0.46-8.507,6.844-2.997c0,0,6.066-7.217,9.09,2.561
			c0,0,9.133-4.772,6.746,6.984c0,0,6.461,0.116,2.387,7.643c0,0,3.376,4.587-3.336,8.619c0,0,0.542,6.552-4.35,5.374
			c0,0-5.613,7.863-6.375,4.196C391.548,215.438,395.928,210.202,395.928,210.202z"/>
		<path style="fill:#FF8B7B;" d="M398.745,211.853c-0.867,1.556-2.215,2.478-3.43,2.742c-1.827,0.398-2.518-1.708-1.824-3.749
			c0.625-1.837,2.329-4.258,4.073-3.729C399.284,207.64,399.736,210.074,398.745,211.853z"/>
		<g>
			<polygon style="fill:#407BFF;" points="394.842,213.798 392.935,217.268 397.271,217.268 395.363,213.798 			"/>
			<polygon style="opacity:0.2;" points="394.842,213.798 392.935,217.268 397.271,217.268 395.363,213.798 			"/>
			<polygon style="fill:#407BFF;" points="392.935,217.268 394.842,213.798 396.75,217.268 			"/>
		</g>
		<polygon style="fill:#263238;" points="293.819,392.304 304.965,393.47 305.836,390.304 293.819,388.97 		"/>
		<polygon style="fill:#263238;" points="318.01,393.473 329.058,395.351 330.13,392.246 318.223,390.146 		"/>
	</g>
</g>
<g id="Target">
	<g>
		<g>
			<g>
				<path style="fill:#263238;" d="M306.326,226.227c-19.168,0-36.126-15.594-37.803-34.762
					c-1.677-19.168,12.553-34.762,31.721-34.762c19.168,0,36.127,15.594,37.804,34.762
					C339.724,210.633,325.494,226.227,306.326,226.227z"/>
			</g>
			<g>
				<path style="fill:#407BFF;" d="M307.998,225.391c-19.168,0-36.126-15.594-37.803-34.762
					c-1.677-19.168,12.553-34.762,31.721-34.762c19.168,0,36.127,15.594,37.804,34.762
					C341.396,209.797,327.166,225.391,307.998,225.391z"/>
			</g>
			<g style="opacity:0.7;">
				<path style="fill:#FFFFFF;" d="M307.998,225.391c-19.168,0-36.126-15.594-37.803-34.762
					c-1.677-19.168,12.553-34.762,31.721-34.762c19.168,0,36.127,15.594,37.804,34.762
					C341.396,209.797,327.166,225.391,307.998,225.391z"/>
			</g>
			<g>
				<path style="fill:#407BFF;" d="M307.998,225.391c-19.168,0-36.126-15.594-37.803-34.762
					c-1.677-19.168,12.553-34.762,31.721-34.762c19.168,0,36.127,15.594,37.804,34.762
					C341.396,209.797,327.166,225.391,307.998,225.391z M302.5,162.555c-15.48,0-26.972,12.594-25.618,28.075
					c1.354,15.48,15.05,28.074,30.53,28.074c15.48,0,26.973-12.594,25.618-28.074C331.677,175.149,317.981,162.555,302.5,162.555z"
					/>
			</g>
			<g>
				<path style="fill:#407BFF;" d="M306.883,212.651c-12.143,0-22.886-9.879-23.949-22.022
					c-1.062-12.143,7.952-22.022,20.095-22.022c12.143,0,22.887,9.879,23.949,22.022
					C328.041,202.772,319.026,212.651,306.883,212.651z M303.615,175.294c-8.456,0-14.732,6.879-13.993,15.335
					c0.74,8.456,8.22,15.334,16.676,15.334s14.733-6.879,13.993-15.334C319.551,182.174,312.07,175.294,303.615,175.294z"/>
			</g>
			<path style="fill:#407BFF;" d="M313.655,190.629c0.42,4.804-3.133,8.698-7.937,8.698s-9.039-3.894-9.459-8.698
				c-0.42-4.804,3.133-8.698,7.937-8.698C308.999,181.931,313.234,185.825,313.655,190.629z"/>
		</g>
		<g>
			<polygon style="fill:#263238;" points="329.346,166.325 327.654,159.711 334.545,152.821 336.237,159.434 			"/>
			<polygon style="fill:#263238;" points="329.346,166.325 335.96,168.016 342.85,161.126 336.237,159.434 			"/>
			
				<rect x="317.21" y="157.51" transform="matrix(0.7071 0.7071 -0.7071 0.7071 218.7105 -172.9703)" style="fill:#263238;" width="1.877" height="40.023"/>
		</g>
	</g>
</g>
</svg>
