<?xml version="1.0" encoding="utf-8"?>
<!-- Generator: Adobe Illustrator 27.5.0, SVG Export Plug-In . SVG Version: 6.00 Build 0)  -->
<svg version="1.1" xmlns="http://www.w3.org/2000/svg" xmlns:xlink="http://www.w3.org/1999/xlink" x="0px" y="0px"
	 viewBox="0 0 500 500" style="enable-background:new 0 0 500 500;" xml:space="preserve">
<g id="Floor">
	<path id="Floor_9_" style="fill:#FAFAFA;" d="M77.668,451.921c-95.176-54.951-95.176-144.042,0-198.991
		c95.176-54.949,249.487-54.949,344.663,0s95.176,144.041,0,198.991C327.155,506.872,172.844,506.872,77.668,451.921z"/>
</g>
<g id="Clouds">
	<path id="Cloud_26_" style="fill:#F5F5F5;" d="M134.207,86.193c-0.009-3.135-3.438-5.313-7.328-5.68
		c-4.584-0.432-7.836,1.611-7.945,5.221c-2.998-1.231-6.158-0.441-5.921,2.854c-0.78-0.899-3.697-0.874-4.744-0.623
		c-1.106,0.265-2.228,1.262-2.611,2.225c-0.31,0.779-0.326,1.14-0.271,1.687c-1.748-0.573-5.722-0.923-6.716,0.68
		c-1.769,2.854,5.299,2.943,6.724,2.08c0.302,2.22,7.898,2.585,9.737,0.536c1.437,1.447,3.5,1.767,5.728,1.899
		c3.758,0.224,6.063-1.049,8.994-2.547c3.187,2.702,8.702,2.752,11.574-0.34c0.733,0.691,2.751,0.906,4.368,0.519
		c1.062-0.253,1.307-0.706,1.307-0.706c0.569,0.263,1.246,0.438,1.95,0.586c2.084,0.437,5.961-0.024,4.334-1.901
		c-0.554-0.639-2.582-1.044-3.442-0.846c-0.909-1.788-4.558-3.482-6.651-1.97c-0.081-2.166-2.061-3.86-4.848-4.29
		C137.514,85.434,135.273,85.309,134.207,86.193z"/>
	<path id="Cloud_3_" style="fill:#F0F0F0;" d="M385.316,45.772c-0.009-3.135-3.438-5.313-7.328-5.68
		c-4.584-0.432-7.836,1.611-7.945,5.221c-2.998-1.231-6.158-0.441-5.921,2.854c-0.779-0.899-3.697-0.874-4.744-0.623
		c-1.107,0.265-2.228,1.262-2.611,2.225c-0.31,0.779-0.326,1.14-0.271,1.687c-1.748-0.572-5.722-0.923-6.716,0.68
		c-1.769,2.854,5.299,2.943,6.724,2.08c0.302,2.22,7.898,2.585,9.737,0.536c1.437,1.447,3.5,1.767,5.728,1.899
		c3.758,0.224,6.063-1.049,8.994-2.547c3.187,2.702,8.702,2.752,11.574-0.34c0.733,0.691,2.751,0.906,4.368,0.519
		c1.061-0.253,1.307-0.706,1.307-0.706c0.569,0.263,1.246,0.438,1.95,0.586c2.084,0.437,5.961-0.024,4.334-1.901
		c-0.554-0.639-2.582-1.044-3.442-0.846c-0.909-1.788-4.558-3.482-6.651-1.97c-0.081-2.166-2.061-3.86-4.848-4.29
		C388.623,45.013,386.382,44.887,385.316,45.772z"/>
	<path id="Cloud_2_" style="fill:#EBEBEB;" d="M110.111,66.55c-0.943-0.428-2.066-0.467-2.877-0.531
		c-0.931-0.073-1.226-0.258-1.406-0.46c-2.265-3.241-6.009-3.365-8.244-2.436c-0.548-2.23-3.246-4.166-6.217-3.514
		c0.102-2.898-3.598-6.012-6.923-6.719c-3.188-0.679-5.968-0.394-7.787,1.703c-1.947-3.803-9.581-4.874-13.712-2.862
		c-2.376,1.157-4.391,2.344-5.376,4.521c-0.65,1.437-0.882,2.394-0.895,4.328c-1.61-1.419-4.833-1.803-6.984-0.971
		c-2.318,0.897-2.494,2.644-2.609,4.421c-2.273-0.573-3.793-0.202-4.22-0.076c-1.461,0.433-2.302,1.579-2.102,2.506
		c-1.155-0.064-3.908,0.87-3.592,2.09c0.355,1.369,3.499,1.231,4.673,1.188c0.972-0.036,2.231-0.296,3.287-0.516
		c0.321,0.159,1.173,0.328,1.709,0.325c2.002-0.014,2.849-0.872,3.171-1.617c0.977,2.057,4.454,3.624,6.912,4.254
		c4.629,1.185,11.178,0.463,14.028-2.997c0.299,0.622,0.799,1.202,1.379,1.68c1.131,0.932,2.658,1.583,4.282,1.735
		c1.901,0.178,7.002,0.421,8.439-2.601c1.018,2.009,5.559,2.925,9.012,2.434c1.292-0.183,2.742-0.632,3.867-1.167
		c0.907-0.432,1.423-0.853,2.223-1.333c0.681-0.408,0.988-0.404,1.895-0.13c2.37,0.715,5.121,1.007,7.54-0.008
		C111.519,68.987,111.921,67.37,110.111,66.55z"/>
</g>
<g id="Plants">
	<g id="Plants_13_">
		<g id="Plants_11_">
			<path style="fill:#BA68C8;" d="M36.044,317.159c0.73-1.003,1.439-3.055,0.205-5.364c-1.234-2.309-3.499-3.965-3.807-3.911
				c-0.309,0.054-1.097,2.732,0.004,5.594C33.523,316.28,35.362,316.832,36.044,317.159z"/>
			<path style="fill:#BA68C8;" d="M34.752,323.531c0.192-1.226-0.114-3.375-2.266-4.867c-2.152-1.491-4.923-1.931-5.173-1.742
				c-0.25,0.189,0.271,2.931,2.556,4.976C32.107,323.899,33.996,323.551,34.752,323.531z"/>
			<path style="fill:#BA68C8;" d="M38.954,328.098c1.241-0.023,3.305-0.697,4.401-3.074c1.096-2.377,1.209-4.941,0.98-5.154
				c-0.229-0.214-3.146,0.834-4.759,3.066C37.818,325.369,38.803,327.357,38.954,328.098z"/>
			<path style="fill:#37474F;" d="M36.711,327.75c-0.025,2.208-0.158,4.192-0.405,6.121c0.334,0.075,0.669,0.147,1.021,0.206
				c0.033,0.006,0.068,0.011,0.101,0.017c0.424-4.267,0.34-8.636-0.315-12.869c-0.443-2.863-1.028-5.894-2.375-8.483
				c-0.029-0.056-0.179-0.016-0.16,0.045c1.045,3.429,1.244,5.216,1.595,7.83C36.478,322.886,36.74,325.208,36.711,327.75z"/>
			<path style="fill:#37474F;" d="M37.68,329.797c0.897-0.763,1.657-1.623,2.362-2.563c0.652-0.869,1.274-1.884,1.549-2.942
				c0.039-0.15-0.148-0.007-0.199,0.076c-0.532,0.866-1.1,1.626-1.728,2.427c-0.65,0.828-1.467,1.528-2.32,2.141
				c-0.215,0.154-0.367,0.504-0.26,0.76C37.187,329.946,37.488,329.96,37.68,329.797z"/>
			<path style="fill:#37474F;" d="M37.578,327.548c-0.499-1.591-1.305-2.733-2.504-4.267c-0.507-0.648-0.944-1.101-1.538-1.669
				c-0.593-0.568-1.722-1.387-2.197-1.544c-0.033-0.011-0.254-0.021-0.201,0.021c0.572,0.452,1.379,1.211,1.936,1.781
				c0.684,0.7,1.067,1.171,1.539,1.837c1.09,1.539,1.721,2.65,2.375,4.142C37.122,328.154,37.664,327.823,37.578,327.548z"/>
		</g>
	</g>
	<g id="Plants_10_">
		<g id="Plants_12_">
			<path style="fill:#BA68C8;" d="M469.464,310.98c-0.73-1.003-1.439-3.055-0.205-5.364s3.499-3.965,3.807-3.911
				c0.309,0.054,1.097,2.732-0.004,5.594C471.985,310.1,470.146,310.653,469.464,310.98z"/>
			<path style="fill:#BA68C8;" d="M470.756,317.351c-0.192-1.226,0.114-3.375,2.266-4.867c2.152-1.491,4.923-1.931,5.173-1.742
				s-0.271,2.931-2.557,4.976C473.4,317.719,471.512,317.371,470.756,317.351z"/>
			<path style="fill:#BA68C8;" d="M466.553,321.918c-1.241-0.023-3.305-0.697-4.401-3.074c-1.096-2.378-1.209-4.941-0.98-5.154
				c0.229-0.214,3.146,0.834,4.759,3.066C467.69,319.189,466.704,321.177,466.553,321.918z"/>
			<path style="fill:#37474F;" d="M468.796,321.57c0.025,2.208,0.158,4.192,0.405,6.121c-0.335,0.075-0.669,0.147-1.021,0.206
				c-0.033,0.006-0.068,0.011-0.101,0.017c-0.424-4.267-0.34-8.636,0.315-12.869c0.443-2.863,1.028-5.894,2.375-8.483
				c0.029-0.056,0.179-0.016,0.16,0.045c-1.045,3.429-1.244,5.216-1.595,7.83C469.029,316.707,468.767,319.028,468.796,321.57z"/>
			<path style="fill:#37474F;" d="M467.828,323.617c-0.897-0.763-1.657-1.623-2.362-2.563c-0.652-0.869-1.274-1.884-1.549-2.942
				c-0.039-0.15,0.148-0.007,0.199,0.076c0.532,0.866,1.1,1.625,1.728,2.427c0.65,0.828,1.467,1.528,2.32,2.141
				c0.215,0.155,0.367,0.504,0.26,0.76C468.32,323.767,468.02,323.78,467.828,323.617z"/>
			<path style="fill:#37474F;" d="M467.93,321.368c0.5-1.591,1.305-2.733,2.504-4.267c0.507-0.648,0.944-1.101,1.538-1.669
				c0.593-0.568,1.722-1.387,2.197-1.544c0.034-0.011,0.254-0.021,0.201,0.02c-0.572,0.452-1.379,1.211-1.936,1.781
				c-0.684,0.7-1.067,1.171-1.539,1.837c-1.09,1.538-1.721,2.65-2.375,4.141C468.386,321.974,467.844,321.643,467.93,321.368z"/>
		</g>
	</g>
	<g id="Plants_14_">
		<g id="Plants_15_">
			<path style="fill:#BA68C8;" d="M172.034,416.042c-0.938-1.289-1.848-3.924-0.263-6.889c1.585-2.965,4.493-5.092,4.89-5.023
				c0.396,0.069,1.409,3.508-0.005,7.184C175.271,414.912,172.909,415.622,172.034,416.042z"/>
			<path style="fill:#BA68C8;" d="M173.693,424.224c-0.246-1.574,0.146-4.335,2.91-6.25c2.764-1.915,6.322-2.48,6.643-2.237
				c0.321,0.243-0.348,3.765-3.283,6.39C177.089,424.697,174.664,424.25,173.693,424.224z"/>
			<path style="fill:#BA68C8;" d="M168.296,430.09c-1.593-0.03-4.244-0.895-5.652-3.948c-1.408-3.053-1.553-6.346-1.258-6.62
				c0.295-0.274,4.041,1.071,6.112,3.938C169.755,426.585,168.489,429.138,168.296,430.09z"/>
			<path style="fill:#37474F;" d="M171.176,429.643c0.033,2.836,0.202,5.384,0.52,7.862c-0.43,0.096-0.859,0.189-1.311,0.264
				c-0.042,0.007-0.088,0.015-0.13,0.022c-0.545-5.481-0.436-11.091,0.404-16.528c0.569-3.677,1.32-7.57,3.05-10.894
				c0.037-0.071,0.229-0.021,0.206,0.058c-1.342,4.403-1.597,6.699-2.048,10.056C171.475,423.397,171.139,426.378,171.176,429.643z"
				/>
			<path style="fill:#37474F;" d="M169.932,432.272c-1.152-0.979-2.128-2.085-3.034-3.292c-0.837-1.116-1.637-2.419-1.99-3.778
				c-0.05-0.193,0.19-0.009,0.256,0.098c0.683,1.112,1.412,2.088,2.22,3.117c0.835,1.063,1.884,1.963,2.98,2.75
				c0.276,0.198,0.471,0.647,0.334,0.977C170.565,432.464,170.178,432.481,169.932,432.272z"/>
			<path style="fill:#37474F;" d="M170.063,429.384c0.641-2.043,1.676-3.51,3.216-5.479c0.651-0.832,1.213-1.414,1.975-2.144
				c0.762-0.73,2.212-1.781,2.822-1.983c0.043-0.014,0.327-0.028,0.259,0.026c-0.734,0.581-1.771,1.555-2.486,2.288
				c-0.879,0.899-1.37,1.504-1.976,2.359c-1.4,1.976-2.21,3.404-3.05,5.319C170.649,430.162,169.953,429.737,170.063,429.384z"/>
		</g>
	</g>
</g>
<g id="Shadows">
	<path id="Shadow_10_" style="fill:#F0F0F0;" d="M311.093,456.611c-5.692-3.607-12.991-6.701-21.687-9.193
		c-9.774-2.801-21.331-4.855-29.646-8.244c-10.806-4.404-15.64-10.922-15.967-18.15c-0.185-4.094,1.557-8.921,10.286-13.248
		c2.235-1.108,4.998-2.18,8.057-2.784c4.491-0.887,8.543-0.581,11.841-0.092c17.598,2.609,25.907,9.385,32.682,16.161
		c6.775,6.775,14.29,10.172,27.683,15.522c5.732,2.29,11.838,4.458,17.284,6.829c0.044,0.019,0.088,0.038,0.132,0.058
		c2.751,1.206,5.741,2.261,7.974,3.661c3.562,2.234,6.757,4.61,8.333,7.391c1.576,2.781,1.471,6.002-1.459,9.437
		c-0.754,0.884-1.766,1.825-3.614,2.624c-1.564,0.676-3.572,1.178-5.531,1.536c-3.991,0.729-7.924,0.92-11.294,0.762
		c-3.371-0.158-6.234-0.647-8.894-1.215C325.673,465.186,317.89,460.918,311.093,456.611z"/>
	<path id="Shadow_38_" style="fill:#F0F0F0;" d="M196.499,303.548c-5.356-3.602-12.263-6.755-20.524-9.368
		c-9.285-2.937-20.297-5.206-28.17-8.667c-10.231-4.499-14.689-10.866-14.814-17.795c-0.07-3.925,1.724-8.501,10.195-12.415
		c2.169-1.002,4.843-1.957,7.787-2.455c4.323-0.732,8.195-0.333,11.34,0.221c16.781,2.957,24.559,9.663,30.869,16.327
		c6.31,6.664,13.416,10.112,26.1,15.584c5.429,2.342,11.218,4.578,16.37,6.99c0.042,0.02,0.083,0.039,0.125,0.059
		c2.603,1.227,5.438,2.314,7.54,3.714c3.352,2.232,6.35,4.59,7.785,7.294c1.436,2.704,1.251,5.785-1.643,8.998
		c-0.745,0.827-1.738,1.701-3.529,2.418c-1.515,0.606-3.451,1.035-5.336,1.326c-3.841,0.593-7.611,0.674-10.834,0.435
		c-3.224-0.239-5.952-0.782-8.484-1.396C210.234,312.139,202.894,307.849,196.499,303.548z"/>
	<path id="Shadow_34_" style="fill:#F0F0F0;" d="M89.392,378.663c-5.25-3.321-11.981-6.167-20-8.458
		c-9.013-2.575-19.669-4.459-27.338-7.577c-9.966-4.051-14.427-10.057-14.734-16.72c-0.174-3.774,1.428-8.226,9.473-12.221
		c2.06-1.023,4.606-2.014,7.425-2.573c4.14-0.821,7.875-0.543,10.917-0.094c16.225,2.391,23.891,8.632,30.142,14.873
		c6.251,6.241,13.182,9.366,25.533,14.288c5.287,2.106,10.917,4.101,15.939,6.282c0.041,0.018,0.081,0.035,0.122,0.053
		c2.537,1.11,5.295,2.08,7.354,3.369c3.285,2.057,6.233,4.244,7.688,6.807c1.455,2.563,1.36,5.532-1.337,8.702
		c-0.694,0.816-1.626,1.684-3.33,2.422c-1.441,0.624-3.292,1.089-5.098,1.42c-3.679,0.675-7.304,0.855-10.412,0.712
		c-3.108-0.143-5.748-0.591-8.2-1.113C102.839,386.557,95.661,382.628,89.392,378.663z"/>
	<path id="Shadow_33_" style="fill:#F0F0F0;" d="M409.276,337.29c-5.25-3.321-11.981-6.167-20-8.458
		c-9.013-2.575-19.669-4.459-27.338-7.577c-9.966-4.051-14.427-10.057-14.734-16.72c-0.174-3.774,1.428-8.226,9.473-12.221
		c2.06-1.023,4.606-2.014,7.425-2.573c4.139-0.821,7.875-0.543,10.916-0.094c16.225,2.391,23.891,8.632,30.142,14.873
		c6.251,6.241,13.182,9.366,25.533,14.288c5.286,2.107,10.917,4.101,15.939,6.282c0.041,0.018,0.081,0.035,0.122,0.053
		c2.537,1.11,5.294,2.079,7.354,3.369c3.285,2.057,6.233,4.244,7.688,6.807c1.455,2.563,1.361,5.532-1.337,8.701
		c-0.694,0.816-1.626,1.684-3.33,2.422c-1.441,0.624-3.293,1.089-5.098,1.42c-3.679,0.675-7.304,0.854-10.412,0.712
		c-3.108-0.143-5.748-0.591-8.201-1.113C422.724,345.184,415.546,341.255,409.276,337.29z"/>
	<path id="Shadow_9_" style="fill:#E0E0E0;" d="M185.443,349.313c8.013,2.829,15.684,6.625,22.794,11.279
		c7.991,5.231,15.301,11.555,23.809,15.895c11.057,5.64,23.737,7.662,36.134,7.051c7.022-0.346,14.654-1.865,19.127-7.289
		c1.145-1.389,2.056-3.073,2.073-4.873c0.025-2.643-1.834-4.906-3.754-6.721c-10.248-9.686-24.515-13.65-38.273-16.743
		c-13.758-3.094-22.014-6.979-35.535-13.98c-5.787-2.997-11.49-6.219-17.32-9.044c-0.047-0.023-0.094-0.046-0.142-0.069
		c-2.96-1.426-5.74-3.005-8.859-4.116c-4.976-1.773-10.07-3.322-15.319-3.909c-5.249-0.587-10.691-0.173-15.564,1.866
		c-1.254,0.525-2.52,1.202-3.268,2.337c-0.633,0.961-0.823,2.154-0.784,3.304c0.08,2.342,1.053,4.592,2.435,6.485
		c1.382,1.893,3.159,3.462,5.004,4.907C166.047,341.994,175.875,345.935,185.443,349.313z"/>
</g>
<g id="Character_5">
	<g id="Character_13_">
		<path id="Arm_11_" style="fill:#E0E0E0;" d="M428.264,122.79c7.128,0.459,9.904,0.574,13.982,5.9
			c4.078,5.326,12.508,26.009,14.629,30.242c2.121,4.233,2.798,5.792,2.803,10.827c0.005,5.245-1.846,14.816-2.469,20.007
			c-0.288,2.402-0.392,4.714-0.514,7.151c-0.126,2.54-0.908,4.949-1.382,7.45c-0.219,1.155-0.863,2.292-1.647,3.163
			c-0.516,0.574-1.29,0.727-1.781,1.268c-0.507,0.559-0.52,1.364-1.234,1.845c-0.794,0.535-1.804,0.395-2.49,0.929
			c-0.718,0.559-1.286,1.308-2.1,1.796c-0.733,0.439-1.291,0.649-1.797,1.376c-0.415,0.596-0.73,1.846-1.617,1.873
			c-0.994,0.03-1.275-0.899-1.432-1.712c-0.277-1.435,0.27-3.365,0.986-4.619c0.829-1.453,1.308-3.081,2.304-4.435
			c0.901-1.226,1.299-2.915,1.553-4.42c0.178-1.053-0.085-2.338-1.317-1.576c-1.451,0.898-2.891,2.58-4.781,2.502
			c-1.307-0.054-1.508-1.052-0.872-1.991c1.066-1.572,1.953-3.132,2.785-4.856c0.828-1.715,1.465-3.502,2.339-5.189
			c0.454-0.877,1.024-1.729,1.596-2.545c1.599-2.282,1.166-5.057,1.042-7.671c-0.172-3.649-0.443-7.294-0.738-10.935
			c-0.039-0.487,0.084-1.572-0.167-2.008c-0.001-0.001-11.322-19.624-11.322-19.624L428.264,122.79z"/>
		<g id="Bottom_11_">
			<g>
				<g>
					<path style="fill:#E0E0E0;" d="M360.484,300.672c-0.531-0.257-0.846,1.511-0.722,2.378c0.107,0.747,1.104,3.554,4.785,5.871
						c3.681,2.317,9.516,3.72,11.915,4.523c2.399,0.804,4.288,2.758,7.434,4.415c2.796,1.473,7.045,2.221,8.919,1.424
						c0.919-0.391,1.17-1.327,1.394-1.974c0.533-1.536,0.505-1.896,0.318-1.952L360.484,300.672z"/>
				</g>
				<g>
					<path style="fill:#E0E0E0;" d="M365.297,296.362c-2.04,0.292-4.738,1.658-5.157,4.481c-0.167,1.789,1.086,2.911,2.441,4.219
						c1.605,1.548,3.559,2.556,5.56,3.552c2.342,1.167,5.859,2.025,8.349,2.817c2.267,0.72,4.135,1.872,5.849,2.934
						c2.859,1.773,4.927,2.741,8.044,2.975c1.181,0.089,2.938,0.041,3.862-0.904c0.801-1.431,1.349-2.873,1.629-4.477
						c0.246-1.406,0.076-3.077,0.829-5.329c-0.001,0.001-0.001,0-0.002,0.001c-0.741,0.866-2.366,2.053-7.34,1.414
						c-4.951-0.635-10.302-1.705-14.566-3.519c-4.263-1.814-4.973-5.859-2.9-7.046C369.785,296.887,367.452,296.054,365.297,296.362
						z"/>
					<path style="opacity:0.1;" d="M365.297,296.362c-2.04,0.292-4.738,1.658-5.157,4.481c-0.167,1.789,1.086,2.911,2.441,4.219
						c1.605,1.548,3.559,2.556,5.56,3.552c2.342,1.167,5.859,2.025,8.349,2.817c2.267,0.72,4.135,1.872,5.849,2.934
						c2.859,1.773,4.927,2.741,8.044,2.975c1.181,0.089,2.938,0.041,3.862-0.904c0.801-1.431,1.349-2.873,1.629-4.477
						c0.246-1.406,0.076-3.077,0.829-5.329c-0.001,0.001-0.001,0-0.002,0.001c-0.741,0.866-2.366,2.053-7.34,1.414
						c-4.951-0.635-10.302-1.705-14.566-3.519c-4.263-1.814-4.973-5.859-2.9-7.046C369.785,296.887,367.452,296.054,365.297,296.362
						z"/>
				</g>
				<path style="fill:#E0E0E0;" d="M374.794,304.526c4.263,1.814,9.614,2.884,14.566,3.519c4.974,0.638,6.599-0.548,7.34-1.414
					c0.001-0.001,0.001-0.001,0.002-0.001c0.096-0.288,0.201-0.586,0.324-0.904c1.196-3.085,3.458-9.88,3.458-9.88
					s-13.022-5.032-13.144-4.58c-0.573,2.12-0.704,7.165-4.758,7.873c-1.694,0.296-8.076-0.926-10.689-1.659
					C369.821,298.667,370.531,302.712,374.794,304.526z"/>
			</g>
			<g>
				<path style="opacity:0.1;" d="M431.3,331.221c0.434-1.037,0.803-1.523,2.168-2.429c0.664,0.073,1.081,0.199,1.081,0.199
					C433.933,329.599,431.718,330.459,431.3,331.221z"/>
				<path style="fill:#E0E0E0;" d="M451.706,313.121c-0.346-1.328-1.545-2.035-2.709-2.756c-0.866-0.536-1.822-1.086-2.662-1.667
					l0,0.002c0,0-3.901-0.323-5.887,1.884c-1.986,2.207-2.869,6.252-2.648,12.652c0.221,6.399-3.236,8.753-4.875,8.238
					c-1.638-0.515,1.625-2.483,1.625-2.483s-2.173-0.703-4.775,0.243c-0.012,0.01-0.034,0.02-0.056,0.03
					c-0.388,0.133-0.779,0.319-1.172,0.537c-3.115,1.732-2.923,4.299-2.923,4.299s-0.381,2.226,5.761,4.454
					c0,0,2.828,1.489,5.626,0.551c0.2-0.077,0.378-0.144,0.557-0.232c3.083-1.479,10.731-5.333,10.63-5.804
					c-0.094-0.438,0.03-1.002,0.054-1.442c0.061-1.126,0.134-2.251,0.207-3.376c0.066-1.026-0.024-2.222,0.259-3.214
					c0.252-0.883,0.379-1.731,0.488-2.652c0.268-2.257,1.497-3.921,1.764-6.177c0.077-0.65,0.153-1.313,0.07-1.958
					C451.021,314.097,451.744,313.269,451.706,313.121z"/>
				<g>
					<path style="fill:#E0E0E0;" d="M432.925,331.474c1.638,0.515,5.095-1.839,4.875-8.238c-0.221-6.399,0.662-10.445,2.648-12.652
						c1.986-2.207,5.887-1.884,5.887-1.884l0-0.002c-0.765-0.528-1.434-1.082-1.842-1.677c-0.874-1.274-2.52-4.756-2.52-4.756
						c-0.695-1.463-3.472-1.795-8.371,1.707c-5.12,3.66-4.268,6.493-3.276,7.61c0.891,1.289,2.187,3.025,3.365,4.913
						c1.078,1.729,1.276,4.053,1.35,5.341c0.117,2.036,0.009,2.289-0.069,4.325c-0.083,2.148-0.421,2.829-0.421,2.829
						S431.286,330.96,432.925,331.474z"/>
				</g>
				<path style="opacity:0.1;" d="M451.706,313.121c-0.346-1.328-1.545-2.035-2.709-2.756c-0.866-0.536-1.822-1.086-2.662-1.667
					l0,0.002c0,0-3.901-0.323-5.887,1.884c-1.986,2.207-2.869,6.252-2.648,12.652c0.221,6.399-3.236,8.753-4.875,8.238
					c-1.638-0.515,1.625-2.483,1.625-2.483s-2.173-0.703-4.775,0.243c-0.012,0.01-0.034,0.02-0.056,0.03
					c-0.388,0.133-0.779,0.319-1.172,0.537c-3.115,1.732-2.923,4.299-2.923,4.299s-0.381,2.226,5.761,4.454
					c0,0,2.828,1.489,5.626,0.551c0.2-0.077,0.378-0.144,0.557-0.232c3.083-1.479,10.731-5.333,10.63-5.804
					c-0.094-0.438,0.03-1.002,0.054-1.442c0.061-1.126,0.134-2.251,0.207-3.376c0.066-1.026-0.024-2.222,0.259-3.214
					c0.252-0.883,0.379-1.731,0.488-2.652c0.268-2.257,1.497-3.921,1.764-6.177c0.077-0.65,0.153-1.313,0.07-1.958
					C451.021,314.097,451.744,313.269,451.706,313.121z"/>
				<g>
					<path id="XMLID_4737_" style="fill:#E0E0E0;" d="M452.447,314.434c1.368,0.577,0.235,2.793-1.414,6.093
						c-1.641,3.283-1.962,5.237-1.636,8.215c0.326,2.979-0.376,4.436-1.664,5.472c-1.289,1.036-10.844,5.228-10.844,5.228
						s3.24-3.483,3.766-10.035c0.526-6.552,1.149-10.76,4.41-13.616C448.325,312.935,452.447,314.434,452.447,314.434z"/>
					<path id="XMLID_4735_" style="opacity:0.18;" d="M452.447,314.434c1.368,0.577,0.235,2.793-1.414,6.093
						c-1.641,3.283-1.962,5.237-1.636,8.215c0.326,2.979-0.376,4.436-1.664,5.472c-1.289,1.036-10.844,5.228-10.844,5.228
						s3.24-3.483,3.766-10.035c0.526-6.552,1.149-10.76,4.41-13.616C448.325,312.935,452.447,314.434,452.447,314.434z"/>
				</g>
				<path id="XMLID_4010_" style="fill:#E0E0E0;" d="M425.621,334.097c0.156,1.275,3.813,3.877,8.126,3.833
					c4.45-0.046,4.688-0.972,5.359-6.032c0.671-5.061,1.134-12.076,3.322-15.086c2.188-3.01,5.069-4.789,9.277-3.691
					c0.481,0.234,1.787,1.536,1.296,2.754c0,0,0.012-0.962-1.715-1.462c-1.481-0.429-3.249-0.385-5.719,1.746
					c-2.883,2.487-3.528,8.324-3.857,13.34c-0.329,5.016-1.897,9.829-6.046,10.274c-4.15,0.444-7.358-0.779-10.004-3.1
					C425.227,335.324,425.621,334.097,425.621,334.097z"/>
			</g>
			<g>
				<path id="XMLID_4753_" style="fill:#F0F0F0;" d="M410.261,186.877c0,0-5.439,6.518-8.727,18.709
					c-3.992,14.799-5.536,26.182-6.785,34.441c-0.785,5.189-1.362,8.894-2.773,18.347c-1.175,7.875-6.347,36.208-6.347,36.208
					s4.191,2.712,7.505,3.519c2.391,0.583,6.26,0.913,7.351,0.464c0,0,2.595-6.819,7.125-19.123
					c2.848-7.736,4.42-13.328,5.212-17.371c0.592-3.043,0.449-8.459,0.391-11.193l21.936-38.131c0,0,5.412-3.751,7.374-9.12
					c3.013-8.245,0.188-16.751,0.188-16.751H410.261z"/>
				<path style="fill:#E0E0E0;" d="M434.206,197.428h-29.881c-0.986,2.347-1.957,5.068-2.791,8.158
					c-3.57,13.235-5.182,23.73-6.376,31.71c0.727,4.892,1.549,9.908,2.311,13.369c2.007,9.115,3.261,15.553,4.85,19.316
					c1.586,3.755,5.401,9.085,5.417,9.107c2.763-7.547,4.305-13.038,5.084-17.016c0.592-3.043,0.449-8.459,0.391-11.193
					l17.771-30.89v0l1.273-4.862C436.771,207.768,436.27,202.249,434.206,197.428z"/>
			</g>
			<g>
				<path id="XMLID_4741_" style="fill:#F0F0F0;" d="M429.135,186.877c1.421,1.455,4.956,6.331,5.533,13.837
					c0.244,3.178-0.66,9.169-4.373,13.677c-1.136,16.648-4.427,48.714-4.427,48.714c4.4,4.529,5.538,7.452,8.085,15.572
					c1.546,4.929,7.353,20.778,8.8,25.191c-7.707,0.942-11.9,8.599-11.9,8.599s-13.551-20.025-20.08-31.806
					c-4.826-8.709-5.935-10.403-7.245-15.59c-1.31-5.187-2.235-9.997-3.821-20.83c-1.586-10.833-4.4-25.755-5.176-36.419
					c-0.776-10.664-0.922-21.967-0.922-21.967L429.135,186.877z"/>
			</g>
		</g>
		<g id="Top_1_">
			<g id="XMLID_4003_">
				<g>
					<path id="XMLID_4009_" style="fill:#E0E0E0;" d="M400.094,91.062c1.629-1.117,2.519-3.222,2.182-5.168
						c-0.185-1.071-0.707-2.107-0.593-3.188c0.158-1.502,1.549-2.636,3.017-2.99c1.511-0.364,2.99,0.219,4.455-0.032
						c1.152-0.198,2.292-0.604,3.473-0.775c2.445-0.352,4.938-0.45,7.398-0.186c4.867,0.523,9.523,2.595,12.528,6.568
						c0.987,1.305-12.635,26.906-11.962,32.216c-2.829-2.976-5.559-6.048-8.307-9.098c-2.703-3-6.328-6.105-7.879-9.906
						c-0.382-0.937-0.72-2.649-1.702-3.149c-0.535-0.273-1.166-0.279-1.763-0.219c-1.068,0.108-2.204,0.474-2.798,1.368
						c-0.594,0.894-0.279,2.387,0.766,2.636c-1.053-0.483-2.031-1.209-2.602-2.217c-0.57-1.008-0.669-2.326-0.057-3.31
						C397.068,92.297,398.794,91.944,400.094,91.062z"/>
					<path id="XMLID_4739_" style="opacity:0.1;" d="M400.094,91.062c1.629-1.117,2.519-3.222,2.182-5.168
						c-0.185-1.071-0.707-2.107-0.593-3.188c0.158-1.502,1.549-2.636,3.017-2.99c1.511-0.364,2.99,0.219,4.455-0.032
						c1.152-0.198,2.292-0.604,3.473-0.775c2.445-0.352,4.938-0.45,7.398-0.186c4.867,0.523,9.523,2.595,12.528,6.568
						c0.987,1.305-12.635,26.906-11.962,32.216c-2.829-2.976-5.559-6.048-8.307-9.098c-2.703-3-6.328-6.105-7.879-9.906
						c-0.382-0.937-0.72-2.649-1.702-3.149c-0.535-0.273-1.166-0.279-1.763-0.219c-1.068,0.108-2.204,0.474-2.798,1.368
						c-0.594,0.894-0.279,2.387,0.766,2.636c-1.053-0.483-2.031-1.209-2.602-2.217c-0.57-1.008-0.669-2.326-0.057-3.31
						C397.068,92.297,398.794,91.944,400.094,91.062z"/>
				</g>
				<g id="XMLID_4006_">
					<path id="XMLID_4008_" style="fill:#E0E0E0;" d="M403.073,99.291c0,0-3.729,6.096-3.317,6.593
						c0.412,0.497,2.763,1.827,2.763,1.827L403.073,99.291z"/>
					<path id="XMLID_1412_" style="opacity:0.1;" d="M403.073,99.291c0,0-3.729,6.096-3.317,6.593
						c0.412,0.497,2.763,1.827,2.763,1.827L403.073,99.291z"/>
					<path id="XMLID_4007_" style="fill:#E0E0E0;" d="M407.708,88.18c-2.502,1.182-4.673,3.102-5.451,8.596
						c-0.203,1.436,0.917,3.399,0.408,5.309c-2.179,8.177,0.407,14.995,1.998,16.5c1.074,1.015,6.69,1.466,9.637,0.646
						c3.687-1.028,11.695-4.644,15.515-10.407c4.493-6.78,5.544-15.896,0.54-19.556C423.315,84.117,410.379,86.918,407.708,88.18z"
						/>
					<path style="fill:#E0E0E0;" d="M426.864,112.689l1.459,10.101l0,0c2.253,0.483,2.468,3.15,1.347,5.171l0.522,2.839
						l-15.404,2.828l-1.726-14.124L426.864,112.689z"/>
					<path style="fill:#E0E0E0;" d="M404.962,118.791c1.306,0.725,4.187,1.261,8.1,0.715l-0.23-1.998c0,0-1.658,0.656-3.819,1.094
						C406.866,119.037,404.986,118.794,404.962,118.791z"/>
					<path style="opacity:0.1;" d="M404.962,118.791c1.306,0.725,4.187,1.261,8.1,0.715l-0.23-1.998c0,0-1.658,0.656-3.819,1.094
						C406.866,119.037,404.986,118.794,404.962,118.791z"/>
				</g>
				<g>
					<path id="XMLID_4005_" style="fill:#E0E0E0;" d="M400.547,93.773c0.086,0.698-0.069,1.415,0.003,2.118
						c0.171,1.676,1.88,1.858,3.255,1.765c3.137-0.212,2.747,0.577,3.234,3.039c0.357,1.805,1.043,3.284,2.819,3.881
						c1.088,0.366,1.408-0.114,1.795-0.971c0.552-1.219,1.243-3.09,3.861-2.73c3.002,0.413,3.793,4.932,2.044,7.892
						c-0.771,1.305-2.048,2.201-3.383,2.277c-1.196,0.068-2.043-0.964-2.043-0.964c0.481,0.586,0.528,2.217,0.531,2.944
						c0.006,1.398,0.204,2.89,1.099,4.02c1.136,1.435,3.067,1.903,4.696,2.738c1.843,0.946,4.127,2.39,6.172,1.063
						c0.656-0.426,1.178-1.076,1.916-1.333c1.465-0.509,2.964,0.73,4.515,0.775c0.913,0.026,1.828-0.396,2.4-1.108
						c0.403-0.502,0.641-1.13,1.095-1.586c0.732-0.736,1.85-0.871,2.863-1.1c1.012-0.229,2.129-0.728,2.399-1.73
						c0.261-0.97-0.396-2.023-0.099-2.983c0.273-0.886,1.238-1.34,2.121-1.624c0.883-0.284,1.864-0.556,2.382-1.325
						c0.301-0.447,0.397-1.002,0.405-1.541c0.017-1.114-0.319-2.231-0.948-3.151c-0.324-0.474-0.733-0.921-0.848-1.483
						c-0.312-1.539,1.496-3.556,1.992-4.982c0.224-0.642,0.41-1.311,0.391-1.991c-0.037-1.393-0.932-2.636-2.012-3.517
						c-1.988-1.623-4.991-2.221-5.154-5.231c-0.079-1.464,0.293-2.971-0.117-4.379c-0.398-1.365-1.561-2.478-2.941-2.815
						c-1.228-0.3-2.569-0.024-3.745-0.487c-1.296-0.509-2.091-1.781-2.972-2.859c-0.99-1.211-2.225-2.275-3.708-2.775
						c-1.482-0.5-3.237-0.358-4.455,0.624c-0.914,0.737-1.504,1.901-2.589,2.351c-1.802,0.747-3.691-0.863-5.632-1.056
						c-2.684-0.267-4.984,2.489-4.946,5.186c0.009,0.632,0.111,1.287-0.105,1.881c-0.374,1.028-1.566,1.511-2.655,1.61
						s-2.209-0.061-3.265,0.226c-2.224,0.604-3.529,3.421-2.551,5.508c0.605,1.291,1.898,2.254,2.154,3.657
						C400.532,93.661,400.54,93.717,400.547,93.773z"/>
					<path id="XMLID_4738_" style="opacity:0.1;" d="M400.547,93.773c0.086,0.698-0.069,1.415,0.003,2.118
						c0.171,1.676,1.88,1.858,3.255,1.765c3.137-0.212,2.747,0.577,3.234,3.039c0.357,1.805,1.043,3.284,2.819,3.881
						c1.088,0.366,1.408-0.114,1.795-0.971c0.552-1.219,1.243-3.09,3.861-2.73c3.002,0.413,3.793,4.932,2.044,7.892
						c-0.771,1.305-2.048,2.201-3.383,2.277c-1.196,0.068-2.043-0.964-2.043-0.964c0.481,0.586,0.528,2.217,0.531,2.944
						c0.006,1.398,0.204,2.89,1.099,4.02c1.136,1.435,3.067,1.903,4.696,2.738c1.843,0.946,4.127,2.39,6.172,1.063
						c0.656-0.426,1.178-1.076,1.916-1.333c1.465-0.509,2.964,0.73,4.515,0.775c0.913,0.026,1.828-0.396,2.4-1.108
						c0.403-0.502,0.641-1.13,1.095-1.586c0.732-0.736,1.85-0.871,2.863-1.1c1.012-0.229,2.129-0.728,2.399-1.73
						c0.261-0.97-0.396-2.023-0.099-2.983c0.273-0.886,1.238-1.34,2.121-1.624c0.883-0.284,1.864-0.556,2.382-1.325
						c0.301-0.447,0.397-1.002,0.405-1.541c0.017-1.114-0.319-2.231-0.948-3.151c-0.324-0.474-0.733-0.921-0.848-1.483
						c-0.312-1.539,1.496-3.556,1.992-4.982c0.224-0.642,0.41-1.311,0.391-1.991c-0.037-1.393-0.932-2.636-2.012-3.517
						c-1.988-1.623-4.991-2.221-5.154-5.231c-0.079-1.464,0.293-2.971-0.117-4.379c-0.398-1.365-1.561-2.478-2.941-2.815
						c-1.228-0.3-2.569-0.024-3.745-0.487c-1.296-0.509-2.091-1.781-2.972-2.859c-0.99-1.211-2.225-2.275-3.708-2.775
						c-1.482-0.5-3.237-0.358-4.455,0.624c-0.914,0.737-1.504,1.901-2.589,2.351c-1.802,0.747-3.691-0.863-5.632-1.056
						c-2.684-0.267-4.984,2.489-4.946,5.186c0.009,0.632,0.111,1.287-0.105,1.881c-0.374,1.028-1.566,1.511-2.655,1.61
						s-2.209-0.061-3.265,0.226c-2.224,0.604-3.529,3.421-2.551,5.508c0.605,1.291,1.898,2.254,2.154,3.657
						C400.532,93.661,400.54,93.717,400.547,93.773z"/>
				</g>
			</g>
			<g id="XMLID_1431_">
				<path id="XMLID_1616_" style="fill:#FAFAFA;" d="M440.437,131.047c-1.379-4.497-5.949-6.87-7.341-7.274
					c-1.392-0.404-4.772-0.983-4.772-0.983c0.78,1.785-0.54,2.957-2.847,3.494c-2.979,0.693-7.505,0.772-10.587-1.277l-1.263-0.781
					c0,0-7.753,1.978-9.946,2.995c-0.67,0.311-4.376,1.561-10.216,14.66c-2.497,5.601-1.749,11.294,2.832,15.331
					c0.259,3.553-1.669,11.241-1.669,11.241c-1.906,11.803-1.149,20.491-1.149,20.491s2.761,7.254,24.465,7.177
					c16.809-0.059,25.252-8.2,25.252-8.2c-0.2-4.137-6.663-18.538-6.023-23.376C438.175,157.452,444.648,144.778,440.437,131.047z"
					/>
			</g>
			<path id="Arm_9_" style="fill:#E0E0E0;" d="M403.68,127.222c4.42,3.593,4.764,8.539,4.074,15.211
				c-0.69,6.672-7.363,27.513-8.727,32.047c-1.363,4.535-3.335,6.12-6.788,9.784c-3.597,3.818-11.513,9.508-15.529,12.854
				c-1.858,1.548-3.521,3.159-5.282,4.847c-1.836,1.76-4.058,2.975-6.119,4.469c-0.952,0.689-2.201,1.074-3.369,1.17
				c-0.769,0.063-1.438-0.357-2.165-0.3c-0.753,0.058-1.315,0.635-2.164,0.495c-0.945-0.156-1.583-0.951-2.448-1.034
				c-0.905-0.087-1.833,0.068-2.76-0.135c-0.835-0.184-1.384-0.414-2.251-0.233c-0.711,0.148-1.799,0.841-2.461,0.252
				c-0.743-0.661-0.31-1.529,0.134-2.228c0.783-1.234,2.507-2.262,3.888-2.683c1.6-0.488,3.066-1.342,4.72-1.643
				c1.497-0.272,2.945-1.228,4.164-2.148c0.852-0.643,1.543-1.759,0.124-2.05c-1.672-0.343-3.873-0.109-5.194-1.462
				c-0.914-0.936-0.375-1.8,0.732-2.046c1.855-0.412,3.57-0.937,5.358-1.619c1.779-0.679,3.469-1.542,5.263-2.168
				c0.932-0.326,1.932-0.554,2.907-0.755c2.73-0.562,4.319-2.877,6.023-4.862c2.38-2.772,6.472-7.98,9.261-11.733
				c0-0.001,4.202-20.343,4.202-20.343C391.922,139.81,392.898,130.554,403.68,127.222z"/>
		</g>
	</g>
</g>
<g id="Character_4">
	<g id="Character_16_">
		<g id="Bottom_16_">
			<g id="Bottom_12_">
				<g id="XMLID_4827_">
					<g>
						<path style="fill:#E0E0E0;" d="M145.813,266.738c-0.554-0.241-1.014,1.151-0.876,1.935c0.398,2.253,2.56,5.237,6.41,7.492
							c3.85,2.255,12.315,3.783,14.804,4.484c2.489,0.7,6.327,3.319,8.648,4.505c4.228,2.16,7.683,1.912,9.606,0.95
							c0.754-0.377,1.078-1.189,1.291-1.909c0.505-1.709,0.467-2.1,0.274-2.147L145.813,266.738z"/>
						<g id="XMLID_4829_">
							<g id="XMLID_4850_">
								<path id="XMLID_4851_" style="fill:#E0E0E0;" d="M187.081,276.946c-0.176,1.774-0.799,4.628-1.583,6.242
									c-0.924,1.096-2.537,1.368-3.754,1.357c-3.213-0.029-6.015-1.129-9.004-2.851c-1.792-1.032-3.745-2.15-6.096-2.769
									c-2.583-0.681-8.364-1.92-10.922-2.71c-2.172-0.67-4.803-2.005-6.496-3.573c-1.43-1.324-3.419-3.878-3.566-5.364
									c0.433-3.227,1.331-4.941,3.421-5.406c2.208-0.492,4.93,0.15,8.685,1.057c1.124,0.272,2.529,0.656,3.136,0.781
									c2.298,0.473,4.425,0.977,6.143,1.414c1.471,0.374,2.916,0.725,4.439,0.434c0.726-0.139,1.299-0.335,1.794-0.883
									c0.603-0.667,0.962-1.807,1.665-1.652c0.001,0,11.862,6.188,12.844,6.62C188.921,270.142,187.613,271.57,187.081,276.946z"
									/>
							</g>
						</g>
						<g id="XMLID_4754_" style="opacity:0.1;">
							<g id="XMLID_4756_">
								<path id="XMLID_4856_" d="M187.081,276.946c-0.176,1.774-0.799,4.628-1.583,6.242c-0.924,1.096-2.537,1.368-3.754,1.357
									c-3.213-0.029-6.015-1.129-9.004-2.851c-1.792-1.032-3.745-2.15-6.096-2.769c-2.583-0.681-8.364-1.92-10.922-2.71
									c-2.172-0.67-4.803-2.005-6.496-3.573c-1.43-1.324-3.419-3.878-3.566-5.364c0.433-3.227,1.331-4.941,3.421-5.406
									c2.208-0.492,4.93,0.15,8.685,1.057c1.124,0.272,2.529,0.656,3.136,0.781c2.298,0.473,4.425,0.977,6.143,1.414
									c1.471,0.374,2.916,0.725,4.439,0.434c0.726-0.139,1.299-0.335,1.794-0.883c0.603-0.667,0.962-1.807,1.665-1.652
									c0.001,0,11.862,6.188,12.844,6.62C188.921,270.142,187.613,271.57,187.081,276.946z"/>
							</g>
						</g>
						<path style="fill:#FAFAFA;" d="M159.969,263.281c-0.444,0.124-0.98,0.513-1.28,0.799c-0.412,0.392-0.741,0.789-1.047,1.271
							c-0.374,0.587,0.375,0.969,0.921,0.334c0.374-0.435,0.773-0.935,1.463-1.452c0.33-0.247,0.965-0.504,1.341-0.426
							c0.284,0.06,0.656,0.139,0.656,0.139C162.007,263.416,160.559,263.116,159.969,263.281z"/>
						<path style="fill:#FAFAFA;" d="M165.847,264.45c-0.432-0.195-0.838-0.194-1.297-0.022c-0.542,0.202-0.964,0.596-1.317,1.038
							c-0.286,0.359-0.927,1.31-1.117,1.731c-0.179,0.397,0.794,0.696,1.045,0.282c0.247-0.409,0.724-1.161,1.052-1.566
							c0.202-0.25,1.053-1.168,1.756-1.061l0.308,0.08c0.049-0.142-0.111-0.302-0.234-0.378
							C165.979,264.515,165.914,264.48,165.847,264.45z"/>
						<path style="fill:#FAFAFA;" d="M169.2,265.426c-0.36,0.009-0.574-0.019-0.873,0.188c-0.282,0.194-0.646,0.538-0.839,0.826
							c-0.534,0.797-0.687,1.191-0.949,1.934c-0.185,0.525,0.825,0.698,0.973,0.354c0.464-1.084,0.701-1.815,1.495-2.46
							c0.655-0.531,1.115-0.605,1.115-0.605c0.004-0.103-0.135-0.161-0.233-0.176C169.736,265.465,169.356,265.422,169.2,265.426z"
							/>
					</g>
					<path id="XMLID_4828_" style="fill:#F0F0F0;" d="M192.484,256.476c0,0-3.724,11.302-4.859,13.88
						c-0.363,0.823-2.084,0.644-3.031,0.737c-0.947,0.092-2.441,0.241-3.383,0.719c-2.787,1.414-4.535,1.392-4.619-2.69
						c-0.017-0.836-0.396-1.317-1.416-1.451c-0.764-0.1-1.6-0.017-2.278-0.397c-0.088-0.109,0.035-0.259,0.145-0.345
						c0.856-0.651,1.326-1.086,1.701-2.652c1.162-4.84,1.766-9.007,3.031-14.948L192.484,256.476z"/>
				</g>
				<g>
					<path style="fill:#F0F0F0;" d="M237.408,274.283c-1.605-2.565-2.472-7.506-6.002-17.544l-13.737,11.262l8.145,12.944
						c0.427,0.733,0.442,1.835,0.591,2.05C228.153,285.509,237.408,274.283,237.408,274.283z"/>
					<g>
						<path style="fill:#E0E0E0;" d="M242.257,279.755c-0.02-0.148,0.059-1.358,0.021-1.503c-0.34-1.302-1.145-1.663-2.179-2.391
							c-1.281-0.902-2.523-1.983-2.852-2.439c-0.346-0.48-0.413-0.728-0.95-0.946c-0.915-0.372-2.387-0.402-4.199,0.55
							c-2.97,1.56-3.877,3.439-3.706,5.475c0.131,1.553,0.26,3.617-1.109,4.54c-0.57,0.384-1.469-2.096-1.469-2.096
							c-0.844,1.414,0.341,3.372,0.96,6.238c0.424,1.966,0.321,2.821,0.083,4.818c-0.3,2.515-0.648,2.505-1.983,2.68
							c-1.15,0.151-4.413-0.068-6.398,1.319c-2.735,1.91-2.004,4.453-2.004,4.453c0.354,0.967,3.329,5.658,14.198,3.906
							c3.153-0.508,9.776-5.465,9.675-5.928c-0.094-0.431,0.01-0.989,0.025-1.424c0.038-1.111,0.086-2.222,0.134-3.333
							c0.044-1.013-0.059-2.191,0.185-3.175c0.217-0.876,0.32-1.715,0.405-2.626c0.208-2.231,0.416-4.462,0.624-6.694
							C241.776,280.537,242.344,280.39,242.257,279.755z"/>
						<path style="opacity:0.1;" d="M242.257,279.755c-0.02-0.148,0.059-1.358,0.021-1.503c-0.34-1.302-1.145-1.663-2.179-2.391
							c-1.281-0.902-2.523-1.983-2.852-2.439c-0.346-0.48-0.413-0.728-0.95-0.946c-0.915-0.372-2.387-0.402-4.199,0.55
							c-2.97,1.56-3.877,3.439-3.706,5.475c0.131,1.553,0.26,3.617-1.109,4.54c-0.57,0.384-1.469-2.096-1.469-2.096
							c-0.844,1.414,0.341,3.372,0.96,6.238c0.424,1.966,0.321,2.821,0.083,4.818c-0.3,2.515-0.648,2.505-1.983,2.68
							c-1.15,0.151-4.413-0.068-6.398,1.319c-2.735,1.91-2.004,4.453-2.004,4.453c0.354,0.967,3.329,5.658,14.198,3.906
							c3.153-0.508,9.776-5.465,9.675-5.928c-0.094-0.431,0.01-0.989,0.025-1.424c0.038-1.111,0.086-2.222,0.134-3.333
							c0.044-1.013-0.059-2.191,0.185-3.175c0.217-0.876,0.32-1.715,0.405-2.626c0.208-2.231,0.416-4.462,0.624-6.694
							C241.776,280.537,242.344,280.39,242.257,279.755z"/>
						<path id="XMLID_4826_" style="fill:#E0E0E0;" d="M243.626,279.315c1.072,1.037,0.42,4.047-1.018,7.659
							c-0.638,1.602-1.826,4.361-1.477,7.293c0.349,2.932,0.41,4.318-0.345,5.691c-1.182,2.15-7.501,4.901-11.225,5.762
							c0,0,3.412-4.283,3.786-10.755c0.374-6.472,0.868-10.644,3.828-13.514C240.917,277.822,243.626,279.315,243.626,279.315z"/>
						<path id="XMLID_4869_" style="opacity:0.1;" d="M243.626,279.315c1.072,1.037,0.42,4.047-1.018,7.659
							c-0.638,1.602-1.826,4.361-1.477,7.293c0.349,2.932,0.41,4.318-0.345,5.691c-1.182,2.15-7.501,4.901-11.225,5.762
							c0,0,3.412-4.283,3.786-10.755c0.374-6.472,0.868-10.644,3.828-13.514C240.917,277.822,243.626,279.315,243.626,279.315z"/>
						<path id="XMLID_4825_" style="fill:#E0E0E0;" d="M216.471,300.452c0,0,2.18,4.084,10.589,3.95
							c3.31-0.052,5.082-1.665,5.163-6.697c0.098-6.064,0.586-12.188,2.547-15.198c1.961-3.01,5.085-4.47,7.508-4.255
							c0.421,0.067,0.953,0.469,1.348,1.062c0,0-2.425-0.797-6.198,2.334c-2.786,2.312-3.538,7.14-3.496,13.136
							c0.018,2.58,0.175,5.506-0.581,7.464c-0.697,1.805-2.241,3.041-4.015,3.539c-4.572,1.284-10.828-0.832-12.411-2.764
							C216.017,301.736,216.471,300.452,216.471,300.452z"/>
						<g>
							<path id="XMLID_4765_" style="fill:#FAFAFA;" d="M226.572,293.58c0,0-0.613,0.433-0.68,1.003
								c-0.067,0.57,0.13,1.887,1.325,2.633c0.506,0.316,0.948,0.205,0.144-0.857S226.572,293.58,226.572,293.58z"/>
							<path id="XMLID_4762_" style="fill:#FAFAFA;" d="M227.025,290.441c0,0-0.267,0.172-0.334,1.014
								c-0.036,0.452,0.667,2.272,1.552,2.706c0.885,0.434,0.406-0.587,0.023-1.087
								C227.844,292.525,227.102,291.277,227.025,290.441z"/>
							<path id="XMLID_4757_" style="fill:#FAFAFA;" d="M226.727,286.974c0,0-0.287,0.08,0.019,1.24
								c0.104,0.391,1.262,1.54,1.833,1.609c0.571,0.069,0.847-0.217,0.147-0.724C228.174,288.699,226.833,287.537,226.727,286.974z
								"/>
						</g>
					</g>
				</g>
				<g>
					<path id="XMLID_4915_" style="fill:#E0E0E0;" d="M201.451,144.675c0,0-5.687,6.815-9.125,19.562
						c-4.174,15.474-5.789,27.376-7.095,36.012c-0.82,5.426-1.424,9.299-2.899,19.183c-1.229,8.234-6.637,38.852-6.637,38.852
						s3.966,3.432,7.302,4.694c3.105,1.174,5.979,1.644,7.12,1.174c0,0,3.826-9.825,8.561-22.69
						c2.978-8.089,4.622-13.936,5.45-18.163c0.619-3.182,0.469-8.845,0.408-11.703l25.438-39.295c0,0,2.538-2.642,4.75-8.195
						c3.346-8.398-0.926-20.501-0.926-20.501L201.451,144.675z"/>
					<path style="fill:#E0E0E0;" d="M226.488,155.707h-31.244c-1.031,2.454-2.047,5.299-2.918,8.53
						c-3.733,13.839-5.418,24.812-6.667,33.156c0.76,5.115,1.62,10.36,2.417,13.979c2.098,9.53,3.41,16.263,5.071,20.197
						c1.658,3.926,5.648,9.499,5.664,9.522c2.889-7.891,4.501-13.632,5.316-17.792c0.619-3.182,0.469-8.845,0.409-11.703
						l18.476-28.541l1.436-8.842C229.17,166.518,228.645,160.748,226.488,155.707z"/>
					<path style="opacity:0.1;" d="M226.488,155.707h-31.244c-1.031,2.454-2.047,5.299-2.918,8.53
						c-3.733,13.839-5.418,24.812-6.667,33.156c0.76,5.115,1.62,10.36,2.417,13.979c2.098,9.53,3.41,16.263,5.071,20.197
						c1.658,3.926,5.648,9.499,5.664,9.522c2.889-7.891,4.501-13.632,5.316-17.792c0.619-3.182,0.469-8.845,0.409-11.703
						l18.476-28.541l1.436-8.842C229.17,166.518,228.645,160.748,226.488,155.707z"/>
				</g>
				<g>
					<path id="XMLID_4914_" style="fill:#E0E0E0;" d="M221.186,144.675c1.485,1.521,5.182,6.62,5.785,14.469
						c0.255,3.323-0.69,9.587-4.572,14.3c-1.187,17.408-4.629,50.936-4.629,50.936c4.601,4.736,5.791,7.792,8.454,16.282
						c1.616,5.154,6.856,21.292,8.568,26.547c-8.189,1.231-12.333,8.408-12.333,8.408s-13.646-20.563-20.473-32.88
						c-5.046-9.106-6.205-10.878-7.575-16.301c-1.37-5.423-2.337-10.453-3.995-21.781c-1.659-11.327-4.6-26.93-5.412-38.08
						c-0.812-11.15-0.964-22.969-0.964-22.969L221.186,144.675z"/>
				</g>
				<path style="opacity:0.18;" d="M235.943,158.318c-1.129-0.323-2.735-1.402-3.342-2.373c-0.365-0.584-0.585-1.414-0.864-2.465
					c-0.304-1.147-0.684-2.575-1.405-4.183l-0.86,0.385c0.689,1.54,1.042,2.868,1.353,4.041c0.3,1.127,0.536,2.018,0.976,2.721
					c0.721,1.154,2.588,2.461,4.061,2.813C235.895,158.945,235.922,158.632,235.943,158.318z"/>
				<path style="opacity:0.18;" d="M213.586,168.294c0.24-0.006,0.444-0.026,0.602-0.061c1.367-0.302,2.428-1.22,4.544-3.926
					c1.611-2.061,1.446-3.541,1.174-5.993c-0.1-0.9-1.049-5.712-1.108-6.981l-0.904,0.502c0.062,1.298,0.974,5.669,1.075,6.583
					c0.27,2.438,0.393,3.551-0.98,5.308c-1.957,2.502-2.892,3.34-4.005,3.586c-1.079,0.244-5.856-0.549-7.13-1.429
					c-0.735-0.511-1.967-6.802-2.687-12.337l-0.934,0.122c0.363,2.798,1.661,12.006,3.085,12.99
					C207.583,167.532,211.687,168.343,213.586,168.294z"/>
			</g>
		</g>
		<g id="Top_2_">
			<g>
				<path id="Arm_10_" style="fill:#F0F0F0;" d="M238.898,122.894c-0.001-0.001-9.395-19.118-9.395-19.118
					c-4.534-9.875-12.414-16.571-1.667-23.739c4.752-0.362,7.137,1.121,10.54,6.528c3.403,5.407,10.647,24.949,12.289,29.148
					c1.71,4.745,2.157,6.622,2.694,11.387c0.559,4.964-0.181,14.219-0.223,19.198c-0.019,2.304,0.127,4.503,0.27,6.822
					c0.149,2.418-0.337,4.78-0.521,7.198c-0.085,1.116-0.575,2.26-1.224,3.168c-0.428,0.598-1.145,0.825-1.552,1.388
					c-0.421,0.583-0.348,1.346-0.973,1.877c-0.695,0.59-1.666,0.564-2.259,1.142c-0.62,0.604-1.079,1.374-1.798,1.922
					c-0.647,0.493-1.153,0.751-1.555,1.492c-0.33,0.608-0.496,1.825-1.333,1.944c-0.938,0.133-1.302-0.716-1.536-1.469
					c-0.414-1.329-0.1-3.214,0.445-4.476c0.631-1.463,0.912-3.054,1.712-4.441c0.724-1.255,0.922-2.896,1.003-4.348
					c0.057-1.015-0.328-2.204-1.413-1.353c-1.279,1.003-2.464,2.747-4.26,2.874c-1.243,0.087-1.539-0.836-1.036-1.792
					c0.843-1.601,1.517-3.171,2.123-4.89c0.603-1.71,1.016-3.47,1.665-5.159c0.337-0.878,0.787-1.745,1.242-2.577
					c1.273-2.329,0.569-4.909,0.176-7.37C241.763,134.814,239.907,127.232,238.898,122.894z"/>
				<g>
					<path style="fill:#F0F0F0;" d="M226.187,79.531c4.025-0.268,8.054,0.145,10.74,4.174c2.686,4.029,7.543,13.652,10.641,22.831
						c-2.841,5.01-13.946,8.161-13.946,8.161l-6.316-13.017L226.187,79.531z"/>
					<path style="opacity:0.15;" d="M226.187,79.531c4.025-0.268,8.054,0.145,10.74,4.174c2.686,4.029,7.543,13.652,10.641,22.831
						c-2.841,5.01-13.946,8.161-13.946,8.161l-6.316-13.017L226.187,79.531z"/>
				</g>
			</g>
			<path style="fill:#FAFAFA;" d="M234.039,84.532c3.189,6.096,2.794,11.556,1.874,20.109c-0.849,7.887-1.443,12.773-2.17,22.529
				c-0.831,11.147,0.655,18.177,0.655,18.177s-0.316,4.723-14.213,8.263c-24.423,6.22-36.144-0.867-36.144-0.867
				s-0.589-13.755,0.358-31.748c1.061-20.155,1.413-23.105,2.97-27.9c1.146-2.648,3.313-5.03,6.249-6.363
				c2.424-1.101,8.229-3,11.677-4.331c8.02-3.095,17.29-2.902,17.29-2.902C229.539,79.031,232.383,81.367,234.039,84.532z"/>
			<g>
				<path id="XMLID_1615_" style="fill:#F0F0F0;" d="M204.692,76.161l0.656,6.75c4.057,0.884,13.918,0.25,15.769-2.271l-0.388-6.13
					L204.692,76.161z"/>
				<g id="XMLID_1451_">
					<g id="XMLID_1613_">
						<path id="XMLID_1614_" style="fill:#E0E0E0;" d="M194.123,57.156c0,0-1.883,1.424-3.312,6.347l2.79,2.046
							C194.52,62.092,195.511,58.57,194.123,57.156z"/>
					</g>
					<g id="XMLID_1456_">
						<path id="XMLID_1612_" style="fill:#F0F0F0;" d="M201.32,43.378c-5.207,0.346-8.004,5.007-7.056,15.883
							c-2.431,11.216,0.926,15.653,2.372,17.122c3.265,1.749,6.583,2.038,11.092,0.862c3.437-0.896,12.144-3.478,15.792-8.882
							c4.29-6.357,5.412-16.023,0.842-19.621C217.932,43.68,204.078,43.195,201.32,43.378z"/>
					</g>
					<path style="fill:#E0E0E0;" d="M196.636,76.384c0.801,0.812,5.435,2.28,8.291,1.967l-0.235-2.189
						C204.692,76.161,200.725,76.902,196.636,76.384z"/>
				</g>
				<g id="XMLID_1052_">
					<g id="XMLID_1442_">
						<g id="XMLID_1444_">
							<path id="XMLID_1446_" style="fill:#E0E0E0;" d="M201.005,51.045c0,0-0.108,1.397,0.672,2.47
								c0.78,1.073,1.69,1.745,2.877,2.069c-0.731,1.382-1.127,2.934-1.146,4.495c-0.006,0.49,0.033,1.008,0.31,1.419
								c0.488,0.724,1.31,0.654,1.69-0.018c0.455-0.807,0.773-1.646,1.409-2.346c0.736-0.81,1.741-1.424,2.846-1.531
								c4.178-0.407,4.195,6.098,2.519,8.301c-2.742,3.605-4.993,1.292-4.993,1.292s-1.41,5.56,2.619,7.968
								c0,0,6.546,2.246,10.975,0.003c3.893-4.156,7.708-8.937,9.079-13.085c2.983-9.024,1.199-14.79-2.792-16.308
								c-0.523-3.475-3.768-5.643-6.903-6.769c-4.272-1.535-8.418-0.189-12.783-0.224c-2.231-0.018-4.459-0.549-6.454-1.539
								c-0.887-0.44-1.976-0.968-2.795-0.427c-0.324,0.214-0.529,0.564-0.675,0.919c-0.518,1.264-0.391,2.768,0.334,3.939
								c-1.149-0.817-3.176-0.456-4.332,0.444c-1.662,1.294-1.924,2.833-1.339,4.989C192.485,48.444,195.191,52.694,201.005,51.045z
								"/>
						</g>
					</g>
					<path id="XMLID_4004_" style="opacity:0.1;" d="M201.005,51.045c0,0-0.108,1.397,0.672,2.47c0.78,1.073,1.69,1.745,2.877,2.069
						c-0.731,1.382-1.127,2.934-1.146,4.495c-0.006,0.49,0.033,1.008,0.31,1.419c0.488,0.724,1.31,0.654,1.69-0.018
						c0.455-0.807,0.773-1.646,1.409-2.346c0.736-0.81,1.741-1.424,2.846-1.531c4.178-0.407,4.195,6.098,2.519,8.301
						c-2.742,3.605-4.993,1.292-4.993,1.292s-1.41,5.56,2.619,7.968c0,0,6.546,2.246,10.975,0.003
						c3.893-4.156,7.708-8.937,9.079-13.085c2.983-9.024,1.199-14.79-2.792-16.308c-0.523-3.475-3.768-5.643-6.903-6.769
						c-4.272-1.535-8.418-0.189-12.783-0.224c-2.231-0.018-4.459-0.549-6.454-1.539c-0.887-0.44-1.976-0.968-2.795-0.427
						c-0.324,0.214-0.529,0.564-0.675,0.919c-0.518,1.264-0.391,2.768,0.334,3.939c-1.149-0.817-3.176-0.456-4.332,0.444
						c-1.662,1.294-1.924,2.833-1.339,4.989C192.485,48.444,195.191,52.694,201.005,51.045z"/>
				</g>
			</g>
			<g>
				<path id="Arm_8_" style="fill:#F0F0F0;" d="M174.15,131.19c0-0.001,2.497-12.523,4.318-21.303
					c1.821-8.78,1.117-18.923,14.937-22.397c2.285,3.487,3.776,8.83,3.005,15.494c-0.771,6.663-5.646,26.882-7.064,31.4
					c-1.722,5.008-3.322,6.726-7.058,11.294c-3.322,4.06-9.652,10.932-12.96,14.98c-1.531,1.873-2.858,3.769-4.266,5.761
					c-1.468,2.077-3.419,3.691-5.16,5.549c-0.804,0.858-1.957,1.472-3.086,1.788c-0.743,0.208-1.479-0.078-2.183,0.116
					c-0.728,0.2-1.17,0.873-2.031,0.896c-0.957,0.026-1.735-0.634-2.6-0.551c-0.905,0.087-1.787,0.415-2.735,0.391
					c-0.855-0.022-1.437-0.144-2.255,0.198c-0.67,0.281-1.606,1.167-2.369,0.715c-0.855-0.508-0.595-1.442-0.291-2.213
					c0.535-1.36,2.032-2.696,3.308-3.372c1.479-0.783,2.756-1.9,4.322-2.509c1.418-0.551,2.659-1.764,3.68-2.899
					c0.714-0.793,1.181-2.02-0.267-2.036c-1.706-0.02-3.824,0.628-5.377-0.45c-1.075-0.746-0.71-1.697,0.331-2.148
					c1.743-0.756,3.327-1.598,4.954-2.607c1.618-1.004,3.114-2.172,4.756-3.127c0.854-0.497,1.791-0.911,2.711-1.293
					c2.574-1.07,3.694-3.644,4.991-5.917C167.571,143.777,172.123,135.404,174.15,131.19z"/>
				<g>
					<path style="fill:#F0F0F0;" d="M193.972,86.577c-2.976,0.724-10.935,2.14-13.228,9.628c-2.293,7.487-4.789,23.608-4.789,23.608
						s1.847,3.238,7.905,4.587c6.058,1.349,9.026-0.337,9.026-0.337s3.612-15.784,4.234-19.763
						C197.742,100.319,198.095,89.967,193.972,86.577z"/>
					<path style="opacity:0.15;" d="M193.972,86.577c-2.976,0.724-10.935,2.14-13.228,9.628c-2.293,7.487-4.789,23.608-4.789,23.608
						s1.847,3.238,7.905,4.587c6.058,1.349,9.026-0.337,9.026-0.337s3.612-15.784,4.234-19.763
						C197.742,100.319,198.095,89.967,193.972,86.577z"/>
				</g>
			</g>
		</g>
	</g>
</g>
<g id="Character_3">
	<g id="Character_18_">
		<g id="Bottom_17_">
			<g>
				<path style="fill:#37474F;" d="M173.844,284.534c-1.627,0.008-3.456,1.335-3.831,2.212c0,0-0.947,2.822-0.947,6.573
					c0,3.751-0.881,7.493-3.057,10.836c-2.176,3.342-4.674,10.687-2.648,15.263c2.025,4.576,4.62,8.271,9.226,8.959
					c4.607,0.688,8.74-4.301,9.974-7.527L173.844,284.534z"/>
				<path style="fill:#F28F8F;" d="M164.944,316.663c-0.241-0.827-0.367-1.681-0.341-2.56c0.066-2.181,0.423-4.854,1.503-6.735
					c1.228-2.139,2.649-4.219,3.501-6.548c0.918-2.509,1.502-4.893,1.782-7.563c0.216-2.06,0.112-4.35,0.846-6.316
					c2.227-5.964,8.776-5.37,12.494-6.017l13.323-9.639l5.004,17.882c0,0-7.223,2.65-9.323,3.76c-2.781,1.47-5.359,5.007-7.035,7.53
					c-2.128,3.206-4.773,6.544-4.789,10.548c-0.009,2.174,0.497,4.313,0.944,6.441c0.127,0.605,0.25,1.224,0.185,1.839
					c-0.179,1.697-1.685,2.898-3.068,3.897c-2.241,1.619-4.934,3.323-7.577,2.515c-1.506-0.46-2.653-1.663-3.682-2.855
					C167.132,321.011,165.606,318.938,164.944,316.663z"/>
				<path style="fill:#455A64;" d="M182.562,312.341c0-1.862,0.491-4.803,1.806-7.081c1.317-2.281,4.224-6.906,5.518-8.161
					c1.294-1.254,2.472-1.633,2.051-2.053c-0.421-0.421-7.95-2.255-10.473-2.297c-2.523-0.042-2.846,1.5-4.192,2.635
					c0,0,2.082-2.872,2.082-5.637c0-2.044,0.848-7.54,4.298-8.449l1.104-0.373c0,0,0.099-0.83-1.343-0.493
					c-1.442,0.336-6.322,1.367-8.045,2.376c-1.723,1.009-3.742,2.229-4.246,5.929c-0.505,3.701,0.042,4.878-0.967,8.537
					c-1.009,3.659-1.64,5.219-3.953,9.317c-2.313,4.098-2.236,8.32-1.686,10.814L182.562,312.341z"/>
				<path style="fill:#37474F;" d="M258.833,213.121c0.07,6.551-1.232,25.212-5.683,41.962c-4.451,16.749-6.649,19.224-9.532,20.605
					c-12.789,6.126-47.01,15.964-47.01,15.964s-7.319-7.347-5.635-15.58c10.106-7.26,26.611-19.756,34.553-19.252L210.448,208.8
					L258.833,213.121z"/>
				<path style="fill:#F0F0F0;" d="M173.361,326.745c2.789,0,6.886-2.043,9.201-5.896c1.887-3.141,0.054-7.235,0-8.508
					c-0.252-0.489-3.547-1.846-9.283-0.955s-7.644,3.237-8.763,6.02C164.795,320.249,169.267,326.745,173.361,326.745z"/>
			</g>
			<g>
				<path style="fill:#F28F8F;" d="M267.932,344.239c-1.262,0.087-1.015-1.62-1.853-5.453c-0.838-3.834-3.504-20.391-3.504-20.391
					l-19.482,7.338c0,0,5.228,13.773,6.871,17.746c1.826,4.413,4.379,10.468,4.796,13.904c0.417,3.436,0.608,13.02,4.917,14.738
					c4.309,1.718,8.307-0.244,11.154-2.106c2.847-1.863,6.134-8.362,9.283-11.654c3.148-3.292,5.802-5.122,8.232-8.523
					c2.43-3.401,2.248-11.823-1.04-13.573c-3.288-1.749-7.96,0.251-10.71,1.902C273.844,339.817,270.271,344.078,267.932,344.239z"
					/>
				<path style="fill:#455A64;" d="M210.448,208.8c-5.799,13.617-7.689,27.095-1.661,38.356
					c6.029,11.261,10.903,17.971,24.27,43.521c0.033,5.736,0.15,11.447,4.344,22.207c5.214,13.376,10.922,27.75,10.922,27.75
					s5.281-8.641,16.991-7.182c-0.619-6.59-4.556-37.967-6.479-47.24c-2.394-11.544-11.691-51.043-11.691-51.043
					s10.906-7.064,10.906-22.22L210.448,208.8z"/>
				<g>
					<g>
						<path style="fill:#455A64;" d="M256.385,369.45c-0.918-2.543-1.502-5.289-1.941-10.32c-0.439-5.031-1.358-6.56-1.358-6.56
							s0.516-3.328,5.652-7.402c5.136-4.074,8.356-2.167,8.356-2.167s1.174,2.032,4.429-1.697l6.02,7.697L256.385,369.45z"/>
						<path style="fill:#F0F0F0;" d="M287.77,335.844c-1.921-1.828-4.979-1.798-9.038,0.225c-4.849,2.417-7.208,5.234-7.208,5.234
							s-2.141,3.891,1.103,6.534C275.87,350.48,287.77,335.844,287.77,335.844z"/>
						<path style="fill:#37474F;" d="M290.7,339.375c-0.309-1.422-0.847-2.297-1.549-2.751c-0.269-0.174-1.201-0.663-1.381-0.78
							c-2.387-1.55-6.67,1.784-10.28,5.057c-4.204,3.813-8.091,11.466-11.492,16.649c-3.401,5.183-7.624,7.176-9.019,9.461
							c-0.99,1.621-0.725,3.406,0.403,4.639c0.217,0.237,1.016,0.982,1.175,1.134c1.116,1.07,3.092,1.504,5.428,1.055
							c4.713-0.906,8.1-2.403,11.998-7.953c3.897-5.55,5.954-8.425,10.503-11.988C291.036,350.335,291.672,343.844,290.7,339.375z"
							/>
						<path style="fill:#263238;" d="M290.7,339.375c-1.361-6.264-7.159-1.92-11.828,2.313c-4.205,3.813-8.091,11.466-11.492,16.649
							c-3.401,5.183-7.727,7.116-9.019,9.461c-2.348,4.263,0.911,6.947,5.625,6.041c4.713-0.906,8.1-2.403,11.998-7.953
							c3.897-5.55,5.954-8.425,10.503-11.988C291.036,350.335,291.672,343.844,290.7,339.375z"/>
					</g>
					<path style="fill:#37474F;" d="M269.079,343.337c0,0,0-0.001,0-0.001c-1.422,0.633-1.984-0.336-1.984-0.336
						c-4.474,4.531-4.96,7.437-4.96,7.437S266.499,345.086,269.079,343.337z"/>
				</g>
				<path style="fill:#37474F;" d="M241.767,236.786c3.141,7.139,5.557,14.581,7.757,22.058c2.161,7.493,4.195,15.028,5.598,22.736
					c1.238,7.691,2.455,15.386,3.577,23.095c1.145,7.706,2.183,15.428,3.116,23.163c-1.57-7.634-3.034-15.281-4.392-22.944
					c-1.381-7.659-2.666-15.334-3.931-23.012c-0.621-3.824-1.532-7.593-2.409-11.378c-0.877-3.784-1.842-7.549-2.801-11.316
					c-0.978-3.762-1.982-7.518-3.055-11.255C244.187,244.184,243.032,240.472,241.767,236.786z"/>
			</g>
		</g>
		<g id="Top_26_">
			<g id="Top_17_">
				<g id="Arm_16_">
					<path style="fill:#455A64;" d="M255.259,154.222c6.568,1.012,7.696,2.684,17.418,11.09c7.93,6.856,13.984,9.772,13.984,9.772
						s8.227,10.001,8.565,11.945c0.338,1.944,1.014,6.342-2.863,8.794c-2.47,1.562-5.344,0.132-6.871,0.279
						c-3.192,0.306-5.15-2.285-6.478-3.075c-8.986-5.35-18.003-10.23-18.003-10.23L255.259,154.222z"/>
					<g>
						<g>
							<path style="fill:#FFA8A7;" d="M316.329,148.646c-1.346-0.797-1.589,0.447-2.05,0.612c0,0,1.384-1.592-0.935-2.968
								c-1.431-0.849-2.128,1.147-2.158,0.883c-0.013-0.118,1.726-4.192,3.139-7.652c1.341-3.285,0.181-4.22-0.355-4.482
								c-0.484-0.236-1.081-0.041-2.322,2.35c-1.223,2.357-4.899,9.543-5.727,11.029c-0.828,1.486-1.424,2.183-1.953,0.249
								c-0.496-1.814-0.947-3.53-2-4.636c-1.761-1.851-3.137-1.038-2.859,0.379c0.392,2,0.363,4.343,0.646,7.608
								c0.148,1.703,0.185,3.3,0.382,4.467c0.601,4.097-1.792,5.974-4.64,9.192c-2.329,2.632-4.728,4.786-10.076,10.07
								c-5.072,5.011-4.875,16.796,0.137,18.871c5.75,2.379,8.043-0.648,12.211-7.014c3.535-5.398,8.407-15.225,9.728-17.503
								c1.321-2.277,1.808-3.669,3.639-4.787c2.491-1.521,3.606-3.145,4.985-5.551c0.659-1.15,1.913-3.264,2.728-4.978
								c0.796-1.674,0.904-2.934-0.078-3.668c-1.333-0.998-1.723,0.483-1.859,0.326
								C316.777,151.288,318.246,149.781,316.329,148.646z"/>
						</g>
						<g>
							<g>
								<path style="fill:#F28F8F;" d="M306.02,151.474c1.86,1.826,3.177,6.765,2.373,10.024
									C310.722,158.09,309.401,153.059,306.02,151.474z"/>
							</g>
							<g>
								<path style="fill:#F28F8F;" d="M310.756,148.245c-1.086,2.017-2.133,4.227-1.861,5.119c0.271,0.892,0.931,1.357,1.667,1.163
									c0.737-0.194,1.163-0.634,1.163-0.634s-0.504,0.944-0.272,1.564c0.233,0.62,1.202,1.086,1.9,0.853
									c0.698-0.233,1.097-0.924,1.097-0.924s-0.454,1.195,0,1.855c0.454,0.659,1.772,0.579,2.315-0.195
									c-0.543,0.94-1.318,1.475-2.288,0.971s-0.737-1.241-0.737-1.241s-0.814,0.62-1.9-0.039
									c-1.086-0.659-1.024-1.354-1.008-1.829c-0.643,0.643-2.094,0.395-2.52-0.846c-0.426-1.241,0.016-2.133,0.803-3.567
									C309.903,149.06,310.756,148.245,310.756,148.245z"/>
							</g>
						</g>
					</g>
				</g>
				<g id="Chest_6_">
					<g>
						<path id="XMLID_5023_" style="fill:#FAFAFA;" d="M262.187,177.123c0.55-16.828-4.799-21.985-7.658-23.377l-11.79-3.105
							c-3.668,0.182-19.467,3.893-23.808,4.691c-2.794,0.514-4.802,5.972-6.728,14.711c-1.565,7.099-2.559,13.096-3.846,23.045
							c-1.078,8.337-2.328,17.832-1.566,29.768c18.527,6.907,36.475,10.762,51.147,0.857c-0.184-2.38,2.437-21.947,2.908-27.738
							C261.319,190.184,262.039,181.679,262.187,177.123z"/>
						<g>
							<g>
								<path style="fill:#BA68C8;" d="M213.874,155.615l17.216-3.977c0,0,1.038,4.009,3.396,11.758
									c2.357,7.748,1.979,11.044,0.367,23.686c-1.612,12.642-6.135,39.796-5.42,45.136c-5.667-0.081-23.872-4.229-26.889-6.793
									c0,0,2.859-20.653,4.37-33.596C208.425,178.885,207.013,158.285,213.874,155.615z"/>
								<path style="opacity:0.65;fill:#FFFFFF;" d="M213.874,155.615l17.216-3.977c0,0,1.038,4.009,3.396,11.758
									c2.357,7.748,1.979,11.044,0.367,23.686c-1.612,12.642-6.135,39.796-5.42,45.136c-5.667-0.081-23.872-4.229-26.889-6.793
									c0,0,2.859-20.653,4.37-33.596C208.425,178.885,207.013,158.285,213.874,155.615z"/>
							</g>
						</g>
						<g>
							<g>
								<path style="fill:#BA68C8;" d="M247.908,153.133c4.791,2.767,7.655,9.002,7.656,17.016
									c0.001,8.014-1.258,24.151-1.321,30.189c-0.064,6.038,1.258,27.408,1.258,27.408c2.534-1.112,4.914-2.972,5.568-6.543
									c-0.699-3.792,0.791-20.572,1.051-25.573c0.259-5.001,0.679-16.57,0.861-22.692s-0.817-13.91-5.678-18.363
									c-5.172-2.018-9.129-2.791-9.129-2.791L247.908,153.133z"/>
								<path style="opacity:0.65;fill:#FFFFFF;" d="M247.908,153.133c4.791,2.767,7.655,9.002,7.656,17.016
									c0.001,8.014-1.258,24.151-1.321,30.189c-0.064,6.038,1.258,27.408,1.258,27.408c2.534-1.112,4.914-2.972,5.568-6.543
									c-0.699-3.792,0.791-20.572,1.051-25.573c0.259-5.001,0.679-16.57,0.861-22.692s-0.817-13.91-5.678-18.363
									c-5.172-2.018-9.129-2.791-9.129-2.791L247.908,153.133z"/>
							</g>
							<g>
								<path style="fill:#BA68C8;" d="M255.417,174.752c0.188-5.868-1.504-16.677-7.421-19.737
									c-0.249-0.837-0.088-1.882-0.088-1.882l0.516-2.982c0,0,2.498,1.259,4.921,3.413c2.423,2.154,6.217,8.429,6.728,13.1
									C257.725,163.954,256.08,167.519,255.417,174.752z"/>
								<path style="opacity:0.45;fill:#FFFFFF;" d="M255.417,174.752c0.188-5.868-1.504-16.677-7.421-19.737
									c-0.249-0.837-0.088-1.882-0.088-1.882l0.516-2.982c0,0,2.498,1.259,4.921,3.413c2.423,2.154,6.217,8.429,6.728,13.1
									C257.725,163.954,256.08,167.519,255.417,174.752z"/>
							</g>
						</g>
					</g>
					<g id="Head_10_">
						<path style="fill:#263238;" d="M232.805,144.9c-0.454-4.111-4.257-8.594-5.875-12.25c-1.56-3.525-2.453-6.24-2.066-9.446
							c0.229-1.899,1.58-4.411,3.025-4.871c-1.223-7.177,4.284-10.155,7.145-10.663c1.098-0.195,2.908-0.489,3.968-0.862
							c1.572-0.552,1.99-1.767,3.288-2.745c2.235-1.685,5.825-1.517,7.032,1.3c1.524-1.751,3.444-1.592,5.633-0.898
							c2.087,0.662,2.988,2.516,2.658,4.456c3.066-1.49,5.67,0.766,5.841,2.529c0.126,1.3-0.211,2.371,0.565,3.574
							c0.874,1.355,2.671,1.438,3.276,0.419c0.201,1.848-0.595,3.201-2.574,2.985c0.626,1.031,0.729,2.341,0.314,3.523
							c-0.563,1.602-2.259,2.465-3.581,2.417c-0.269,0.992-0.365,1.91-1.046,2.739c-0.655,0.797-1.49,1.577-2.459,1.971
							c-3.088,1.257-6.439,1.53-9.714,2.011c-1.296,0.191-2.592,0.382-3.888,0.572c-0.226,0.033-1.391,0.036-1.54,0.227
							C242.806,131.89,232.805,144.9,232.805,144.9z"/>
						<g id="XMLID_5022_">
							<path style="fill:#FFA8A7;" d="M228.18,139.349c2.762,1.876,4.809,0.139,4.809,0.139l-0.797,8.187l-0.983,6.614
								c0,0,6.7,9.792,17.638,10.946c0.924-2.353,0.791-6.761-0.635-9.13l0.694-6.304c0,0,2.926,0.223,4.855,0.066
								c3.216-0.251,6.061-2.62,7.173-6.023c1.162-3.556,1.767-9.445,1.234-13.821c-0.136-1.117-0.158-2.251,0.022-3.363
								c0.48-2.951,0.047-4.71-0.575-7.248c-3.348-3.034-13.249-4.201-21.092-0.037c1.398,3.956,0.15,7.825-3.229,9.351
								c0.082,1.226,0.055,4.31-1.942,4.136c-1.439-0.125-1.43-1.939-2.816-3.617c-1.415-1.713-4.816-2.308-6.289-0.037
								C224.186,132.384,225.154,137.294,228.18,139.349z"/>
							<path style="fill:#F28F8F;" d="M248.906,149.8c-5.028-0.892-8.842-1.667-11.266-5.489c-1.52-2.397-2.701-6.179-2.701-6.179
								s0.257,4.514,1.732,7.648c1.137,2.415,4.153,4.548,12.051,5.694L248.906,149.8z"/>
						</g>
						<g id="XMLID_5006_">
							<path id="XMLID_5010_" style="fill:#263238;" d="M247.473,129.357c-0.059,0.817-0.744,1.431-1.529,1.372
								c-0.786-0.059-1.375-0.769-1.317-1.585c0.059-0.817,0.743-1.431,1.53-1.373C246.942,127.831,247.531,128.54,247.473,129.357z
								"/>
							<path id="XMLID_5009_" style="fill:#263238;" d="M246.646,125.046l-3.2,1.385c-0.365-0.916,0.057-1.969,0.941-2.351
								C245.27,123.697,246.281,124.13,246.646,125.046z"/>
							<path id="XMLID_5008_" style="fill:#263238;" d="M259.997,126.777l-3.328-1.126c0.278-0.938,1.249-1.447,2.168-1.136
								C259.756,124.826,260.276,125.838,259.997,126.777z"/>
							<path id="XMLID_5007_" style="fill:#263238;" d="M259.201,129.932c-0.059,0.817-0.743,1.431-1.53,1.372
								c-0.786-0.059-1.375-0.768-1.316-1.585c0.059-0.817,0.744-1.431,1.529-1.372C258.67,128.405,259.26,129.115,259.201,129.932z
								"/>
							<path style="fill:#F28F8F;" d="M257.778,135.273l-5.084,1.912l-0.964-9.808C253.609,126.826,255.72,131.43,257.778,135.273z"
								/>
						</g>
						<g>
							<path id="XMLID_5005_" style="fill:#B16668;" d="M247.044,139.148l5.884,1.62c-0.415,1.682-2.069,2.683-3.695,2.236
								C247.608,142.556,246.629,140.83,247.044,139.148z"/>
							<path style="fill:#F28F8F;" d="M247.708,140.16c-0.251-0.042-0.497-0.046-0.738-0.033c0.082,1.326,0.957,2.516,2.264,2.876
								c0.328,0.09,0.654,0.107,0.974,0.086C250.377,141.723,249.284,140.423,247.708,140.16z"/>
						</g>
					</g>
					<g>
						<path style="fill:#BA68C8;" d="M236.088,175.719c0.345-11.522-4.303-12.836-5.97-9.288c-3.166-6.79-2.528-12.108-2.139-14.208
							c1.42-1.77,2.549-3.27,3.035-3.944c0.643-0.892,1.177-0.604,1.177-0.604l-0.408,2.876c0,0,0.152,3.394,2.893,8.068
							C236.689,162.049,236.964,166.089,236.088,175.719z"/>
						<path style="opacity:0.45;fill:#FFFFFF;" d="M236.088,175.719c0.345-11.522-4.303-12.836-5.97-9.288
							c-3.166-6.79-2.528-12.108-2.139-14.208c1.42-1.77,2.549-3.27,3.035-3.944c0.643-0.892,1.177-0.604,1.177-0.604l-0.408,2.876
							c0,0,0.152,3.394,2.893,8.068C236.689,162.049,236.964,166.089,236.088,175.719z"/>
					</g>
				</g>
				<g id="Arm_15_">
					<path style="fill:#FFA8A7;" d="M202.484,249.769c-0.661-2.911-1.106-6.033-2.392-8.69c-1.535-3.172-2.461-3.77-3.015-8.048
						c-0.802-6.201,1.834-26.386,1.834-26.386c-5.066-3.546-10.984-4.428-17.549-3.287c-0.601,3.715-0.082,8.044,2.762,29.658
						c0.527,4.005-0.637,7.863-0.549,11.837c0.084,3.784,0.419,7.737,2.328,11.094c0.19,0.333,0.396,0.661,0.666,0.934
						c0.205,0.206,0.442,0.377,0.661,0.568c1.407,1.225,2.15,3.322,3.934,3.867c0.858,0.262,1.761,0.085,2.6-0.162
						c0.384-0.113,0.634-0.244,1.009-0.174c0.272,0.051,0.521,0.274,0.816,0.322c1.348,0.22,1.883-1.039,1.761-2.191
						c-0.219-2.058-1.482-4.752-2.022-7.646c-0.541-2.894-0.16-6.481,0.379-6.557c1.836-0.258,2.332,6.054,5.488,6.794
						C203.037,252.133,202.659,250.538,202.484,249.769z"/>
					<g>
						<path style="fill:#455A64;" d="M213.874,155.615c-4.74,0.835-7.57,1.441-10.828,3.929c-3.258,2.488-5.275,6.704-7.992,11.551
							c-2.717,4.847-4.616,8.084-7.533,13.923c-2.298,4.6-5.18,11.322-6.047,14.256c-0.867,2.934-0.737,3.82-0.735,4.603
							l18.662-0.351c0,0,13.646-24.437,14.817-26.263C215.389,175.438,219.209,159.671,213.874,155.615z"/>
					</g>
					<g>
						<path style="fill:#37474F;" d="M198.515,209.569c1.153-0.608,0.718-1.839,1.276-2.367c0.558-0.529,1.425-2.521,0.768-4.012
							c-0.657-1.491-2.422-4.321-8.512-6.432c-1.759-0.61-3.606-0.982-5.454-1.188c-1.546-0.172-3.431-0.402-4.859,0.364
							c-0.895,0.48-1.498,1.461-1.522,2.475c-0.009,0.381,0.054,0.782-0.104,1.13c-0.114,0.251-0.328,0.439-0.509,0.648
							c-0.302,0.349-0.522,0.796-0.49,1.255c0.048,0.687,0.618,1.202,0.971,1.794c0.435,0.728-0.11,1.732-0.051,2.578
							c0.088,1.259,0.665,1.46,1.13,1.548l-0.002-1.919c0,0,2.724-1.913,10.58-0.609c5.222,0.867,6.949,3.671,6.949,3.671
							L198.515,209.569z"/>
					</g>
				</g>
				<path style="fill:#37474F;" d="M287.033,174.162c0.378-0.859-2.001-1.116-3.081-0.586c-3.915,3.266-6.022,10.733-5.479,15.092
					c0.543,4.359,2.932,7.769,5.669,7.892c2.737,0.122,2.494,0.611,4.619,0.611c2.125,0,5.439-1.676,6.616-6.067
					c0,0-2.243,2.842-6.055,2.158c-3.812-0.684-4.691-8.014-4.496-11.142C285.021,178.992,286.406,175.587,287.033,174.162z"/>
			</g>
		</g>
	</g>
</g>
<g id="Character_2">
	<g id="Character_15_">
		<g id="Bottom">
			<g id="Bottom_15_">
				<g id="XMLID_4947_">
					<g>
						<path style="fill:#E0E0E0;" d="M255.655,419.431c-0.554-0.241-1.014,1.151-0.876,1.935c0.398,2.253,2.56,5.237,6.41,7.492
							c3.85,2.254,12.315,3.783,14.804,4.484c2.49,0.7,6.327,3.319,8.648,4.505c4.228,2.161,7.682,1.911,9.606,0.95
							c0.754-0.377,1.078-1.189,1.291-1.909c0.505-1.709,0.467-2.1,0.274-2.148L255.655,419.431z"/>
						<g id="XMLID_4991_">
							<g id="XMLID_4994_">
								<path id="XMLID_4998_" style="fill:#E0E0E0;" d="M296.924,429.639c-0.176,1.774-0.799,4.628-1.583,6.242
									c-0.924,1.095-2.537,1.368-3.754,1.357c-3.212-0.029-6.015-1.129-9.004-2.851c-1.792-1.032-3.745-2.15-6.096-2.769
									c-2.583-0.681-8.364-1.92-10.922-2.71c-2.172-0.67-4.803-2.005-6.496-3.573c-1.43-1.324-3.419-3.878-3.566-5.364
									c0.433-3.227,1.331-4.941,3.421-5.406c2.208-0.492,4.93,0.15,8.685,1.057c1.124,0.272,2.529,0.656,3.136,0.781
									c2.298,0.473,4.425,0.977,6.143,1.414c1.471,0.374,2.917,0.725,4.439,0.434c0.726-0.139,1.3-0.335,1.794-0.883
									c0.603-0.667,0.962-1.807,1.664-1.652c0.001,0,11.862,6.188,12.844,6.62C298.764,422.835,297.456,424.263,296.924,429.639z"
									/>
							</g>
						</g>
						<g id="XMLID_4978_" style="opacity:0.1;">
							<g id="XMLID_4979_">
								<path id="XMLID_4988_" d="M296.924,429.639c-0.176,1.774-0.799,4.628-1.583,6.242c-0.924,1.095-2.537,1.368-3.754,1.357
									c-3.212-0.029-6.015-1.129-9.004-2.851c-1.792-1.032-3.745-2.15-6.096-2.769c-2.583-0.681-8.364-1.92-10.922-2.71
									c-2.172-0.67-4.803-2.005-6.496-3.573c-1.43-1.324-3.419-3.878-3.566-5.364c0.433-3.227,1.331-4.941,3.421-5.406
									c2.208-0.492,4.93,0.15,8.685,1.057c1.124,0.272,2.529,0.656,3.136,0.781c2.298,0.473,4.425,0.977,6.143,1.414
									c1.471,0.374,2.917,0.725,4.439,0.434c0.726-0.139,1.3-0.335,1.794-0.883c0.603-0.667,0.962-1.807,1.664-1.652
									c0.001,0,11.862,6.188,12.844,6.62C298.764,422.835,297.456,424.263,296.924,429.639z"/>
							</g>
						</g>
						<path style="fill:#FAFAFA;" d="M269.812,415.974c-0.444,0.124-0.98,0.513-1.28,0.799c-0.412,0.392-0.741,0.789-1.047,1.271
							c-0.374,0.587,0.375,0.969,0.921,0.334c0.374-0.435,0.773-0.935,1.463-1.452c0.33-0.247,0.965-0.504,1.341-0.426
							c0.284,0.06,0.656,0.139,0.656,0.139C271.849,416.108,270.402,415.808,269.812,415.974z"/>
						<path style="fill:#FAFAFA;" d="M275.689,417.143c-0.432-0.195-0.838-0.194-1.297-0.022c-0.542,0.202-0.965,0.596-1.317,1.038
							c-0.286,0.359-0.927,1.31-1.117,1.731c-0.179,0.397,0.794,0.696,1.044,0.281c0.247-0.409,0.724-1.161,1.052-1.566
							c0.202-0.25,1.053-1.168,1.756-1.061l0.308,0.08c0.049-0.142-0.111-0.302-0.234-0.378
							C275.822,417.208,275.756,417.173,275.689,417.143z"/>
						<path style="fill:#FAFAFA;" d="M279.043,418.119c-0.36,0.009-0.574-0.019-0.873,0.188c-0.282,0.194-0.647,0.538-0.839,0.826
							c-0.534,0.797-0.687,1.191-0.949,1.934c-0.185,0.526,0.825,0.698,0.972,0.354c0.464-1.084,0.701-1.815,1.495-2.46
							c0.655-0.531,1.115-0.605,1.115-0.605c0.004-0.103-0.135-0.161-0.233-0.176C279.578,418.157,279.199,418.115,279.043,418.119z
							"/>
					</g>
					<path id="XMLID_4970_" style="fill:#F0F0F0;" d="M302.326,409.169c0,0-3.724,11.302-4.859,13.88
						c-0.363,0.824-2.084,0.644-3.031,0.737c-0.947,0.092-2.441,0.241-3.383,0.719c-2.787,1.415-4.535,1.392-4.619-2.69
						c-0.017-0.836-0.396-1.317-1.416-1.451c-0.764-0.1-1.6-0.017-2.277-0.397c-0.088-0.109,0.035-0.259,0.145-0.345
						c0.856-0.651,1.325-1.086,1.701-2.651c1.162-4.84,1.766-9.007,3.031-14.948L302.326,409.169z"/>
				</g>
				<g>
					<path style="fill:#F0F0F0;" d="M347.251,426.976c-1.605-2.565-2.472-7.506-6.002-17.544l-13.737,11.262l8.145,12.944
						c0.427,0.733,0.442,1.835,0.591,2.05C337.995,438.202,347.251,426.976,347.251,426.976z"/>
					<g>
						<path style="fill:#E0E0E0;" d="M352.099,432.448c-0.02-0.148,0.059-1.358,0.021-1.503c-0.34-1.303-1.145-1.663-2.179-2.391
							c-1.281-0.902-2.523-1.983-2.852-2.439c-0.346-0.48-0.413-0.728-0.95-0.946c-0.915-0.372-2.387-0.402-4.199,0.55
							c-2.97,1.56-3.876,3.439-3.706,5.475c0.13,1.553,0.26,3.617-1.109,4.54c-0.569,0.384-1.469-2.097-1.469-2.097
							c-0.844,1.415,0.341,3.372,0.96,6.238c0.424,1.966,0.321,2.821,0.083,4.818c-0.3,2.515-0.648,2.505-1.983,2.68
							c-1.15,0.151-4.413-0.068-6.398,1.319c-2.735,1.91-2.004,4.453-2.004,4.453c0.354,0.967,3.329,5.658,14.198,3.906
							c3.153-0.508,9.776-5.465,9.675-5.928c-0.094-0.431,0.01-0.989,0.025-1.424c0.038-1.111,0.086-2.222,0.134-3.333
							c0.044-1.013-0.059-2.191,0.185-3.175c0.217-0.876,0.32-1.715,0.405-2.626c0.208-2.231,0.416-4.463,0.624-6.694
							C351.618,433.23,352.186,433.082,352.099,432.448z"/>
						<path style="opacity:0.1;" d="M352.099,432.448c-0.02-0.148,0.059-1.358,0.021-1.503c-0.34-1.303-1.145-1.663-2.179-2.391
							c-1.281-0.902-2.523-1.983-2.852-2.439c-0.346-0.48-0.413-0.728-0.95-0.946c-0.915-0.372-2.387-0.402-4.199,0.55
							c-2.97,1.56-3.876,3.439-3.706,5.475c0.13,1.553,0.26,3.617-1.109,4.54c-0.569,0.384-1.469-2.097-1.469-2.097
							c-0.844,1.415,0.341,3.372,0.96,6.238c0.424,1.966,0.321,2.821,0.083,4.818c-0.3,2.515-0.648,2.505-1.983,2.68
							c-1.15,0.151-4.413-0.068-6.398,1.319c-2.735,1.91-2.004,4.453-2.004,4.453c0.354,0.967,3.329,5.658,14.198,3.906
							c3.153-0.508,9.776-5.465,9.675-5.928c-0.094-0.431,0.01-0.989,0.025-1.424c0.038-1.111,0.086-2.222,0.134-3.333
							c0.044-1.013-0.059-2.191,0.185-3.175c0.217-0.876,0.32-1.715,0.405-2.626c0.208-2.231,0.416-4.463,0.624-6.694
							C351.618,433.23,352.186,433.082,352.099,432.448z"/>
						<path id="XMLID_4942_" style="fill:#E0E0E0;" d="M353.468,432.008c1.072,1.037,0.42,4.047-1.017,7.659
							c-0.638,1.602-1.826,4.361-1.477,7.293c0.349,2.932,0.41,4.318-0.345,5.691c-1.182,2.15-7.501,4.901-11.225,5.762
							c0,0,3.412-4.283,3.786-10.755c0.374-6.472,0.868-10.644,3.828-13.514C350.76,430.515,353.468,432.008,353.468,432.008z"/>
						<path id="XMLID_4940_" style="opacity:0.1;" d="M353.468,432.008c1.072,1.037,0.42,4.047-1.017,7.659
							c-0.638,1.602-1.826,4.361-1.477,7.293c0.349,2.932,0.41,4.318-0.345,5.691c-1.182,2.15-7.501,4.901-11.225,5.762
							c0,0,3.412-4.283,3.786-10.755c0.374-6.472,0.868-10.644,3.828-13.514C350.76,430.515,353.468,432.008,353.468,432.008z"/>
						<path id="XMLID_4939_" style="fill:#E0E0E0;" d="M326.313,453.145c0,0,2.18,4.084,10.589,3.951
							c3.31-0.053,5.082-1.665,5.163-6.697c0.098-6.064,0.586-12.188,2.547-15.198c1.961-3.01,5.085-4.47,7.508-4.255
							c0.421,0.067,0.953,0.469,1.348,1.062c0,0-2.425-0.797-6.198,2.334c-2.786,2.312-3.539,7.14-3.496,13.136
							c0.018,2.58,0.175,5.506-0.581,7.464c-0.697,1.805-2.241,3.041-4.015,3.539c-4.572,1.284-10.828-0.832-12.41-2.764
							C325.859,454.429,326.313,453.145,326.313,453.145z"/>
						<g>
							<path id="XMLID_4938_" style="fill:#FAFAFA;" d="M336.415,446.273c0,0-0.613,0.433-0.68,1.003
								c-0.067,0.57,0.13,1.887,1.325,2.633c0.506,0.316,0.948,0.205,0.144-0.857C336.399,447.99,336.415,446.273,336.415,446.273z"
								/>
							<path id="XMLID_4937_" style="fill:#FAFAFA;" d="M336.867,443.134c0,0-0.267,0.172-0.334,1.015
								c-0.036,0.452,0.667,2.272,1.552,2.706c0.885,0.434,0.406-0.587,0.023-1.088
								C337.687,445.218,336.944,443.969,336.867,443.134z"/>
							<path id="XMLID_4936_" style="fill:#FAFAFA;" d="M336.569,439.667c0,0-0.287,0.08,0.019,1.24
								c0.103,0.391,1.262,1.54,1.833,1.609c0.571,0.069,0.847-0.217,0.147-0.724C338.017,441.391,336.676,440.229,336.569,439.667z
								"/>
						</g>
					</g>
				</g>
				<g>
					<path id="XMLID_4912_" style="fill:#E0E0E0;" d="M311.293,297.367c0,0-5.687,6.815-9.125,19.562
						c-4.174,15.474-5.789,27.376-7.095,36.012c-0.82,5.426-1.424,9.299-2.899,19.183c-1.229,8.234-6.637,38.852-6.637,38.852
						s3.966,3.432,7.302,4.694c3.105,1.174,5.979,1.644,7.12,1.174c0,0,3.826-9.825,8.562-22.69
						c2.978-8.089,4.622-13.936,5.45-18.163c0.619-3.182,0.469-8.845,0.409-11.703l25.438-39.295c0,0,2.538-2.642,4.75-8.195
						c3.346-8.399-0.926-20.501-0.926-20.501L311.293,297.367z"/>
					<path id="XMLID_4002_" style="opacity:0.15;" d="M311.293,297.367c0,0-5.687,6.815-9.125,19.562
						c-4.174,15.474-5.789,27.376-7.095,36.012c-0.82,5.426-1.424,9.299-2.899,19.183c-1.229,8.234-6.637,38.852-6.637,38.852
						s3.966,3.432,7.302,4.694c3.105,1.174,5.979,1.644,7.12,1.174c0,0,3.826-9.825,8.562-22.69
						c2.978-8.089,4.622-13.936,5.45-18.163c0.619-3.182,0.469-8.845,0.409-11.703l25.438-39.295c0,0,2.538-2.642,4.75-8.195
						c3.346-8.399-0.926-20.501-0.926-20.501L311.293,297.367z"/>
					<path style="opacity:0.1;" d="M336.33,308.4h-31.244c-1.031,2.454-2.047,5.3-2.918,8.53
						c-3.733,13.839-5.418,24.812-6.667,33.156c0.76,5.115,1.62,10.36,2.417,13.979c2.098,9.53,3.41,16.263,5.071,20.197
						c1.658,3.926,5.648,9.499,5.664,9.522c2.889-7.892,4.501-13.632,5.316-17.792c0.619-3.182,0.469-8.845,0.408-11.703
						l18.476-28.541l1.437-8.842C339.012,319.211,338.488,313.441,336.33,308.4z"/>
				</g>
				<g>
					<path id="XMLID_4911_" style="fill:#E0E0E0;" d="M331.028,297.367c1.486,1.521,5.182,6.62,5.786,14.468
						c0.255,3.323-0.69,9.587-4.572,14.3c-1.187,17.408-4.628,50.936-4.628,50.936c4.6,4.736,5.791,7.792,8.454,16.282
						c1.616,5.154,6.856,21.292,8.569,26.547c-8.189,1.231-12.333,8.408-12.333,8.408s-13.647-20.563-20.473-32.88
						c-5.047-9.106-6.205-10.878-7.575-16.301c-1.37-5.423-2.337-10.453-3.996-21.78c-1.659-11.327-4.6-26.93-5.412-38.08
						s-0.964-22.969-0.964-22.969L331.028,297.367z"/>
				</g>
				<g style="opacity:0.15;">
					<path id="XMLID_1425_" d="M331.028,297.367c1.486,1.521,5.182,6.62,5.786,14.468c0.255,3.323-0.69,9.587-4.572,14.3
						c-1.187,17.408-4.628,50.936-4.628,50.936c4.6,4.736,5.791,7.792,8.454,16.282c1.616,5.154,6.856,21.292,8.569,26.547
						c-8.189,1.231-12.333,8.408-12.333,8.408s-13.647-20.563-20.473-32.88c-5.047-9.106-6.205-10.878-7.575-16.301
						c-1.37-5.423-2.337-10.453-3.996-21.78c-1.659-11.327-4.6-26.93-5.412-38.08s-0.964-22.969-0.964-22.969L331.028,297.367z"/>
				</g>
				<path style="opacity:0.18;" d="M345.786,311.011c-1.129-0.323-2.735-1.402-3.342-2.373c-0.365-0.584-0.585-1.414-0.864-2.464
					c-0.305-1.147-0.684-2.576-1.405-4.183l-0.86,0.385c0.689,1.54,1.042,2.868,1.353,4.041c0.3,1.127,0.536,2.018,0.976,2.721
					c0.721,1.155,2.588,2.461,4.06,2.813C345.737,311.638,345.765,311.325,345.786,311.011z"/>
				<path style="opacity:0.18;" d="M323.429,320.986c0.24-0.006,0.444-0.026,0.602-0.061c1.367-0.302,2.429-1.22,4.544-3.926
					c1.611-2.061,1.446-3.541,1.174-5.993c-0.1-0.9-1.049-5.712-1.108-6.981l-0.904,0.502c0.062,1.298,0.974,5.669,1.075,6.582
					c0.27,2.438,0.393,3.551-0.98,5.309c-1.957,2.502-2.892,3.34-4.005,3.586c-1.079,0.244-5.856-0.549-7.13-1.429
					c-0.735-0.511-1.967-6.802-2.686-12.337l-0.935,0.122c0.363,2.798,1.661,12.006,3.085,12.99
					C317.426,320.225,321.53,321.036,323.429,320.986z"/>
			</g>
		</g>
		<g id="Top_13_">
			<g>
				<path id="Arm_13_" style="fill:#F0F0F0;" d="M348.74,275.587c-0.001-0.001-9.395-19.118-9.395-19.118
					c-4.534-9.875-12.414-16.571-1.667-23.739c4.752-0.362,7.137,1.121,10.54,6.528c3.403,5.407,10.647,24.948,12.289,29.148
					c1.71,4.745,2.157,6.622,2.694,11.387c0.559,4.964-0.181,14.219-0.223,19.198c-0.019,2.304,0.127,4.503,0.27,6.822
					c0.149,2.418-0.337,4.78-0.521,7.198c-0.085,1.116-0.574,2.26-1.224,3.168c-0.428,0.598-1.145,0.825-1.552,1.388
					c-0.421,0.583-0.348,1.346-0.973,1.877c-0.695,0.59-1.666,0.564-2.259,1.142c-0.62,0.604-1.079,1.374-1.798,1.922
					c-0.647,0.493-1.153,0.75-1.556,1.492c-0.33,0.608-0.496,1.825-1.332,1.944c-0.938,0.133-1.302-0.716-1.536-1.47
					c-0.414-1.329-0.1-3.214,0.445-4.476c0.631-1.463,0.912-3.054,1.712-4.441c0.724-1.255,0.922-2.896,1.003-4.348
					c0.057-1.015-0.328-2.204-1.413-1.353c-1.279,1.003-2.464,2.747-4.26,2.874c-1.243,0.087-1.539-0.836-1.036-1.792
					c0.843-1.601,1.517-3.171,2.123-4.89c0.602-1.711,1.016-3.47,1.665-5.159c0.337-0.878,0.787-1.745,1.242-2.577
					c1.273-2.329,0.569-4.909,0.176-7.37C351.606,287.507,349.75,279.925,348.74,275.587z"/>
				<g>
					<path style="fill:#F0F0F0;" d="M336.03,232.223c4.025-0.268,8.054,0.145,10.74,4.174c2.686,4.029,7.543,13.652,10.641,22.831
						c-2.841,5.01-13.946,8.161-13.946,8.161l-6.316-13.017L336.03,232.223z"/>
					<path style="opacity:0.15;" d="M336.03,232.223c4.025-0.268,8.054,0.145,10.74,4.174c2.686,4.029,7.543,13.652,10.641,22.831
						c-2.841,5.01-13.946,8.161-13.946,8.161l-6.316-13.017L336.03,232.223z"/>
				</g>
			</g>
			<path style="fill:#E0E0E0;" d="M343.881,237.225c3.189,6.096,2.794,11.556,1.874,20.109c-0.849,7.887-1.443,12.773-2.17,22.529
				c-0.83,11.146,0.655,18.177,0.655,18.177s-0.316,4.723-14.213,8.263c-24.423,6.22-36.144-0.867-36.144-0.867
				s-0.589-13.755,0.358-31.748c1.061-20.155,1.413-23.105,2.97-27.9c1.146-2.648,3.313-5.03,6.248-6.363
				c2.424-1.101,8.23-3,11.677-4.331c8.02-3.095,17.29-2.902,17.29-2.902C339.382,231.724,342.225,234.06,343.881,237.225z"/>
			<g>
				<path id="XMLID_4910_" style="fill:#F0F0F0;" d="M314.535,228.189l0.656,7.415c4.057,0.884,13.918,0.25,15.769-2.27
					l-0.388-6.795L314.535,228.189z"/>
				<g id="XMLID_4882_">
					<g id="XMLID_4901_">
						<path id="XMLID_4909_" style="fill:#E0E0E0;" d="M303.966,209.184c0,0-1.884,1.424-3.312,6.347l2.79,2.046
							C304.363,214.12,305.353,210.598,303.966,209.184z"/>
					</g>
					<g id="XMLID_4899_">
						<path id="XMLID_4900_" style="fill:#F0F0F0;" d="M311.162,195.406c-6.927,0.461-8.085,4.07-7.056,15.883
							c-2.431,11.216,0.926,15.653,2.372,17.122c3.265,1.749,6.583,2.038,11.093,0.862c3.437-0.896,12.144-3.478,15.792-8.882
							c4.29-6.357,5.412-16.023,0.842-19.621C327.775,195.708,313.92,195.223,311.162,195.406z"/>
					</g>
					<path style="fill:#E0E0E0;" d="M306.478,228.412c0.801,0.812,5.435,2.28,8.291,1.967l-0.235-2.189
						C314.535,228.189,310.568,228.931,306.478,228.412z"/>
				</g>
				<g id="XMLID_1617_">
					<g id="XMLID_4874_">
						<g id="XMLID_4878_">
							<path id="XMLID_4880_" style="fill:#E0E0E0;" d="M311.46,203.264c0.003,0.311,0.017,0.621,0.053,0.93
								c0.199,1.735,1.188,2.954,2.884,3.417c-0.731,1.382-1.127,2.934-1.146,4.495c-0.006,0.49,0.033,1.008,0.31,1.419
								c0.488,0.725,1.311,0.654,1.69-0.018c0.455-0.807,0.773-1.646,1.409-2.346c0.736-0.81,1.741-1.424,2.846-1.531
								c4.178-0.406,4.195,6.098,2.519,8.301c-2.742,3.605-4.993,1.291-4.993,1.291s-1.41,5.56,2.619,7.968
								c0,0,6.546,2.246,10.975,0.003c2.028-4.173,4.709-7.264,6.886-11.706c3.809-7.773,1.816-14.309-0.779-15.713
								c0.415-1.61-2.386-6.471-7.081-8.686c-3.679-1.736-9.488-2.322-13.446-1.43c-4.99,1.124-10.129,4.385-11.315,9.02
								c2.173,1.441,4.434,1.716,5.96,1.89c0.25,0.029,0.485,0.211,0.586,0.441c0.057,0.13,0.059,0.277,0.058,0.418
								C311.492,202.04,311.454,202.654,311.46,203.264z"/>
						</g>
					</g>
				</g>
			</g>
			<g>
				<path id="Arm_12_" style="fill:#F0F0F0;" d="M283.992,283.883c0-0.001,2.497-12.523,4.318-21.303
					c1.821-8.78,1.117-18.923,14.937-22.397c2.285,3.487,3.776,8.83,3.005,15.493c-0.771,6.663-5.646,26.883-7.064,31.4
					c-1.722,5.008-3.322,6.726-7.059,11.294c-3.321,4.06-9.652,10.932-12.96,14.98c-1.531,1.873-2.858,3.769-4.266,5.761
					c-1.468,2.077-3.419,3.691-5.16,5.549c-0.804,0.858-1.957,1.472-3.086,1.788c-0.743,0.208-1.479-0.078-2.183,0.116
					c-0.728,0.2-1.17,0.873-2.03,0.896c-0.957,0.026-1.735-0.634-2.6-0.551c-0.905,0.087-1.787,0.415-2.735,0.391
					c-0.854-0.022-1.437-0.144-2.255,0.198c-0.67,0.281-1.606,1.167-2.369,0.715c-0.855-0.508-0.595-1.442-0.291-2.213
					c0.535-1.36,2.032-2.696,3.308-3.371c1.478-0.783,2.755-1.9,4.322-2.509c1.418-0.551,2.659-1.764,3.68-2.899
					c0.714-0.793,1.181-2.02-0.267-2.036c-1.706-0.02-3.824,0.628-5.377-0.45c-1.075-0.746-0.71-1.697,0.331-2.148
					c1.743-0.756,3.327-1.598,4.954-2.607c1.618-1.004,3.114-2.172,4.756-3.127c0.854-0.497,1.791-0.911,2.711-1.293
					c2.574-1.07,3.694-3.644,4.991-5.917C277.414,296.47,281.966,288.097,283.992,283.883z"/>
				<g>
					<path style="fill:#F0F0F0;" d="M303.815,239.269c-2.976,0.724-10.935,2.14-13.228,9.628
						c-2.293,7.487-4.789,23.608-4.789,23.608s1.847,3.238,7.905,4.587c6.058,1.349,9.026-0.337,9.026-0.337
						s3.612-15.784,4.234-19.763C307.584,253.012,307.937,242.66,303.815,239.269z"/>
					<path style="opacity:0.15;" d="M303.815,239.269c-2.976,0.724-10.935,2.14-13.228,9.628
						c-2.293,7.487-4.789,23.608-4.789,23.608s1.847,3.238,7.905,4.587c6.058,1.349,9.026-0.337,9.026-0.337
						s3.612-15.784,4.234-19.763C307.584,253.012,307.937,242.66,303.815,239.269z"/>
				</g>
			</g>
		</g>
	</g>
</g>
<g id="Character_1">
	<g id="Character_12_">
		<path id="Arm_1_" style="fill:#F0F0F0;" d="M108.882,167.712c7.009,1.374,9.748,1.845,13.105,7.652
			c3.358,5.807,9.053,27.404,10.611,31.875c1.558,4.471,2.028,6.105,1.384,11.098c-0.671,5.202-3.739,14.455-5.026,19.522
			c-0.595,2.344-0.996,4.624-1.431,7.025c-0.453,2.503-1.538,4.791-2.331,7.21c-0.366,1.117-1.151,2.161-2.041,2.925
			c-0.586,0.503-1.373,0.555-1.929,1.028c-0.575,0.489-0.692,1.286-1.461,1.671c-0.856,0.428-1.84,0.159-2.589,0.6
			c-0.784,0.461-1.444,1.132-2.314,1.51c-0.784,0.341-1.363,0.477-1.959,1.133c-0.489,0.538-0.962,1.737-1.845,1.649
			c-0.99-0.099-1.148-1.055-1.2-1.883c-0.09-1.459,0.702-3.302,1.573-4.454c1.009-1.334,1.694-2.887,2.856-4.101
			c1.052-1.099,1.664-2.723,2.11-4.183c0.312-1.021,0.216-2.33-1.103-1.733c-1.555,0.704-3.2,2.186-5.063,1.865
			c-1.289-0.221-1.36-1.237-0.608-2.086c1.26-1.422,2.34-2.854,3.387-4.457c1.042-1.594,1.904-3.285,2.988-4.845
			c0.564-0.811,1.239-1.583,1.91-2.318c1.88-2.057,1.807-4.865,2.022-7.472c0.3-3.641,0.501-7.29,0.677-10.939
			c0.024-0.488,0.286-1.549,0.093-2.013c-0.001-0.001-8.699-20.919-8.699-20.919L108.882,167.712z"/>
		<g id="Bottom_13_">
			<g>
				<path style="fill:#E0E0E0;" d="M61.526,330.148c2.41-0.847,4.196-0.931,4.172,0.263c-0.025,1.194-1.549,4.224-1.549,4.224
					l-1.915,2.634l-0.917,2.61c0,0-1.122,1.398-1.191,1.498c-0.069,0.1-0.443-4.852-0.443-4.852S58.325,330.767,61.526,330.148z"/>
				<path style="opacity:0.2;" d="M61.526,330.148c2.41-0.847,4.196-0.931,4.172,0.263c-0.025,1.194-1.549,4.224-1.549,4.224
					l-1.915,2.634l-0.917,2.61c0,0-1.122,1.398-1.191,1.498c-0.069,0.1-0.443-4.852-0.443-4.852S59.454,330.9,61.526,330.148z"/>
			</g>
			<g>
				<path id="XMLID_4872_" style="fill:#E0E0E0;" d="M87.416,228.44c0,0-5.439,6.518-8.727,18.709
					c-3.992,14.799-5.536,26.182-6.785,34.441c-0.785,5.19-1.362,8.894-2.773,18.347c-1.175,7.875-7.089,35.51-7.089,35.51
					s2.601,4.319,5.748,5.634c4.523,1.891,8.887,1.032,9.454-3.007c0,0,2.991-4.766,7.52-17.069
					c2.848-7.736,4.42-13.328,5.212-17.371c0.592-3.043,0.449-8.459,0.391-11.193l21.936-38.131c0,0,5.412-3.751,7.374-9.12
					c3.013-8.245-1.371-19.28-1.371-19.28L87.416,228.44z"/>
				<g>
					<path style="fill:#F0F0F0;" d="M64.816,349.289l-0.982-0.189c0.073-0.377,7.36-37.88,12.463-53.625
						c5.101-15.738,18.448-47.045,18.582-47.36l0.92,0.393c-0.134,0.314-13.464,31.58-18.551,47.276
						C72.163,311.47,64.888,348.913,64.816,349.289z"/>
				</g>
				<path style="opacity:0.18;" d="M111.361,238.991H81.48c-0.986,2.347-1.957,5.068-2.791,8.158
					c-3.57,13.235-5.181,23.73-6.376,31.71c0.727,4.892,1.549,9.908,2.311,13.369c2.007,9.115,3.261,15.553,4.85,19.316
					c1.586,3.755,5.401,9.085,5.417,9.106c2.763-7.547,4.305-13.038,5.084-17.016c0.592-3.043,0.448-8.459,0.391-11.193
					l17.771-30.891v0l1.273-4.862C113.926,249.331,113.425,243.812,111.361,238.991z"/>
			</g>
			<g>
				<path style="fill:#E0E0E0;" d="M37.087,342.307c-0.536-0.248-1.187,1.851-1.241,2.604c-0.055,0.753,1.384,3.819,5.106,6.07
					c3.722,2.251,10.162,3.522,12.574,4.283c2.413,0.76,4.337,2.681,7.512,4.281c2.822,1.422,7.084,2.094,8.943,1.263
					c0.912-0.407,1.146-1.347,1.358-1.999c0.505-1.545,0.471-1.905,0.283-1.958L37.087,342.307z"/>
				<path id="XMLID_3987_" style="fill:#E0E0E0;" d="M72.907,353.429c-0.251,1.609-0.774,3.061-1.548,4.506
					c-0.906,0.962-2.662,1.04-3.845,0.973c-3.12-0.178-5.206-1.109-8.096-2.83c-1.732-1.032-3.621-2.149-5.9-2.829
					c-2.504-0.747-6.036-1.542-8.398-2.666c-2.018-0.961-3.99-1.933-5.623-3.452c-1.379-1.283-2.643-2.748-2.508-4.54
					c0.955-3.019,3.032-3.879,5.067-4.207c2.149-0.347,4.497,0.444,6.616,0.999c2.626,0.687,3.531,1.184,6.343,1.403
					c1.48,0.115,3.22,1.339,4.373,0.064c1.362-1.506,1.905-5.071,2.822-6.836c0.15-0.288,0.346-0.597,0.663-0.671
					c0.456-0.106,0.843,0.323,1.129,0.694c1.356,1.764,3.018,2.91,5.006,3.892c5.299,2.615,7.746,1.239,7.746,1.239l0.489-1.093
					c0,0,1.055,0.589-0.281,3.051c-1.186,2.186-1.707,3.234-2.848,6.34C73.077,350.293,73.156,351.839,72.907,353.429z"/>
				<path id="XMLID_3986_" style="opacity:0.1;" d="M72.907,353.429c-0.251,1.609-0.774,3.061-1.548,4.506
					c-0.906,0.962-2.662,1.04-3.845,0.973c-3.12-0.178-5.206-1.109-8.096-2.83c-1.732-1.032-3.621-2.149-5.9-2.829
					c-2.504-0.747-6.036-1.542-8.398-2.666c-2.018-0.961-3.99-1.933-5.623-3.452c-1.379-1.283-2.643-2.748-2.508-4.54
					c0.955-3.019,3.032-3.879,5.067-4.207c2.149-0.347,4.497,0.444,6.616,0.999c2.626,0.687,3.531,1.184,6.343,1.403
					c1.48,0.115,3.22,1.339,4.373,0.064c1.362-1.506,1.905-5.071,2.822-6.836c0.15-0.288,0.346-0.597,0.663-0.671
					c0.456-0.106,0.843,0.323,1.129,0.694c1.356,1.764,3.018,2.91,5.006,3.892c5.299,2.615,7.746,1.239,7.746,1.239l0.489-1.093
					c0,0,1.055,0.589-0.281,3.051c-1.186,2.186-1.707,3.234-2.848,6.34C73.077,350.293,73.156,351.839,72.907,353.429z"/>
				<path style="fill:#E0E0E0;" d="M49.656,339.652c-2.261,0.215-2.877,3.87-2.877,3.87s3.382,1.858,6.512,2.115
					c3.986,0.327,6.381-1.632,7.33-4.679c0.949-3.047,0.073-7.327-0.093-8.704c-0.127-1.051,0.284-1.908,1.337-2.223
					c-2.125,0.563-2.618,1.654-2.54,3.289c0.078,1.635,0.031,4.893-0.693,5.971C57.909,340.368,54.475,340.855,49.656,339.652z"/>
				<path style="opacity:0.1;" d="M49.656,339.652c-2.261,0.215-2.877,3.87-2.877,3.87s3.382,1.858,6.512,2.115
					c3.986,0.327,6.381-1.632,7.33-4.679c0.949-3.047,0.073-7.327-0.093-8.704c-0.127-1.051,0.284-1.908,1.337-2.223
					c-2.125,0.563-2.618,1.654-2.54,3.289c0.078,1.635,0.031,4.893-0.693,5.971C57.909,340.368,54.475,340.855,49.656,339.652z"/>
			</g>
			<g>
				<path id="XMLID_4871_" style="fill:#E0E0E0;" d="M106.291,228.44c1.421,1.455,4.956,6.331,5.533,13.837
					c0.244,3.178-0.66,9.169-4.373,13.677c-1.136,16.648-4.427,48.714-4.427,48.714c4.4,4.529,5.539,7.452,8.085,15.572
					c1.546,4.929,7.352,20.778,8.8,25.191c-7.707,0.942-11.9,8.599-11.9,8.599s-13.551-20.025-20.08-31.806
					c-4.826-8.709-5.935-10.403-7.245-15.59c-1.31-5.187-2.235-9.997-3.821-20.83c-1.586-10.833-4.4-25.755-5.176-36.419
					c-0.777-10.664-0.922-21.967-0.922-21.967L106.291,228.44z"/>
			</g>
			<path style="fill:#F0F0F0;" d="M88.851,309.908c-3.986-10.171-8.762-65.489-8.523-84.61l-1-0.013
				c-0.08,6.389,0.402,16.816,1.227,28.258c-3.256-1.64-5.346-4.66-5.346-19.807h-1c0,15.23,1.987,18.912,6.429,20.953
				c1.67,22.655,4.647,48.862,7.281,55.584c3.9,9.951,24.266,43.552,24.471,43.891l0.855-0.52
				C113.04,353.307,92.72,319.78,88.851,309.908z"/>
			<g id="Bottom_3_">
				<g>
					<path style="fill:#E0E0E0;" d="M106.873,352.323c-1.222,1.731-2.596,2.957,0.87,5.249c2.674,1.768,2.837,3.197,3.67,5.079
						c0.832,1.882,0.661,5.689,0.661,5.689s4.59-6.949,3.248-11.42C113.981,352.449,106.873,352.323,106.873,352.323z"/>
					<path style="opacity:0.1;" d="M106.873,352.323c-1.222,1.731-2.596,2.957,0.87,5.249c2.674,1.768,2.837,3.197,3.67,5.079
						c0.832,1.882,0.661,5.689,0.661,5.689s4.59-6.949,3.248-11.42C113.981,352.449,106.873,352.323,106.873,352.323z"/>
					<path style="fill:#E0E0E0;" d="M121.647,348.355c0.857,1.249,2.851,2.319,4.504,3.343c1.164,0.721,2.363,1.428,2.709,2.756
						c0.039,0.148-0.685,0.976-0.666,1.127c0.083,0.645,0.007,1.308-0.07,1.958c-0.267,2.257-1.497,3.92-1.764,6.177
						c-0.109,0.922-0.236,1.769-0.488,2.652c-0.283,0.992-0.193,2.188-0.259,3.214c-0.073,1.125-0.146,2.25-0.207,3.375
						c-0.024,0.44-0.148,1.004-0.054,1.443c0.102,0.471-7.547,4.325-10.63,5.804c-0.178,0.088-0.357,0.155-0.557,0.232
						c-2.798,0.938-5.626-0.551-5.626-0.551c-6.143-2.228-5.762-4.454-5.762-4.454s-0.192-2.567,2.923-4.299
						c0.392-0.218,0.783-0.404,1.172-0.537c0.022-0.01,0.045-0.019,0.056-0.03c2.601-0.946,4.775-0.243,4.775-0.243
						s0.338-0.681,0.421-2.829c0.079-2.037,0.187-2.289,0.069-4.325c-0.074-1.288-1.099-3.493-1.851-4.535
						c-1.302-1.804-2.716-4.08-3.607-5.369c-0.992-1.118-1.1-4.301,4.02-7.961c4.899-3.502,8.493-2.773,9.188-1.31
						C119.945,343.996,120.773,347.082,121.647,348.355z"/>
					<path style="opacity:0.1;" d="M121.647,348.355c0.857,1.249,2.851,2.319,4.504,3.343c1.164,0.721,2.363,1.428,2.709,2.756
						c0.039,0.148-0.685,0.976-0.666,1.127c0.083,0.645,0.007,1.308-0.07,1.958c-0.267,2.257-1.497,3.92-1.764,6.177
						c-0.109,0.922-0.236,1.769-0.488,2.652c-0.283,0.992-0.193,2.188-0.259,3.214c-0.073,1.125-0.146,2.25-0.207,3.375
						c-0.024,0.44-0.148,1.004-0.054,1.443c0.102,0.471-7.547,4.325-10.63,5.804c-0.178,0.088-0.357,0.155-0.557,0.232
						c-2.798,0.938-5.626-0.551-5.626-0.551c-6.143-2.228-5.762-4.454-5.762-4.454s-0.192-2.567,2.923-4.299
						c0.392-0.218,0.783-0.404,1.172-0.537c0.022-0.01,0.045-0.019,0.056-0.03c2.601-0.946,4.775-0.243,4.775-0.243
						s0.338-0.681,0.421-2.829c0.079-2.037,0.187-2.289,0.069-4.325c-0.074-1.288-1.099-3.493-1.851-4.535
						c-1.302-1.804-2.716-4.08-3.607-5.369c-0.992-1.118-1.1-4.301,4.02-7.961c4.899-3.502,8.493-2.773,9.188-1.31
						C119.945,343.996,120.773,347.082,121.647,348.355z"/>
					<path style="opacity:0.1;" d="M108.455,372.554c0.434-1.037,0.803-1.523,2.168-2.429c0.664,0.073,1.082,0.199,1.082,0.199
						C111.089,370.932,108.873,371.793,108.455,372.554z"/>
					<g>
						<path id="XMLID_3985_" style="fill:#E0E0E0;" d="M129.602,355.767c1.368,0.577,0.235,2.793-1.414,6.094
							c-1.64,3.283-1.962,5.237-1.636,8.215c0.326,2.979-0.376,4.436-1.664,5.472c-1.289,1.036-10.844,5.228-10.844,5.228
							s3.24-3.483,3.766-10.035c0.526-6.552,1.149-10.76,4.41-13.616C125.48,354.269,129.602,355.767,129.602,355.767z"/>
					</g>
					<g style="opacity:0.18;">
						<path id="XMLID_3983_" d="M129.602,355.767c1.368,0.577,0.235,2.793-1.414,6.094c-1.64,3.283-1.962,5.237-1.636,8.215
							c0.326,2.979-0.376,4.436-1.664,5.472c-1.289,1.036-10.844,5.228-10.844,5.228s3.24-3.483,3.766-10.035
							c0.526-6.552,1.149-10.76,4.41-13.616C125.48,354.269,129.602,355.767,129.602,355.767z"/>
					</g>
					<path id="XMLID_3976_" style="fill:#E0E0E0;" d="M102.777,375.431c0.155,1.275,3.813,3.877,8.126,3.833
						c4.45-0.046,4.688-0.972,5.359-6.032c0.671-5.061,1.134-12.076,3.322-15.085c2.188-3.01,5.069-4.789,9.277-3.691
						c0.481,0.234,1.787,1.536,1.296,2.754c0,0,0.012-0.962-1.715-1.462c-1.481-0.429-3.249-0.385-5.719,1.746
						c-2.883,2.487-3.528,8.324-3.857,13.34c-0.329,5.016-1.897,9.829-6.046,10.274c-4.149,0.444-7.358-0.779-10.004-3.1
						C102.382,376.657,102.777,375.431,102.777,375.431z"/>
				</g>
			</g>
		</g>
		<g id="Top_11_">
			<g id="XMLID_3969_">
				<path id="XMLID_3974_" style="fill:#E0E0E0;" d="M78.046,136.256c-1.246-1.442-1.248-3.732-0.553-5.507
					c0.695-1.775,2.147-3.653,6.386-5.847c5.035-2.605,18.877-4.457,25.724,4.596c0.987,1.305-12.635,26.906-11.962,32.216
					c-3.531-3.714-15.193-16.775-15.193-16.775c-2.763-1.176-4.433-2.174-5.016-4.78C77.265,139.417,77.301,137.518,78.046,136.256z
					"/>
				<g id="XMLID_3971_">
					<path id="XMLID_3973_" style="fill:#E0E0E0;" d="M80.12,143.498c0,0-3.729,6.096-3.317,6.593
						c0.412,0.497,2.763,1.827,2.763,1.827L80.12,143.498z"/>
					<path id="XMLID_3972_" style="fill:#F0F0F0;" d="M84.756,132.387c-2.502,1.182-4.673,3.102-5.451,8.596
						c-0.203,1.436,0.917,3.399,0.408,5.309c-2.179,8.177,0.407,14.995,1.998,16.5c1.074,1.015,6.69,1.467,9.637,0.646
						c3.687-1.028,11.696-4.644,15.515-10.407c4.493-6.78,5.544-15.896,0.54-19.556C100.362,128.324,87.427,131.125,84.756,132.387z
						"/>
					<path style="fill:#F0F0F0;" d="M103.912,156.896l1.459,10.101l0,0c2.253,0.483,2.468,3.15,1.347,5.171l0.522,2.839
						l-15.404,2.828l-1.726-14.124L103.912,156.896z"/>
					<path style="fill:#E0E0E0;" d="M82.01,162.998c1.306,0.725,4.187,1.261,8.1,0.715l-0.23-1.998c0,0-1.658,0.656-3.819,1.094
						C83.913,163.244,82.033,163.001,82.01,162.998z"/>
				</g>
				<g>
					<path id="XMLID_3970_" style="fill:#E0E0E0;" d="M81.053,135.319c-0.137,3.562,2.097,4.683,3.687,5.385
						c-0.57,1.03-0.879,3.06-0.654,4.198c0.357,1.805,1.043,3.284,2.819,3.881c1.088,0.365,1.408-0.114,1.795-0.971
						c0.552-1.219,1.243-3.09,3.861-2.73c3.002,0.413,3.793,4.932,2.044,7.892c-0.771,1.305-2.049,2.201-3.383,2.277
						c-1.196,0.068-2.043-0.964-2.043-0.964s0.198,3.947,5.271,6.283c0,0,5.119,2.881,10.368,1.331
						c1.962-2.337,4.281-4.76,6.677-8.221c5.537-7.998,6.641-22.643-2.793-25.269c-0.45-0.125-8.991-1.318-13.157-0.415
						C82.767,130.767,81.077,134.702,81.053,135.319z"/>
				</g>
				<path style="fill:#E0E0E0;" d="M104.223,127.417c-1.108,0.825-1.963,2.038-2.182,3.402s0.264,2.862,1.354,3.71
					c2.765,2.149,7.017-0.346,7.521-3.522C111.511,127.249,106.983,125.363,104.223,127.417z"/>
				<path style="opacity:0.1;" d="M104.223,127.417c-1.108,0.825-1.963,2.038-2.182,3.402s0.264,2.862,1.354,3.71
					c2.765,2.149,7.017-0.346,7.521-3.522C111.511,127.249,106.983,125.363,104.223,127.417z"/>
				<path style="fill:#E0E0E0;" d="M106.449,128.609c-2.808,1.719-4.557,5.783-3.059,8.715c0.409,0.8,0.984,1.513,1.322,2.345
					c1.088,2.672-0.495,5.612-0.834,8.477c-0.219,1.848,0.152,5.03,1.14,6.639c0.927,1.509,2.986,1.897,3.808,3.492
					c0.565,1.097,0.176,2.434,0.395,3.648c0.476,2.626,3.571,3.884,6.239,3.943c2.263,0.049,4.706-0.524,6.166-2.255
					c0.736-0.872,1.175-1.983,2.007-2.765c1.586-1.492,4.156-1.411,5.865-2.761c1.355-1.07,1.937-2.9,1.882-4.626
					c-0.055-1.726-0.662-3.384-1.316-4.983c-1.138-2.786-0.226-4.503,0.35-7.282c0.618-2.98-1.165-6.277-3.996-7.392
					c-1.94-0.764-4.298-0.634-5.854-2.021c-0.848-0.756-1.311-1.852-2.078-2.69C115.539,125.879,109.748,126.589,106.449,128.609z"
					/>
			</g>
			<g id="XMLID_3967_">
				<path id="XMLID_3968_" style="fill:#E0E0E0;" d="M117.484,175.254c-1.379-4.497-5.949-6.87-7.341-7.274
					c-1.392-0.404-4.772-0.983-4.772-0.983c0.78,1.785-0.54,2.957-2.847,3.494c-2.979,0.693-7.505,0.772-10.587-1.277l-1.264-0.781
					c0,0-7.753,1.978-9.946,2.995c-0.67,0.311-4.376,1.561-10.216,14.66c-2.497,5.601-1.749,11.294,2.831,15.331
					c0.259,3.553-2.032,11.536-2.032,11.536c-1.906,11.803-0.785,20.196-0.785,20.196s2.761,7.254,24.465,7.177
					c16.809-0.059,25.252-8.2,25.252-8.2c-0.2-4.137-6.663-18.538-6.024-23.376C115.223,201.658,121.695,188.985,117.484,175.254z"
					/>
				<path id="XMLID_3966_" style="opacity:0.15;" d="M117.484,175.254c-1.379-4.497-5.949-6.87-7.341-7.274
					c-1.392-0.404-4.772-0.983-4.772-0.983c0.78,1.785-0.54,2.957-2.847,3.494c-2.979,0.693-7.505,0.772-10.587-1.277l-1.264-0.781
					c0,0-7.753,1.978-9.946,2.995c-0.67,0.311-4.376,1.561-10.216,14.66c-2.497,5.601-1.749,11.294,2.831,15.331
					c0.259,3.553-2.032,11.536-2.032,11.536c-1.906,11.803-0.785,20.196-0.785,20.196s2.761,7.254,24.465,7.177
					c16.809-0.059,25.252-8.2,25.252-8.2c-0.2-4.137-6.663-18.538-6.024-23.376C115.223,201.658,121.695,188.985,117.484,175.254z"
					/>
			</g>
			<path id="Arm_5_" style="fill:#F0F0F0;" d="M80.727,171.429c4.419,3.593,4.764,8.539,4.074,15.211
				c-0.69,6.672-7.364,27.513-8.727,32.047c-1.363,4.535-3.335,6.12-6.788,9.784c-3.597,3.818-11.513,9.508-15.529,12.854
				c-1.858,1.548-3.521,3.159-5.282,4.847c-1.836,1.76-4.058,2.975-6.119,4.469c-0.952,0.689-2.201,1.074-3.369,1.17
				c-0.769,0.063-1.438-0.357-2.165-0.3c-0.753,0.058-1.315,0.635-2.164,0.495c-0.945-0.156-1.583-0.951-2.448-1.034
				c-0.905-0.086-1.833,0.068-2.76-0.135c-0.835-0.184-1.384-0.414-2.251-0.233c-0.711,0.148-1.799,0.841-2.462,0.252
				c-0.743-0.661-0.31-1.529,0.134-2.228c0.783-1.234,2.507-2.262,3.888-2.683c1.6-0.488,3.066-1.342,4.72-1.643
				c1.497-0.272,2.945-1.228,4.164-2.148c0.852-0.643,1.543-1.759,0.124-2.05c-1.672-0.343-3.873-0.108-5.194-1.462
				c-0.914-0.936-0.375-1.8,0.732-2.046c1.855-0.412,3.57-0.937,5.358-1.62c1.779-0.679,3.469-1.542,5.263-2.168
				c0.932-0.326,1.932-0.554,2.907-0.755c2.73-0.562,4.319-2.877,6.023-4.863c2.38-2.772,6.472-7.98,9.261-11.733
				c0-0.001,4.202-20.343,4.202-20.343C68.97,184.017,69.946,174.761,80.727,171.429z"/>
		</g>
	</g>
</g>
<g id="Speech_Bubble">
	<g id="Speech_Bubble_7_">
		<g id="Speech_Bubble_26_">
			<path style="fill:#455A64;" d="M337.901,67.817c-13.188-13.188-34.647-13.193-47.84,0c-13.188,13.188-13.182,34.647,0.005,47.834
				c13.188,13.188,34.642,13.188,47.829,0C351.089,102.459,351.088,81.005,337.901,67.817z M292.213,113.506
				c-12.005-12.005-12.01-31.537-0.005-43.542c12.005-12.005,31.537-12,43.542,0.005c12,12,12,31.527-0.005,43.532
				C323.74,125.505,304.212,125.505,292.213,113.506z"/>
			<path style="fill:#FFFFFF;" d="M335.744,113.5c-12.005,12.005-31.532,12.005-43.531,0.005
				c-12.005-12.005-12.01-31.537-0.005-43.542c12.005-12.005,31.537-12,43.542,0.005C347.749,81.968,347.749,101.495,335.744,113.5z
				"/>
			<path style="fill:#455A64;" d="M282.179,120.945l4.842-10.967l8.717,8.717l-10.967,4.842
				C283.129,124.261,281.454,122.587,282.179,120.945z"/>
		</g>
		<g id="Bulb">
			<g>
				<g>
					<path style="fill:#455A64;" d="M319.152,106.035h-10.348c-0.43,0-0.779-0.349-0.779-0.779c0-0.43,0.349-0.779,0.779-0.779
						h10.348c0.43,0,0.779,0.349,0.779,0.779C319.931,105.686,319.582,106.035,319.152,106.035z"/>
				</g>
			</g>
			<g>
				<g>
					<path style="fill:#455A64;" d="M313.978,114.108c-3.283,0-5.953-2.671-5.953-5.953c0-0.43,0.349-0.779,0.779-0.779h10.348
						c0.43,0,0.779,0.349,0.779,0.779C319.931,111.438,317.261,114.108,313.978,114.108z"/>
				</g>
			</g>
			<g>
				<path style="fill:#BA68C8;" d="M325.034,73.931c-3.2-3.047-7.403-4.614-11.835-4.403c-8.272,0.392-15.111,7.45-15.235,15.741
					c-0.096,5.731,2.923,11.109,7.871,14.032c1.337,0.793,2.13,2.159,2.13,3.658c0,0.181,0.076,0.363,0.201,0.497
					c0.134,0.124,0.306,0.201,0.497,0.201h10.631c0.382,0,0.697-0.315,0.697-0.697c0-1.48,0.812-2.875,2.121-3.649
					c4.862-2.875,7.89-8.157,7.89-13.783C330.001,81.104,328.234,76.988,325.034,73.931z"/>
			</g>
			<g style="opacity:0.35;">
				<path style="fill:#FFFFFF;" d="M325.034,73.931c-3.2-3.047-7.403-4.614-11.835-4.403c-8.272,0.392-15.111,7.45-15.235,15.741
					c-0.096,5.731,2.923,11.109,7.871,14.032c1.337,0.793,2.13,2.159,2.13,3.658c0,0.181,0.076,0.363,0.201,0.497
					c0.134,0.124,0.306,0.201,0.497,0.201h10.631c0.382,0,0.697-0.315,0.697-0.697c0-1.48,0.812-2.875,2.121-3.649
					c4.862-2.875,7.89-8.157,7.89-13.783C330.001,81.104,328.234,76.988,325.034,73.931z"/>
			</g>
			<g>
				<path style="fill:#FAFAFA;" d="M322.847,88.822c-0.21-0.678-0.802-1.098-1.547-1.098c-0.955,0-1.996,0.678-2.846,1.853
					l-0.124,0.172l-0.201-0.067c-0.821-0.268-1.624-0.697-2.359-1.261c-0.401-0.306-0.774-0.64-1.098-0.993l-0.162-0.162
					l0.134-0.191c0.993-1.394,1.375-2.923,1.022-3.983c-0.258-0.745-0.888-1.194-1.691-1.194c-0.793,0-1.423,0.449-1.681,1.194
					c-0.354,1.06,0.029,2.589,1.022,3.983l0.134,0.191l-0.162,0.162c-0.325,0.353-0.697,0.688-1.099,0.993
					c-0.745,0.563-1.538,0.993-2.359,1.261l-0.201,0.067l-0.124-0.172c-0.85-1.175-1.891-1.853-2.846-1.853
					c-0.745,0-1.337,0.42-1.547,1.098c-0.181,0.554,0.019,1.089,0.564,1.471c0.497,0.353,1.251,0.544,2.13,0.544
					c0.401,0,0.812-0.038,1.242-0.115l0.201-0.038l0.095,0.182c0.334,0.592,0.63,1.299,0.888,2.082
					c0.984,3.076,0.946,6.151,0.908,9.16c-0.01,0.525-0.019,1.041-0.019,1.547h0.821c0-0.516,0-1.032,0.01-1.566
					c0.048-2.894,0.086-6.18-0.946-9.389c-0.229-0.716-0.497-1.375-0.793-1.949l-0.143-0.286l0.306-0.115
					c0.822-0.306,1.595-0.736,2.312-1.28c0.401-0.306,0.764-0.621,1.089-0.955l0.201-0.21l0.21,0.21
					c0.325,0.334,0.697,0.659,1.089,0.955c0.707,0.544,1.49,0.974,2.312,1.28l0.306,0.115l-0.143,0.286
					c-0.296,0.573-0.564,1.232-0.793,1.949c-1.041,3.209-0.993,6.495-0.946,9.399c0,0.525,0.01,1.041,0.01,1.557h0.822
					c0-0.506-0.01-1.022-0.019-1.595c-0.038-2.97-0.077-6.046,0.907-9.112c0.258-0.783,0.554-1.49,0.888-2.082l0.096-0.182
					l0.201,0.038c0.42,0.076,0.841,0.115,1.242,0.115c0.869,0,1.633-0.191,2.13-0.544C322.819,89.911,323.029,89.376,322.847,88.822
					z M308.204,90.007c-0.124,0.01-0.248,0.01-0.363,0.01c-0.726,0-1.337-0.143-1.7-0.392c-0.086-0.067-0.344-0.248-0.258-0.544
					c0.105-0.344,0.392-0.535,0.774-0.535c0.516,0,1.165,0.363,1.738,0.984l0.411,0.439L308.204,90.007z M313.974,86.606
					l-0.239-0.401c-0.65-1.06-0.898-2.149-0.669-2.856c0.143-0.42,0.449-0.63,0.908-0.63c0.458,0,0.774,0.21,0.907,0.63
					c0.239,0.707-0.01,1.796-0.659,2.856L313.974,86.606z M321.816,89.624c-0.363,0.248-0.984,0.392-1.71,0.392
					c-0.115,0-0.229,0-0.353-0.01l-0.602-0.038l0.411-0.439c0.573-0.621,1.223-0.984,1.738-0.984c0.382,0,0.659,0.191,0.774,0.525
					C322.169,89.376,321.901,89.558,321.816,89.624z"/>
			</g>
		</g>
	</g>
</g>
</svg>
